<svg width="25" height="24" viewBox="0 0 25 24" fill="none" xmlns="http://www.w3.org/2000/svg">
<path d="M9.20886 14.25C9.20886 14.0511 9.28788 13.8603 9.42853 13.7197C9.56918 13.579 9.75995 13.5 9.95886 13.5H15.9589C16.1578 13.5 16.3485 13.579 16.4892 13.7197C16.6298 13.8603 16.7089 14.0511 16.7089 14.25C16.7089 14.4489 16.6298 14.6397 16.4892 14.7803C16.3485 14.921 16.1578 15 15.9589 15H9.95886C9.75995 15 9.56918 14.921 9.42853 14.7803C9.28788 14.6397 9.20886 14.4489 9.20886 14.25Z" fill="#49380B"/>
<path d="M6.20886 0C6.40777 0 6.59854 0.0790176 6.73919 0.21967C6.87984 0.360322 6.95886 0.551088 6.95886 0.75V1.5H18.9589V0.75C18.9589 0.551088 19.0379 0.360322 19.1785 0.21967C19.3192 0.0790176 19.51 0 19.7089 0C19.9078 0 20.0985 0.0790176 20.2392 0.21967C20.3798 0.360322 20.4589 0.551088 20.4589 0.75V1.5H21.9589C22.7545 1.5 23.5176 1.81607 24.0802 2.37868C24.6428 2.94129 24.9589 3.70435 24.9589 4.5V21C24.9589 21.7956 24.6428 22.5587 24.0802 23.1213C23.5176 23.6839 22.7545 24 21.9589 24H3.95886C3.16321 24 2.40015 23.6839 1.83754 23.1213C1.27493 22.5587 0.958862 21.7956 0.958862 21V4.5C0.958862 3.70435 1.27493 2.94129 1.83754 2.37868C2.40015 1.81607 3.16321 1.5 3.95886 1.5H5.45886V0.75C5.45886 0.551088 5.53788 0.360322 5.67853 0.21967C5.81918 0.0790176 6.00995 0 6.20886 0V0ZM2.45886 6V21C2.45886 21.3978 2.6169 21.7794 2.8982 22.0607C3.17951 22.342 3.56104 22.5 3.95886 22.5H21.9589C22.3567 22.5 22.7382 22.342 23.0195 22.0607C23.3008 21.7794 23.4589 21.3978 23.4589 21V6H2.45886Z" fill="#49380B"/>
</svg>
