<svg width="24" height="22" viewBox="0 0 24 22" fill="none" xmlns="http://www.w3.org/2000/svg">
<path d="M22 1.33333H2C0.895833 1.33333 0 2.22916 0 3.33333V18C0 19.1042 0.895833 20 2 20H22C23.1042 20 24 19.1042 24 18V3.33333C24 2.22916 23.1042 1.33333 22 1.33333ZM22 18H12.6333C12.6708 17.8125 12.6667 18.15 12.6667 17.0667C12.6667 15.7417 11.4125 14.6667 9.86667 14.6667C9.41667 14.6667 9.0875 15 8 15C6.87917 15 6.60833 14.6667 6.13333 14.6667C4.5875 14.6667 3.33333 15.7417 3.33333 17.0667C3.33333 18.15 3.325 17.8125 3.36667 18H2V5.99999H22V18ZM15 14.6667H19.6667C19.85 14.6667 20 14.5167 20 14.3333V13.6667C20 13.4833 19.85 13.3333 19.6667 13.3333H15C14.8167 13.3333 14.6667 13.4833 14.6667 13.6667V14.3333C14.6667 14.5167 14.8167 14.6667 15 14.6667ZM15 12H19.6667C19.85 12 20 11.85 20 11.6667V11C20 10.8167 19.85 10.6667 19.6667 10.6667H15C14.8167 10.6667 14.6667 10.8167 14.6667 11V11.6667C14.6667 11.85 14.8167 12 15 12ZM15 9.33333H19.6667C19.85 9.33333 20 9.18333 20 8.99999V8.33333C20 8.14999 19.85 7.99999 19.6667 7.99999H15C14.8167 7.99999 14.6667 8.14999 14.6667 8.33333V8.99999C14.6667 9.18333 14.8167 9.33333 15 9.33333ZM8 13.3333C9.47083 13.3333 10.6667 12.1375 10.6667 10.6667C10.6667 9.19583 9.47083 7.99999 8 7.99999C6.52917 7.99999 5.33333 9.19583 5.33333 10.6667C5.33333 12.1375 6.52917 13.3333 8 13.3333Z" fill="#49380B"/>
</svg>
