<svg width="24" height="24" viewBox="0 0 24 24" fill="none" xmlns="http://www.w3.org/2000/svg">
<path fill-rule="evenodd" clip-rule="evenodd" d="M16.272 10.272C16.272 11.3329 15.8505 12.3503 15.1004 13.1004C14.3503 13.8506 13.3328 14.272 12.272 14.272C11.2111 14.272 10.1937 13.8506 9.44355 13.1004C8.6934 12.3503 8.27197 11.3329 8.27197 10.272C8.27197 9.21113 8.6934 8.19372 9.44355 7.44357C10.1937 6.69343 11.2111 6.272 12.272 6.272C13.3328 6.272 14.3503 6.69343 15.1004 7.44357C15.8505 8.19372 16.272 9.21113 16.272 10.272ZM14.272 10.272C14.272 10.8024 14.0613 11.3111 13.6862 11.6862C13.3111 12.0613 12.8024 12.272 12.272 12.272C11.7415 12.272 11.2328 12.0613 10.8578 11.6862C10.4827 11.3111 10.272 10.8024 10.272 10.272C10.272 9.74157 10.4827 9.23286 10.8578 8.85779C11.2328 8.48271 11.7415 8.272 12.272 8.272C12.8024 8.272 13.3111 8.48271 13.6862 8.85779C14.0613 9.23286 14.272 9.74157 14.272 10.272Z" fill="#49380B"/>
<path fill-rule="evenodd" clip-rule="evenodd" d="M5.794 16.518C4.50484 15.2906 3.60861 13.7084 3.21864 11.9716C2.82867 10.2348 2.96248 8.42139 3.60315 6.76064C4.24381 5.0999 5.36256 3.66643 6.81792 2.6415C8.27328 1.61658 9.99988 1.04624 11.7794 1.00261C13.5589 0.958972 15.3114 1.444 16.8152 2.39636C18.3191 3.34872 19.5067 4.72564 20.228 6.35299C20.9493 7.98034 21.1718 9.78504 20.8675 11.5389C20.5631 13.2927 19.7455 14.9169 18.518 16.206L12.312 22.724L5.794 16.518ZM17.07 14.827L12.243 19.897L7.173 15.07C6.17037 14.1153 5.47334 12.8848 5.17005 11.534C4.86676 10.1832 4.97084 8.77275 5.46912 7.48109C5.9674 6.18943 6.8375 5.07452 7.96941 4.27736C9.10131 3.4802 10.4442 3.03658 11.8282 3.0026C13.2122 2.96861 14.5752 3.3458 15.7449 4.08645C16.9146 4.8271 17.8383 5.89796 18.3994 7.16361C18.9605 8.42926 19.1336 9.83287 18.897 11.1969C18.6604 12.561 18.0246 13.8243 17.07 14.827Z" fill="#49380B"/>
</svg>
