<svg width="24" height="17" viewBox="0 0 24 17" fill="none" xmlns="http://www.w3.org/2000/svg">
<path d="M22.8 0H1.2C0.537375 0 0 0.537375 0 1.2V15.6C0 16.2626 0.537375 16.8 1.2 16.8H22.8C23.4626 16.8 24 16.2626 24 15.6V1.2C24 0.537375 23.4626 0 22.8 0ZM6.6 11.0955V11.7C6.6 11.8657 6.46575 12 6.3 12H5.7C5.53425 12 5.4 11.8657 5.4 11.7V11.0891C4.97662 11.0674 4.56488 10.9196 4.22363 10.6635C4.07738 10.5536 4.06987 10.3346 4.20225 10.2082L4.64288 9.78788C4.74675 9.68888 4.90125 9.68437 5.02275 9.7605C5.16788 9.85125 5.3325 9.9 5.5035 9.9H6.55763C6.80138 9.9 7.00013 9.678 7.00013 9.40537C7.00013 9.18225 6.86475 8.98575 6.67125 8.928L4.98375 8.42175C4.28662 8.2125 3.7995 7.5435 3.7995 6.79462C3.7995 5.87512 4.51388 5.12812 5.39963 5.1045V4.5C5.39963 4.33425 5.53388 4.2 5.69963 4.2H6.29963C6.46538 4.2 6.59963 4.33425 6.59963 4.5V5.11087C7.023 5.13262 7.43475 5.28 7.776 5.5365C7.92225 5.64637 7.92975 5.86537 7.79738 5.99175L7.35675 6.41212C7.25287 6.51112 7.09838 6.51562 6.97688 6.4395C6.83175 6.34837 6.66713 6.3 6.49613 6.3H5.442C5.19825 6.3 4.9995 6.522 4.9995 6.79462C4.9995 7.01775 5.13487 7.21425 5.32837 7.272L7.01588 7.77825C7.713 7.9875 8.20013 8.6565 8.20013 9.40537C8.20013 10.3252 7.48575 11.0719 6.6 11.0955ZM15.6 10.5C15.6 10.6657 15.4657 10.8 15.3 10.8H11.1C10.9343 10.8 10.8 10.6657 10.8 10.5V9.9C10.8 9.73425 10.9343 9.6 11.1 9.6H15.3C15.4657 9.6 15.6 9.73425 15.6 9.9V10.5ZM21.6 10.5C21.6 10.6657 21.4658 10.8 21.3 10.8H18.3C18.1343 10.8 18 10.6657 18 10.5V9.9C18 9.73425 18.1343 9.6 18.3 9.6H21.3C21.4658 9.6 21.6 9.73425 21.6 9.9V10.5ZM21.6 6.9C21.6 7.06575 21.4658 7.2 21.3 7.2H11.1C10.9343 7.2 10.8 7.06575 10.8 6.9V6.3C10.8 6.13425 10.9343 6 11.1 6H21.3C21.4658 6 21.6 6.13425 21.6 6.3V6.9Z" fill="#49380B"/>
</svg>
