<svg width="23" height="24" viewBox="0 0 23 24" fill="none" xmlns="http://www.w3.org/2000/svg">
<path d="M17.0751 9.75H15.6522C15.6516 9.15345 15.4266 8.5815 15.0264 8.15967C14.6263 7.73784 14.0837 7.5006 13.5178 7.5V6C14.4609 6.00119 15.3651 6.39666 16.032 7.09966C16.6988 7.80267 17.074 8.7558 17.0751 9.75V9.75Z" fill="#49380B"/>
<path d="M19.9209 9.75H18.498C18.4965 8.3581 17.9713 7.02367 17.0377 6.03944C16.1041 5.05522 14.8382 4.50159 13.5178 4.5V3C15.2155 3.00199 16.843 3.71378 18.0434 4.97922C19.2438 6.24466 19.9191 7.9604 19.9209 9.75V9.75Z" fill="#49380B"/>
<path d="M18.498 21.75H18.377C4.39689 20.9025 2.41192 8.4675 2.13445 4.6725C2.09109 4.07756 2.27367 3.48883 2.64205 3.03579C3.01043 2.58276 3.53443 2.30253 4.09879 2.25675C4.15523 2.25225 4.21191 2.25 4.26883 2.25H8.01821C8.30319 2.24971 8.58169 2.33963 8.81763 2.50812C9.05357 2.67661 9.23608 2.9159 9.34152 3.195L10.4229 6C10.5271 6.27266 10.5529 6.57156 10.4972 6.85957C10.4416 7.14758 10.3069 7.412 10.1099 7.62L8.59449 9.2325C8.83024 10.651 9.47413 11.9587 10.4388 12.9784C11.4035 13.998 12.6424 14.6802 13.9873 14.9325L15.5312 13.32C15.7315 13.1146 15.9847 12.9759 16.2592 12.9213C16.5338 12.8666 16.8175 12.8983 17.0751 13.0125L19.7573 14.145C20.018 14.2597 20.2405 14.4536 20.3964 14.702C20.5522 14.9504 20.6344 15.2422 20.6324 15.54V19.5C20.6324 20.0967 20.4075 20.669 20.0072 21.091C19.6069 21.5129 19.0641 21.75 18.498 21.75ZM4.26883 3.75C4.1754 3.7497 4.08283 3.76881 3.9964 3.80623C3.90997 3.84365 3.83139 3.89864 3.76512 3.96808C3.69886 4.03751 3.64622 4.12003 3.61021 4.21091C3.57419 4.30179 3.55551 4.39926 3.55523 4.49775C3.55523 4.51875 3.55595 4.5395 3.55737 4.56C3.88464 9 5.98344 19.5 18.4553 20.25C18.6436 20.2619 18.8287 20.1945 18.9698 20.0625C19.111 19.9306 19.1967 19.745 19.208 19.5465L19.2094 19.5V15.54L16.5273 14.4075L14.4854 16.545L14.1439 16.5C7.95418 15.6825 7.11466 9.1575 7.11466 9.09L7.07197 8.73L9.09251 6.5775L8.02533 3.75H4.26883Z" fill="#49380B"/>
</svg>
