<svg width="24" height="24" viewBox="0 0 24 24" fill="none" xmlns="http://www.w3.org/2000/svg">
<path d="M3.82894 14.2896L1.64014 13.304C4.07132 7.92822 8.51873 3.7239 14.0225 1.5984L14.0657 1.7104L14.8833 3.84L14.8769 3.8416C9.97288 5.75057 6.00849 9.49966 3.82894 14.2896ZM21.3697 22.2256L5.47214 15.0624C7.47739 10.6544 11.1256 7.2043 15.6385 5.448L15.6433 5.4464L16.9505 8.8416C16.9057 8.8384 16.8673 8.816 16.8209 8.816C16.5392 8.81431 16.2614 8.88271 16.0127 9.01504C15.764 9.14737 15.552 9.33947 15.396 9.57405C15.2399 9.80864 15.1447 10.0784 15.1188 10.3589C15.0928 10.6395 15.1371 10.9221 15.2476 11.1813C15.358 11.4405 15.5312 11.6681 15.7515 11.8438C15.9718 12.0194 16.2323 12.1375 16.5096 12.1875C16.7869 12.2374 17.0722 12.2176 17.3399 12.1299C17.6077 12.0421 17.8494 11.8892 18.0433 11.6848L21.9041 21.7216C21.9321 21.7952 21.9377 21.8753 21.9201 21.9521C21.9026 22.0288 21.8627 22.0986 21.8056 22.1526C21.7484 22.2067 21.6765 22.2427 21.5989 22.2559C21.5214 22.2692 21.4416 22.2592 21.3697 22.2272V22.2256ZM13.4817 13.632C13.4817 13.3397 13.3951 13.0539 13.2327 12.8108C13.0703 12.5677 12.8395 12.3782 12.5695 12.2663C12.2994 12.1543 12.0022 12.125 11.7155 12.1819C11.4288 12.2388 11.1653 12.3795 10.9585 12.5861C10.7517 12.7926 10.6108 13.0559 10.5535 13.3426C10.4963 13.6293 10.5254 13.9265 10.637 14.1967C10.7487 14.4668 10.9379 14.6978 11.1808 14.8605C11.4237 15.0231 11.7094 15.1101 12.0017 15.1104C12.196 15.1104 12.3884 15.0721 12.5679 14.9977C12.7473 14.9233 12.9104 14.8143 13.0477 14.6768C13.185 14.5394 13.2939 14.3762 13.3681 14.1967C13.4423 14.0171 13.4803 13.8247 13.4801 13.6304L13.4817 13.632ZM18.3089 16.88C18.3089 16.5874 18.2222 16.3013 18.0596 16.0579C17.8971 15.8146 17.666 15.6249 17.3957 15.5128C17.1253 15.4007 16.8278 15.3713 16.5408 15.4283C16.2537 15.4853 15.99 15.6261 15.783 15.8329C15.5759 16.0397 15.4349 16.3033 15.3776 16.5903C15.3203 16.8773 15.3494 17.1748 15.4611 17.4453C15.5729 17.7157 15.7624 17.947 16.0055 18.1098C16.2487 18.2726 16.5347 18.3597 16.8273 18.36C17.0218 18.36 17.2144 18.3217 17.3941 18.2472C17.5737 18.1727 17.737 18.0636 17.8744 17.926C18.0119 17.7884 18.1209 17.625 18.1951 17.4453C18.2694 17.2655 18.3075 17.0729 18.3073 16.8784L18.3089 16.88Z" fill="#49380B"/>
</svg>
