<svg width="160" height="132" viewBox="0 0 160 132" fill="none" xmlns="http://www.w3.org/2000/svg">
<path d="M123.704 16.9625C123.744 16.9705 123.784 16.9705 123.816 16.9545C123.736 16.9385 123.704 16.9465 123.704 16.9625Z" fill="#F9932F"/>
<path d="M95.4319 1.91409L95.8091 1.96214C95.5683 1.90608 95.472 1.89807 95.4319 1.91409Z" fill="#F9932F"/>
<path d="M135.933 31.7546C135.917 31.7386 135.909 31.7386 135.893 31.7226C136.054 31.9709 136.262 32.3152 136.575 32.8919C136.367 32.5155 136.174 32.123 135.933 31.7546Z" fill="#F9932F"/>
<path d="M66.8474 1.55369C67.1042 1.49763 67.3129 1.44157 67.3771 1.3775C67.2567 1.44157 67.048 1.49763 66.8474 1.55369Z" fill="#F9932F"/>
<path d="M134.136 32.6676C133.743 32.2672 133.253 31.2581 133.165 31.3222C133.502 31.8027 133.871 32.5315 134.136 32.6676Z" fill="#F9932F"/>
<path d="M23.9382 90.795L24.0907 91.1154C24.0185 90.9552 23.9784 90.8591 23.9382 90.795Z" fill="#F9932F"/>
<path d="M57.2736 127.675C57.2655 127.675 57.2655 127.667 57.2495 127.667C57.2013 127.659 57.1692 127.651 57.1211 127.635L57.2736 127.675Z" fill="#F9932F"/>
<path d="M60.5238 128.997C60.283 128.933 60.0583 128.861 59.8015 128.789C60.1787 128.933 60.3793 128.981 60.5238 128.997Z" fill="#F9932F"/>
<path d="M97.8315 129.685C97.7191 129.726 97.6068 129.758 97.5024 129.79C97.6469 129.758 97.7592 129.717 97.8315 129.685Z" fill="#F9932F"/>
<path d="M69.9851 0.977057C70.0734 0.969048 70.1857 0.961039 70.2901 0.945022C70.3141 0.920996 70.2901 0.904978 69.9851 0.977057Z" fill="#F9932F"/>
<path d="M47.5075 12.5417L47.4993 12.5499L47.5075 12.5417Z" fill="#F9932F"/>
<path d="M47.5073 12.5417C47.8524 12.3174 48.1654 12.0852 48.5586 11.7408C48.1814 11.917 47.724 12.3014 47.5073 12.5417Z" fill="#F9932F"/>
<path d="M69.512 4.26082V4.25262C69.5038 4.26082 69.5038 4.26082 69.4956 4.26901L69.512 4.26082Z" fill="#F9932F"/>
<path d="M64.0466 5.46196C64.1349 5.46196 64.2553 5.44594 64.4078 5.41391C64.3115 5.41391 64.1831 5.43794 64.0466 5.46196Z" fill="#F9932F"/>
<path d="M129.674 26.3167C129.666 26.3007 129.666 26.2847 129.658 26.2686C129.658 26.2767 129.666 26.2927 129.674 26.3167Z" fill="#F9932F"/>
<path d="M143.766 62.4601C143.71 62.6043 143.621 62.5482 143.565 62.5963C143.549 62.7164 143.549 62.9567 143.565 63.221C143.581 63.213 143.597 63.213 143.621 63.205C143.67 62.6844 143.814 62.3961 143.918 62.7084C143.878 62.8286 143.854 62.9807 143.838 63.1409C143.95 63.1089 144.063 63.0688 144.183 63.0368C144.183 62.8926 144.191 62.7244 144.199 62.5242C144.055 62.5162 143.91 62.4842 143.766 62.4601Z" fill="#F9932F"/>
<path d="M39.7794 18.1638C39.8115 18.1478 39.8436 18.1318 39.8677 18.1158L39.7875 18.2199C39.7955 18.2439 39.7955 18.2679 39.8035 18.292C40.2529 17.7954 40.0844 17.8675 41.1677 17.0506C41.1035 17.1147 41.1597 17.1147 41.1517 17.1627C41.8659 16.3699 43.0456 15.609 44.3456 14.7441L44.1289 14.9523C44.6104 14.5439 44.8191 14.2315 45.0999 14.0473C44.3215 14.4958 44.4981 14.3196 44.3456 14.2475C45.445 13.751 45.6777 12.9822 47.395 12.0612C47.4111 12.1493 47.074 12.4936 46.5765 12.7019C46.1672 13.2785 46.1993 13.4787 45.3006 14.2475C45.8543 13.767 46.5765 13.3025 46.4802 13.4867L46.5444 13.1664C46.9216 12.9341 47.2105 12.7419 47.4994 12.5657C47.5796 12.3335 46.6086 12.838 47.4271 12.2053C48.3661 11.5086 48.0772 12.0932 48.1735 11.901C49.5056 11.028 48.6148 11.3484 49.9951 10.6516C49.8988 10.7237 49.7463 10.8438 49.6179 10.9159C50.597 10.4194 51.889 9.65854 52.2902 9.75464C52.1779 9.88278 52.1859 9.97889 51.8007 10.1471L51.7927 10.099C50.8859 10.7798 52.3945 9.77066 52.4587 9.93083C52.6353 9.73061 53.7668 9.17801 54.3366 8.97779L54.0637 8.90571C55.9576 7.47215 54.0958 9.27412 56.1502 8.27303C57.4422 7.61631 55.6205 8.4332 56.399 7.98471C57.3218 7.65635 57.7231 7.66436 59.0231 7.07171C59.4243 6.99964 60.2268 6.83946 60.3552 6.99964C60.7484 6.82344 61.3824 6.63123 61.9602 6.44703C62.546 6.27084 63.0917 6.12668 63.3003 5.9585C61.8238 6.19075 61.9441 6.57517 60.2268 6.87951L60.6281 6.54314C61.7596 6.1427 63.2201 5.63815 64.0467 5.47798C63.8781 5.46997 63.7899 5.44594 63.8781 5.37386C64.6967 5.09356 65.2103 4.89334 65.7399 4.73316C66.2615 4.56498 66.7831 4.40481 67.6097 4.24463C67.8585 4.36476 66.8955 4.55697 66.2054 4.73316C66.751 4.6771 67.0239 4.62104 67.369 4.53295C67.714 4.43684 68.1313 4.32472 68.9579 4.2206C69.0783 4.35675 67.8424 4.3968 67.69 4.60502C68.2838 4.44485 68.8937 4.34874 69.4956 4.2126C69.4875 4.2206 69.4956 4.22861 69.5036 4.24463C69.7283 3.96432 70.8919 3.98034 72.0073 3.78813C74.6636 3.42774 75.0488 3.10739 76.5253 2.77903C76.9346 2.81908 77.055 2.87514 76.8865 2.95522C76.2204 2.89115 76.3408 2.97124 76.1161 3.05934C76.5655 3.01129 77.071 3.03531 77.392 3.09137C77.713 3.16345 77.8655 3.25155 77.6087 3.30761C79.0452 3.19549 77.0871 3.18748 77.9618 3.08336L79.9359 3.05133C79.7032 2.92319 79.005 2.91518 80.0242 2.78704C80.8909 2.71496 81.3082 2.78704 82.4397 2.81908C82.2712 2.88315 82.7928 3.0273 81.9421 2.99527C82.4878 3.05934 83.3385 3.08336 83.6675 2.96323C83.0496 2.89115 83.5632 2.85912 84.1089 2.85912C84.6545 2.85912 85.2484 2.85912 84.791 2.72297L86.0188 2.93921C85.7379 2.91518 85.6978 3.00328 85.2885 2.93921C85.6256 3.16345 86.2997 2.96323 86.733 2.97124C87.1663 3.0273 88.2818 3.2115 88.3701 3.29159C88.7633 3.28358 89.7102 3.45177 89.8707 3.5719C90.4565 3.60393 89.9349 3.45177 90.1115 3.40371C90.7615 3.50783 91.4115 3.64398 92.0615 3.76411C92.1418 3.89225 92.2541 4.2206 91.9492 4.2126C92.7035 4.24463 92.2702 3.9403 93.3776 4.14853C92.7035 4.2126 94.798 4.64507 93.827 4.68511C94.4128 4.99745 96.2104 5.34984 97.1894 5.60612C97.8394 5.61412 96.1622 5.21369 96.2665 5.06953C99.0191 5.7743 99.3401 5.34984 101.298 6.11867L100.801 5.89443C102.077 6.2308 101.932 6.18274 102.702 6.31889C102.285 6.40699 103.898 7.36804 105.88 8.18493C106.089 8.1609 104.869 7.50419 105.254 7.48817L106.579 8.04878C106.667 8.10484 106.506 8.07281 106.33 8.02475C107.542 8.47324 108.384 9.26611 108.817 9.22607L109.829 10.099L109.435 9.74663C109.636 9.73862 110.944 10.3473 111.209 10.4834C112.541 11.1161 112.966 11.4525 113.576 11.9891C113.408 11.7809 112.966 11.2683 113.969 11.8529C113.777 12.1412 115.944 13.2705 115.815 13.4066C116.208 13.6629 116.81 14.2395 116.939 14.1514L116.746 14.2876C117.003 14.1114 118.415 15.0644 119.45 15.8573C118.961 16.0015 120.606 16.7142 120.807 17.371C121.168 17.3149 122.62 18.7965 122.957 18.7725C123.712 19.4372 123.447 19.5734 123.575 19.8056L123.984 20.0539C124.121 20.2781 124.53 20.7106 124.988 21.1991C125.445 21.6957 125.926 22.2643 126.28 22.6968L127.178 23.2814C127.243 23.4015 127.299 23.5137 127.355 23.6418C127.507 23.7219 128.101 24.3546 127.82 23.8901L128.173 24.3225C128.406 24.1784 128.751 24.8671 129.57 25.652C129.698 25.8842 129.602 25.8682 129.425 25.7C129.746 26.1165 129.546 26.0524 129.618 26.2927C129.658 26.1726 131.207 27.5501 130.42 26.3568C130.445 26.2046 131.054 26.8533 131.359 27.3258L131.375 27.7343C131.584 27.8544 131.777 27.9905 131.977 28.1187C132.515 28.8074 132.603 29.1999 132.988 29.7925C132.555 29.2159 131.68 28.7594 132.756 30.265C132.162 29.4882 131.777 29.1838 131.448 28.7994C131.664 29.1198 131.753 29.2799 131.327 28.8635C132.218 29.9927 131.728 29.1678 132.579 30.3131C132.354 30.3691 132.539 30.7295 133.133 31.8187L132.764 30.9538C132.812 30.9778 132.86 31.0178 132.908 31.0739C132.74 30.7616 132.716 30.6574 132.74 30.5533C132.9 30.7856 133.863 31.7947 133.879 32.067C133.398 30.6655 135.452 34.0531 135.123 33.1722C135.259 33.2843 135.773 34.1493 135.733 34.2934C134.995 33.3324 135.966 35.1984 135.741 35.1023C136.022 35.4547 135.412 34.2053 135.781 34.6858C136.15 35.2945 136.295 35.8151 136.407 36.2075L136.238 35.9592L136.6 36.8402L136.632 36.8162C136.64 36.8001 136.656 36.7841 136.664 36.7681C136.616 36.5599 136.543 36.3436 136.744 36.656C137.041 36.1995 137.386 35.775 137.771 35.3746C137.691 35.0302 137.916 35.2785 137.538 34.5577L137.258 34.4616L137.017 33.8129C137.065 34.0772 136.736 33.5806 136.359 32.956L136.407 32.9479L135.925 32.1951C136.487 32.8839 135.532 31.4823 135.861 31.7546C135.46 31.1059 135.444 31.0979 134.674 29.9527L134.69 30.225C133.606 28.7914 134.826 30.0488 134.008 28.8475L133.935 29.0076C133.43 28.0866 132.9 27.3659 132.362 26.7492C131.817 26.1325 131.311 25.5799 130.894 24.9232C131.472 25.5959 131.472 25.3076 131.424 25.3236C130.998 24.8111 130.428 24.1383 129.827 23.4896C129.233 22.8409 128.631 22.1762 128.077 21.7517C127.893 21.2392 127.86 21.103 126.946 20.0058C126.207 19.277 126.071 19.205 125.734 19.0608C125.405 18.6844 124.875 18.1959 124.434 17.7794C123.984 17.379 123.623 17.0666 123.655 16.9865C123.399 16.9305 122.989 16.3779 122.5 16.0976L122.452 15.9694L122.42 16.1456C121.874 15.4168 121.216 15.0244 120.606 14.5919C119.98 14.1675 119.362 13.751 118.704 13.1183L118.977 13.2625L118.327 12.87C118.271 12.7499 118.544 12.8941 118.624 12.838L117.195 11.8049L115.727 10.8438L116.248 11.3163C115.615 10.9319 115.117 10.7878 114.459 10.2512C115.109 10.5315 114.868 10.3713 114.443 10.107C114.01 9.85876 113.4 9.52239 113.343 9.39425L114.026 9.7146C113.127 9.21005 113.127 9.21005 113.119 9.38624C111.931 8.77758 112.477 8.65744 111.305 8.22497C111.57 8.36112 111.827 8.49727 112.076 8.64944C112.252 8.85766 111.658 8.64143 111.129 8.37714C111.016 8.29705 110.679 8.04077 111.088 8.23298C110.126 7.81653 108.761 6.99964 108.304 6.88751C107.806 6.60721 108.023 6.59119 108.32 6.67929C106.201 5.88642 107.413 6.19876 105.278 5.46196L105.343 5.39789L104.58 5.21369L103.617 4.63706L103.946 4.88533C103.256 4.62104 102.799 4.51693 101.996 4.20459L102.365 4.19658C100.367 3.58791 100.143 3.19549 98.1684 2.8431C98.0401 2.78704 98.353 2.82708 98.5135 2.85111C96.6838 2.53877 97.2295 2.23444 95.3597 2.05825C95.4801 2.04223 95.2955 1.94612 95.3758 1.9221L94.5332 1.80997L94.6375 1.65781L93.9072 1.75391C93.7548 1.65781 93.5862 1.56971 93.4338 1.48162L93.0967 1.50564C92.2621 1.04114 90.9701 1.00109 89.7744 0.616673L89.951 0.864944C86.8132 0.840917 82.857 -0.112122 79.0612 0.184201L79.1736 0L77.6167 0.240262C76.7741 0.12814 78.1143 0.0800874 77.8495 0C76.1803 0.160175 77.1673 0.288315 75.2333 0.472515C74.2383 0.432472 75.5704 0.320349 76.0278 0.224245C74.2142 0.400437 71.566 0.848926 70.282 0.945031C70.2579 0.977066 70.1857 1.01711 70.2499 1.01711C69.0702 1.32144 67.4733 1.47361 66.1813 1.81798C66.1973 1.72989 66.5183 1.6498 66.8393 1.55369C66.3659 1.6498 65.7158 1.7459 65.3306 1.91409L65.7881 1.65781C65.2825 1.76192 64.5522 1.93811 63.9263 2.12232C63.3004 2.30652 62.7627 2.45067 62.6343 2.39461C62.7707 2.42665 62.7547 2.5628 61.904 2.79505C61.3423 2.64288 59.641 3.63597 58.2447 3.95632C58.3811 3.84419 59.3682 3.49181 59.0873 3.58791C58.3811 3.74809 57.8194 4.06844 57.2737 4.38879L57.4181 4.2206C56.407 4.68511 55.3798 5.08555 54.4008 5.60612C53.847 5.56607 51.568 6.92756 51.6964 6.67929C50.6371 7.20786 52.6353 6.3269 51.3192 7.03968C50.918 7.11977 50.1396 7.70441 50.1155 7.5202L50.2519 7.43211L49.329 7.92064L49.8346 7.47215C49.0401 7.90462 48.5667 8.40917 48.5827 8.53731C47.7963 8.88169 46.7852 9.53841 46.3759 9.61849C46.4561 9.54641 46.5364 9.48234 46.6247 9.41827C45.6215 10.083 44.7308 10.5235 43.8962 10.956C43.0777 11.4044 42.3394 11.8689 41.6492 12.5337C41.5208 12.5977 41.5048 12.5497 41.7536 12.3815C41.3443 12.6618 40.943 12.9501 40.5498 13.2625L40.7504 12.9421L38.9368 14.6159L38.9047 14.5278C38.8405 14.5759 38.7683 14.632 38.7041 14.688C39.0813 15.4649 39.3381 16.2577 39.4745 17.0506C39.5949 17.411 39.6992 17.7874 39.7794 18.1638Z" fill="#F9932F"/>
<path d="M102.783 128.332C102.815 128.3 102.831 128.276 102.823 128.26C102.799 128.284 102.783 128.308 102.783 128.332Z" fill="#F9932F"/>
<path d="M134.979 97.202C134.561 97.9068 134.16 98.4914 133.719 99.012C133.028 99.885 132.37 100.694 131.544 101.831L131.624 101.951C129.032 104.906 126.127 108.639 122.733 111.506L123.174 111.209C122.829 111.738 122.091 112.387 121.577 112.907C121.449 112.931 121.794 112.355 120.855 113.236C121.087 113.099 121.529 112.779 121.449 112.931C119.916 114.076 117.54 115.838 114.804 117.6C112.076 119.378 108.914 121.052 106.041 122.237C102.221 124.007 98.0159 125.361 93.7387 126.234C89.4614 127.115 85.12 127.515 80.9872 127.571C82.2471 127.531 81.7174 127.859 80.7625 127.811C79.4624 127.507 78.3389 127.515 77.2074 127.507C76.0759 127.451 74.9204 127.483 73.6283 127.123C68.8054 126.73 64.7368 125.297 60.3793 124.248L60.3472 124.071C59.7373 123.783 59.5286 123.847 58.8706 123.599L58.9027 123.567C58.1403 123.238 57.2817 122.926 56.5033 122.638C55.7409 122.317 55.0588 122.029 54.6415 121.805L54.5131 121.941C53.6063 121.541 54.0958 121.629 53.1569 121.252L53.2211 121.188L52.0976 120.796C52.218 120.684 51.592 120.379 50.8858 120.003C50.1797 119.61 49.3611 119.186 49.0562 118.93C47.9327 118.329 45.8061 117.144 44.2814 115.942C44.0647 115.63 42.1869 114.181 41.0714 113.163C38.7763 111.337 35.7028 108.438 33.3435 105.531L33.2391 105.707C33.0225 105.459 32.7978 105.227 32.5972 104.971C32.6373 104.955 32.5731 104.834 32.6854 104.938C32.3965 104.202 31.2249 103.217 30.8718 102.496C31.0163 103.008 31.265 103.056 31.6021 103.497C32.0274 104.186 31.3934 103.705 30.8076 102.784L30.8558 102.776L30.3422 102.232C30.4224 102.071 30.0854 101.487 30.1656 101.327C29.1946 100.045 28.4563 98.9159 27.6458 97.8107C26.9316 96.6494 26.1371 95.5122 25.447 93.9986C25.7519 94.2228 24.3235 91.8923 24.8933 92.3568C23.9704 90.5948 24.813 92.7572 24.2433 92.0204C24.0186 91.5078 23.6976 91.0113 23.7618 90.8671C23.9383 91.0754 23.7377 90.3786 23.9544 90.779C23.7698 90.3786 23.5611 89.9782 23.3926 89.5697C23.3685 89.4416 23.513 89.6979 23.5852 89.826C22.4056 87.3753 22.0204 85.285 21.1938 83.0026C21.0413 82.8584 21.4265 83.9396 21.2741 83.8034C20.3993 81.4969 20.8327 81.6811 20.1827 79.4867L20.4314 79.9112C20.1746 79.2144 19.9419 78.9341 19.8376 77.7168C19.9098 77.5967 19.982 77.8449 20.0703 78.1893C20.1746 78.5337 20.287 78.9742 20.3913 79.2465C20.1746 78.4456 19.7814 76.3793 19.7413 77.036C19.5407 76.1791 19.5808 75.7867 19.5648 75.3382C19.5567 75.3462 19.5487 75.3622 19.5407 75.3702C19.5407 75.6025 19.5407 75.8908 19.4203 75.5224C19.3401 75.6185 19.2759 75.7146 19.1956 75.8027C18.7382 76.6196 18.1765 77.3564 17.5906 78.1252C17.4462 78.3094 17.3419 78.4536 17.2696 78.5577C16.9567 79.3185 16.5233 80.0073 16.0097 80.616L16.0017 80.704C16.1141 81.0004 16.5314 82.6101 16.8844 83.0506C16.8523 83.1868 17.1252 84.324 16.8363 83.4671C17.0449 84.2039 17.2215 84.9487 17.4542 85.6775L18.1604 87.8639L17.9999 87.1591C18.1283 87.0229 18.6258 88.3043 18.8425 88.9851C18.3851 88.1602 18.6098 88.9851 18.6499 89.4015C18.9549 89.9541 18.5777 88.8489 18.7783 89.1212C19.1715 89.81 19.8055 91.3397 19.9259 91.7401C19.8456 91.6039 19.7574 91.4758 19.6771 91.3397C20.1586 92.2847 20.1265 92.8453 20.5679 93.7983C21.0574 94.6152 21.3062 95.2639 21.4426 94.9836C22.1086 96.1689 21.5228 95.5282 21.6994 95.9367C21.9 96.1929 22.1969 96.7536 22.4537 97.2821C22.7266 97.8027 22.9513 98.2912 22.9513 98.4354C23.3124 98.6596 23.7216 99.4845 24.1389 100.237C24.5643 100.982 24.9575 101.687 25.1661 101.711L25.6155 102.752C25.7038 102.736 26.0007 102.808 26.5544 103.521C26.9717 104.266 26.731 104.194 26.8112 104.458L27.4051 104.738C30.0051 108.951 34.6676 113.564 38.7041 117.168C40.6381 118.625 43.1579 120.331 45.5413 121.837L45.2524 121.701C46.0147 122.245 46.8092 122.734 47.6117 123.222C47.05 122.83 46.4722 122.478 45.9345 122.061C46.4641 122.365 46.9216 122.526 47.4271 122.83C48.7111 123.679 50.276 124.56 51.9451 125.441C52.7958 125.849 53.6705 126.25 54.5612 126.642C55.452 127.019 56.3668 127.339 57.2656 127.651C59.6891 128.14 58.694 128.508 61.0132 129.005C60.8126 128.981 60.7243 129.005 60.5398 128.981C61.7676 129.301 62.7306 129.501 63.6855 129.718C64.6405 129.918 65.6195 130.046 66.8714 130.23C66.5103 130.55 68.4844 130.55 68.2276 130.687L68.4603 130.574C68.998 130.767 70.298 131.031 70.0894 131.103C70.4665 131.111 70.8437 131.103 71.2209 131.087L71.2931 131.247C72.0314 131.335 73.187 131.479 74.2623 131.592C75.3376 131.68 76.3247 131.8 76.7019 131.984C78.5476 131.968 80.9149 131.984 83.3946 131.88C84.6385 131.856 85.9064 131.712 87.1503 131.648C88.3941 131.535 89.6139 131.375 90.7615 131.247C91.3794 131.015 92.7035 130.767 93.7387 130.566C94.1239 130.566 94.493 130.526 94.8702 130.51C95.8974 130.198 96.9647 129.774 97.9437 129.589C97.9437 129.613 97.9116 129.637 97.8394 129.669C98.8746 129.325 99.9018 129.173 100.817 128.684C101.812 128.356 102.799 128.1 102.831 128.236C102.975 128.092 103.489 127.948 103.986 127.779C104.58 127.603 105.174 127.459 105.174 127.459C105.174 127.459 105.399 127.371 105.824 127.211C106.249 127.059 106.867 126.81 107.646 126.458C108.424 126.106 109.395 125.721 110.463 125.169C111 124.896 111.57 124.616 112.18 124.312C112.782 124.007 113.4 123.639 114.05 123.27C119.274 120.371 125.91 115.43 131.488 108.839C134.28 105.563 136.808 101.911 138.887 98.115C139.344 97.2901 139.761 96.4572 140.171 95.6243C138.678 96.4893 137.37 96.9538 136.038 97.122C135.685 97.178 135.332 97.194 134.979 97.202Z" fill="#F9932F"/>
<path d="M52.4668 9.91483C52.4427 9.94686 52.4347 9.96288 52.4507 9.9789C52.4668 9.94686 52.4668 9.93084 52.4668 9.91483Z" fill="#F9932F"/>
<path d="M49.618 10.8999C49.5778 10.9159 49.5377 10.9399 49.5056 10.956C49.5377 10.948 49.5778 10.9239 49.618 10.8999Z" fill="#F9932F"/>
<path d="M69.1987 4.44486L70.1858 4.16455L69.5117 4.26066C69.5197 4.3007 69.4956 4.34875 69.1987 4.44486Z" fill="#F9932F"/>
<path d="M41.1598 17.1627C41.1036 17.2268 41.0474 17.2909 40.9993 17.3469C41.1196 17.2428 41.1517 17.1948 41.1598 17.1627Z" fill="#F9932F"/>
<path d="M88.2095 3.35565C88.37 3.34764 88.4101 3.32362 88.386 3.29959C88.2657 3.3076 88.1934 3.32362 88.2095 3.35565Z" fill="#F9932F"/>
<path d="M129.465 25.676C129.385 25.5639 129.257 25.4357 129.072 25.2596C129.233 25.4518 129.361 25.5799 129.465 25.676Z" fill="#F9932F"/>
<path d="M76.1241 3.05933C75.9395 3.07534 75.755 3.10738 75.5945 3.15543C75.8834 3.13141 76.0278 3.09937 76.1241 3.05933Z" fill="#F9932F"/>
<path d="M128.663 24.8431L128.214 24.2985C128.205 24.3065 128.189 24.2985 128.181 24.3145L128.663 24.8431Z" fill="#F9932F"/>
<path d="M131.488 28.7834C131.335 28.5591 131.119 28.2468 130.982 28.0546C131.167 28.3589 131.319 28.5912 131.488 28.7834Z" fill="#F9932F"/>
<path d="M106.346 8.03276C106.322 8.02475 106.298 8.01674 106.274 8.00873C105.744 7.84856 106.073 7.96068 106.346 8.03276Z" fill="#F9932F"/>
<path d="M126.376 22.7448C126.36 22.7208 126.336 22.6968 126.312 22.6727L126.135 22.5606L126.376 22.7448Z" fill="#F9932F"/>
<path d="M133.173 31.3222C133.101 31.2101 133.029 31.1139 132.956 31.0419C133.012 31.138 133.077 31.2501 133.157 31.3862C133.149 31.3462 133.157 31.3302 133.173 31.3222Z" fill="#F9932F"/>
<path d="M115.518 13.3666C115.719 13.4227 115.807 13.4227 115.831 13.3986C115.639 13.2785 115.494 13.2224 115.518 13.3666Z" fill="#F9932F"/>
<path d="M1.97412 44.0721H2.26302L2.10252 43.6556H1.90992C1.73337 43.6556 1.65312 43.5515 1.65312 43.3353C1.65312 43.0309 1.8377 42.6545 2.20684 42.206V41.8857C2.20684 41.5173 2.61611 40.8846 3.43465 39.9796L3.92417 40.0437L3.85997 39.3629L4.05256 38.9144C4.15689 38.6582 4.24516 38.4099 4.30936 38.1696L4.69455 38.1056L4.75875 37.7211V37.4008C4.75875 36.9042 4.98345 36.6319 5.44087 36.5919C5.35259 36.3356 5.31247 36.1594 5.31247 36.0713C5.31247 35.9432 5.40074 35.791 5.56926 35.6228L5.76186 35.2064C5.89026 34.9501 6.08286 34.6938 6.33163 34.4456C6.5804 34.1973 6.76497 33.909 6.90139 33.5886C7.02979 33.2683 7.18227 32.996 7.35881 32.7797L7.42301 32.4914C7.70388 31.9949 8.07303 31.5144 8.52242 31.0418L9.58973 29.9126C9.7422 29.8726 9.9027 29.6163 10.0792 29.1518C10.2558 28.6873 10.4805 28.455 10.7614 28.455H10.8898C10.978 28.5431 11.0422 28.5832 11.0824 28.5832C11.1225 28.5832 11.1466 28.5591 11.1466 28.5191L11.0824 27.9985C11.5157 27.5661 11.7324 27.2777 11.7324 27.1256C11.7324 26.7812 12.27 26.2526 13.3534 25.5398C13.4818 25.4998 13.5941 25.3556 13.6904 25.1234C13.7867 24.8911 14.1398 24.5388 14.7417 24.0903L14.9985 23.834C15.3676 23.5297 15.6485 23.3134 15.8411 23.1853C16.1461 22.4084 16.788 21.9279 17.7831 21.7277L17.9757 21.5675C18.064 21.135 18.3288 20.9028 18.7862 20.8547C19.4363 20.1019 20.1585 19.7255 20.953 19.7255C20.9128 19.5974 20.8888 19.4692 20.8888 19.3411C20.8888 19.0608 21.0412 18.9246 21.3381 18.9246C21.3783 18.9246 21.5468 18.9807 21.8196 19.0848C22.0764 18.5883 22.3493 18.2759 22.6462 18.1478C22.9351 18.0196 23.1357 17.8995 23.2481 17.7954C23.3524 17.6913 23.4968 17.6032 23.6654 17.5391C23.7055 17.4991 23.8499 17.451 24.0987 17.411C24.3475 17.3709 24.6444 17.1707 24.9895 16.8263C25.0777 16.8263 25.3024 16.7222 25.6716 16.506H25.8642L25.9926 16.5701C26.442 16.1616 26.8191 15.9534 27.1241 15.9534L28.0309 15.633C28.1593 15.633 28.2957 15.6651 28.4321 15.7291C28.5686 15.7932 28.6649 15.8252 28.705 15.8252C28.7933 15.8252 29.0099 15.7372 29.355 15.569H29.4834C29.7643 15.7372 30.1655 15.8413 30.6952 15.8573C31.2248 15.8813 31.5779 16.2417 31.7464 16.9545L32.1316 17.7634C32.26 18.0196 32.3242 18.2359 32.3242 18.4121C32.3242 18.8205 32.3804 19.1168 32.5008 19.285C32.6211 19.4532 32.6773 19.5894 32.6773 19.6694C32.6773 19.7976 32.6211 19.9738 32.5008 20.206C32.3804 20.4303 32.3242 20.7186 32.3242 21.063C32.3242 21.1911 32.2359 21.4153 32.0674 21.7437L31.8106 22.3283C31.2248 24.3065 30.6791 25.2996 30.1575 25.2996C28.9056 25.2996 28.2797 24.8991 28.2797 24.1063C28.2797 23.2894 28.9056 22.3444 30.1575 21.2632C30.2859 21.1751 30.4785 20.8948 30.7433 20.4062C31.0001 19.9177 31.1285 19.6134 31.1285 19.4852C31.1285 19.0768 30.9359 18.8686 30.5427 18.8686C30.1976 18.8686 29.8927 18.9567 29.6198 19.1409C29.347 19.3251 29.026 19.4372 28.6488 19.4772C28.2716 19.5173 28.0148 19.5813 27.8864 19.6694L27.3648 19.9257C26.9957 20.1019 26.3537 20.4943 25.4228 21.119L16.6837 28.0626L16.5553 28.5752C16.5152 28.6392 16.3306 28.7674 16.0177 28.9596C15.7047 29.1518 15.48 29.4641 15.3516 29.8966C14.9022 30.6975 14.4368 31.2741 13.9633 31.6425L12.8318 33.1642L12.575 33.7488C12.27 33.8769 11.4916 34.7819 10.2478 36.4638C9.79838 37.0003 9.42923 37.3367 9.14836 37.4649C9.10824 37.4649 9.08416 37.4889 9.08416 37.5289L9.21256 38.0495V38.1776C9.21256 38.4179 8.49834 39.5471 7.07794 41.5733L7.01374 41.7015C6.88534 42.5184 6.68472 43.1431 6.41188 43.5755C6.13903 44.008 5.97853 44.3524 5.90631 44.6087C5.87421 44.8489 5.75384 45.0972 5.58531 45.3455C5.40877 45.5937 5.25629 45.9141 5.11987 46.3145C4.97542 46.7149 4.84703 47.0113 4.71863 47.2035C4.59023 47.3957 4.50998 47.5959 4.49393 47.8041C4.46986 48.0124 4.33343 48.3247 4.07664 48.7572C4.20504 49.1656 4.26923 49.3899 4.26923 49.4379C4.26923 49.526 4.09269 50.2708 3.74762 51.6643V51.7925C3.74762 52.0327 3.83589 52.297 4.00441 52.6014C4.17294 52.9057 4.32541 53.0499 4.45381 53.0499C4.62233 53.0499 5.18407 52.7696 6.13903 52.2089C7.08597 51.6483 7.76808 51.0877 8.17735 50.5271L8.95576 50.1427L9.43726 49.6942C9.8706 49.6542 10.1515 49.6061 10.2799 49.5661C10.6651 48.637 11.0021 48.1165 11.283 47.9803H11.9009C12.1176 47.7881 12.2219 47.4998 12.2219 47.1074C12.2219 46.9792 12.5268 46.5868 13.1447 45.9461C13.7627 45.2974 14.2201 44.7929 14.5331 44.4244C14.846 44.056 15.0466 43.8558 15.1349 43.8078C15.2633 43.4874 15.5763 43.095 16.0738 42.6305C16.5714 42.166 16.9004 41.7335 17.0609 41.3411C17.2214 40.9406 17.4621 40.7404 17.7912 40.7404C18.0961 40.7404 18.2405 40.6764 18.2405 40.5482C18.2405 40.4601 18.3047 40.2919 18.4331 40.0357L18.4973 39.7794C18.8825 39.2188 19.2196 38.8424 19.5005 38.6501L19.7572 38.3298C19.9338 37.9614 20.0943 37.7372 20.2468 37.6491L20.632 37.2646C20.6721 36.9843 20.8165 36.7361 21.0493 36.5198C21.29 36.3036 21.5468 35.9352 21.8437 35.4066C22.1326 34.878 22.4536 34.4295 22.7987 34.0692C23.3203 33.7488 23.7296 33.1481 24.0425 32.2752C24.3555 31.4022 24.7808 30.7696 25.3185 30.3851L26.113 29.0637C26.4981 28.5672 26.9636 28.3189 27.5013 28.3189C27.9506 28.3189 28.5284 28.7834 29.2346 29.7204C29.9328 30.6574 30.2859 31.5544 30.2859 32.4194L29.997 33.7088C29.8204 34.7819 29.5797 35.5428 29.2507 35.9832C28.9297 36.4237 28.7371 36.8081 28.6809 37.1285C28.6247 37.4488 28.4482 37.8092 28.1432 38.1936C27.8383 38.5781 27.5815 39.1947 27.3648 40.0357L26.4259 41.8136L26.1691 42.5584C25.9284 43.3753 25.8 43.8638 25.7839 44.016C25.7599 44.1041 25.7278 44.1922 25.6716 44.2883C25.6154 44.3844 25.5592 44.4725 25.495 44.5446C25.4308 44.6167 25.3666 44.7368 25.3024 44.897C25.2382 45.0571 25.1981 45.1372 25.1901 45.1372C25.1821 45.1372 25.174 45.1292 25.174 45.1052C24.9172 45.6017 24.7888 45.89 24.7888 45.9781C24.7888 46.1944 24.853 46.2985 24.9814 46.2985C25.15 46.2985 25.3506 46.1704 25.5833 45.9141C25.808 45.6578 26.0327 45.4736 26.2494 45.3615C26.466 45.2574 26.6025 45.1052 26.6747 44.929C26.7389 44.7448 26.9475 44.5446 27.3087 44.3283C27.6618 44.1121 27.8864 44.008 27.9747 44.008H28.2315C28.8976 43.5755 29.2828 43.2792 29.363 43.103C29.4272 43.0149 29.7723 42.8227 30.3982 42.5184L31.3692 42.0699C31.8267 41.9177 32.3724 41.5173 33.0224 40.8766L35.3255 39.7073C35.6947 39.5391 34.0094 40.6844 34.0897 40.6844C34.2181 40.6844 34.2823 40.9086 34.2823 41.3651C34.2823 41.6214 34.1378 41.8296 33.8489 41.9818C33.56 42.1339 33.3915 42.2541 33.3514 42.3342L33.4156 42.5584V42.6866C33.4156 43.0069 33.2551 43.4153 32.9261 43.8959C32.6051 44.3844 32.244 44.6647 31.8588 44.7368C31.4736 44.8089 31.2007 45.0091 31.0482 45.3214C30.8958 45.6338 30.7754 45.0091 30.6952 45.0571C30.655 45.0171 30.5026 45.7539 30.2458 45.6658H30.1174C29.9408 45.6658 29.7482 45.7859 29.5155 46.0182C29.2828 46.2504 28.8815 46.5548 28.3037 46.9232L27.7821 47.3797C27.6537 47.5479 27.5013 47.636 27.3327 47.636C26.0407 48.5169 25.3907 48.9814 25.3907 49.0215C24.2672 49.47 23.545 49.9985 23.224 50.6072L22.6061 51.6083C22.4536 51.9126 22.3011 52.1609 22.1567 52.3531L21.6431 54.3232C21.4746 54.6917 21.2419 55.02 20.961 55.3243V55.3884L21.0894 56.1012C21.0493 56.2053 20.8807 56.4375 20.5918 56.7979C20.3029 57.1503 20.006 57.8791 19.7011 58.9763L19.1153 60.9465L18.7943 61.459C18.385 61.9556 18.1763 62.2439 18.1763 62.332C18.1763 62.9326 17.8875 63.4852 17.3016 63.9818C17.2615 64.1099 17.0609 64.5744 16.7158 65.3673L16.3306 66.6887L15.7127 67.4335L15.5843 67.9541C15.4559 68.1223 15.2713 68.3706 15.0306 68.6829C14.7898 68.9953 14.5892 69.4037 14.4287 69.9082C14.2682 70.4128 13.9713 70.8693 13.554 71.2617C13.1287 71.6622 12.9201 71.9665 12.9201 72.1827C12.9201 72.2868 12.5589 72.8154 11.8287 73.7685C11.1064 74.7135 10.6972 75.3622 10.6089 75.7066C10.5206 76.0509 10.2558 76.2432 9.79838 76.2912C9.75825 76.3313 9.70208 76.5235 9.63788 76.8598C9.57368 77.1962 9.40516 77.3964 9.13231 77.4605C8.85946 77.5246 8.65082 77.7168 8.49835 78.0291C8.34587 78.3414 8.08908 78.4936 7.71993 78.4936C7.28659 78.4936 7.01374 78.5897 6.90942 78.7819C6.8051 78.9741 6.66065 79.0702 6.4841 79.0702C5.14395 79.0702 4.31738 78.4536 4.02046 77.2282C3.98034 77.012 3.87602 76.8118 3.71552 76.6276C3.55502 76.4434 3.45872 76.2351 3.44267 75.9949C3.4186 75.7546 3.29822 75.4102 3.08958 74.9618V74.8977L3.21798 74.5133C3.2581 74.5133 3.28217 74.4732 3.28217 74.3851L3.08958 73.7044C3.30625 73.1037 3.41057 72.7033 3.41057 72.5111L3.34637 71.7342C3.28217 71.2617 3.65934 70.1966 4.47788 68.5388C5.01555 67.7619 5.50507 66.6006 5.93841 65.0469C6.11496 64.7907 6.2915 64.5664 6.49213 64.3662L7.14214 63.2049L7.39894 62.9166C7.35881 62.8285 7.33474 62.7244 7.33474 62.5963C7.33474 62.34 7.54339 62.0757 7.9687 61.8034C8.386 61.5311 8.64279 61.3149 8.73107 61.1387L9.14836 60.6261L9.53355 59.9454C9.62183 59.3447 9.87862 59.0404 10.312 59.0404C10.3521 59.0404 10.4323 59.0644 10.5367 59.1045C10.6651 58.9123 10.7293 58.7281 10.7293 58.5519V58.4237L10.6651 58.1034C10.6651 58.0393 10.8577 57.799 11.2509 57.3906L12.4466 56.1973L12.7676 55.6447L14.7738 53.9308C14.9022 53.8027 15.0948 53.5544 15.3596 53.186L18.401 50.1507L18.6578 50.0226C18.8504 49.9345 18.9467 49.8704 18.9467 49.8303C18.9467 49.3819 19.0832 48.9174 19.364 48.4609C19.6449 47.9963 19.8535 47.5719 19.9819 47.1875V46.803C20.0702 46.6989 20.1665 46.5307 20.2708 46.3225L20.5918 46.0662C20.632 45.826 20.7202 45.6578 20.8486 45.5457L20.8085 44.8489C21.306 44.2002 21.5548 43.8238 21.5548 43.7197C21.5548 43.3513 21.7715 42.8067 22.2048 42.0699V41.8136C22.2048 41.3651 22.4215 40.9647 22.8549 40.6203C22.919 40.6203 23.0234 40.4041 23.1758 39.9716C23.3283 39.5391 23.4005 39.3149 23.4005 39.2908L23.3363 38.9064C22.7345 39.7473 22.1085 40.316 21.4585 40.6203C20.335 41.7415 19.6529 42.5024 19.4202 42.9108C19.2517 43.1911 19.1153 43.3272 19.035 43.3272H18.6177C18.5294 43.3272 18.377 43.4314 18.1683 43.6316C17.9517 43.8398 17.8473 43.984 17.8473 44.0641L18.0399 44.7128C17.9356 44.8169 17.7992 44.9851 17.6547 45.1933L17.5905 45.2574L17.2374 45.1933L17.109 45.3855L17.1732 45.834C17.1492 45.858 17.101 45.9301 17.0288 46.0582C16.9566 46.1864 16.6356 46.4266 16.0738 46.771C15.793 47.3076 15.5362 47.6039 15.2954 47.66C15.0547 47.716 14.9423 47.8362 14.9423 48.0284C14.9423 48.565 14.5652 49.0295 13.8108 49.4139C13.7225 49.4539 13.6262 49.5581 13.5219 49.7022C13.4096 49.8544 13.241 50.0546 13.0003 50.3189L12.8077 50.6713C12.7676 50.6713 12.7034 50.6953 12.6151 50.7353L12.2299 50.7994C12.1256 50.8394 11.9811 51.1198 11.8126 51.6403L11.6842 51.7685L11.299 51.8325C11.2348 51.8726 11.1466 52.0808 11.0422 52.4492L8.84342 54.6116L7.39091 55.1001C6.82917 55.2683 6.33163 55.3564 5.90631 55.3564C5.24024 55.3564 4.71863 55.1642 4.34948 54.7717C4.30936 54.7717 4.26121 54.7397 4.22109 54.6756L3.41057 54.7717C3.2581 54.7717 2.91303 54.5235 2.37536 54.0269L1.75745 53.7066C1.75745 53.6825 1.4846 53.3542 0.930886 52.7055C0.377169 52.0568 0.104323 51.6163 0.104323 51.384L0 50.2708L0.064199 49.6862L0 48.3647C0 48.1485 0.0882737 47.8442 0.256796 47.4437C0.433343 47.0433 0.529642 46.779 0.545692 46.6349C0.569766 46.4987 0.650015 46.3385 0.802488 46.1704L0.866687 45.7219C0.866687 45.4656 0.938911 45.2654 1.09138 45.1212C1.24386 44.9771 1.36423 44.8489 1.44448 44.7208L1.57288 44.5926L2.09449 44.6567L1.9019 44.1361C1.90992 44.0961 1.934 44.0721 1.97412 44.0721ZM5.88224 72.3669L5.68964 72.7834L5.88224 73.5602L5.75384 74.9457C5.75384 75.4423 5.85816 75.6906 6.07483 75.6906C6.72485 75.3222 7.23844 74.8657 7.63166 74.3211C8.02488 73.7685 8.30575 73.4081 8.47427 73.2399C8.65082 73.0637 8.85144 72.7033 9.07614 72.1587C9.30083 71.6061 9.46133 71.3338 9.5496 71.3338H9.8706C10.0471 71.3338 10.1274 71.0215 10.1274 70.3968C10.1274 70.3327 10.2317 69.9483 10.4323 69.2355C10.641 68.5227 10.8496 68.1383 11.0663 68.0742C11.1064 67.9862 11.1546 67.818 11.1947 67.5537L11.6441 66.969C11.7484 66.8169 11.8688 66.5926 11.9972 66.2883L12.1898 65.4794C12.6231 64.19 13.1528 63.4452 13.7787 63.253C13.867 63.2129 13.9071 63.1088 13.9071 62.9647L14.196 61.9956C14.3645 61.1307 14.7337 60.6101 15.2954 60.4099V60.3458C15.2954 60.2417 15.2713 60.0975 15.2312 59.9294V59.7371C15.2312 59.609 15.2874 59.4568 15.3917 59.2887C15.496 59.1125 15.6004 58.8642 15.6806 58.5278C15.7689 58.1915 15.9936 57.8231 16.3627 57.4146V57.0222C16.3627 56.5497 16.5393 56.2213 16.9004 56.0371C17.2535 55.8529 17.4381 55.6127 17.4381 55.3083L17.2776 54.5635L17.1492 54.6276C17.1492 55.036 16.8763 55.3804 16.3226 55.6607C15.7689 55.941 15.4238 56.2133 15.2713 56.4856C15.1189 56.7579 14.9022 56.9181 14.6053 56.9902C14.3164 57.0542 14.1479 57.4226 14.0997 58.0874C14.0114 58.2155 13.6985 58.3677 13.1447 58.5358C12.591 58.704 12.2861 59.0884 12.2219 59.6651C12.1577 60.2497 12.0052 60.5781 11.7725 60.6662L10.9941 60.7943C10.8175 60.8824 10.6891 61.0506 10.5928 61.3149C10.4965 61.5712 10.1033 62.1798 9.41318 63.1248L8.92366 64.2861L8.60267 64.6385C8.23352 65.2231 7.95265 66.024 7.76006 67.0571L7.20634 67.9942C6.90139 68.2985 6.74892 68.5868 6.74892 68.8671C6.74892 69.1234 6.54028 69.652 6.13101 70.4528V70.9734C5.91433 71.3418 5.81001 71.5661 5.81001 71.6542L5.88224 72.3669Z" fill="#F9932F"/>
<path d="M54.8258 39.3389C54.3042 38.9224 53.7666 38.7062 53.2048 38.7062C52.5548 38.7062 52.0252 38.8744 51.5998 39.2108C51.1825 39.5471 50.7974 39.7874 50.4683 39.9396C50.1313 40.0917 49.8986 40.2118 49.7702 40.2919C49.4893 40.5482 48.9195 40.9647 48.0528 41.5333C47.1862 42.1019 46.2633 42.6785 45.2682 43.2632C44.2731 44.2322 43.4947 44.7208 42.933 44.7208C42.6762 44.977 42.4435 45.1693 42.2348 45.2894C42.0262 45.4095 41.8657 45.5617 41.7292 45.7539C41.6008 45.9461 41.3119 46.1463 40.8706 46.3545C40.4292 46.5628 40.052 46.7229 39.7551 46.8591L39.1372 47.1794C38.8162 47.2836 38.5755 47.4998 38.423 47.8282L37.6125 48.1805C37.3958 48.3087 37.1791 48.4208 36.9625 48.5009L36.6736 48.629C36.1118 49.0134 35.6464 49.2137 35.2772 49.2137C35.0204 49.2137 34.892 49.1096 34.892 48.8933C34.892 48.4608 35.0606 47.9723 35.3976 47.4277C35.7347 46.8751 35.9513 46.4507 36.0637 46.1383C36.168 45.826 36.4729 45.3454 36.9705 44.6887C37.468 44.032 37.7489 43.5034 37.8292 43.103C37.9014 42.7026 38.102 42.2621 38.415 41.7816C38.7279 41.301 38.8804 40.6123 38.8804 39.7313C38.8804 38.8504 38.5353 38.4099 37.8452 38.4099C36.9384 38.4099 36.2242 38.6501 35.7106 39.1227L33.9692 40.6443C33.6241 40.8205 33.2309 41.1088 32.7895 41.5333C32.3482 41.9497 31.979 42.2781 31.6741 42.5184L31.4815 42.9669C31.1364 43.0309 30.4703 43.5595 29.4833 44.5526L29.0981 44.937C28.4721 45.3214 28.1592 45.6338 28.1592 45.874C28.1592 46.2184 26.2653 45.9942 26.49 46.1383C26.7147 46.2745 24.7807 46.723 24.885 46.9392C24.9894 47.1554 24.0424 47.7 24.0825 47.7401C24.2511 47.7801 25.5591 48.4528 25.6875 48.5409C25.7758 48.5409 28.7771 47.0673 28.8975 46.9392C29.0178 46.811 29.4432 46.3305 29.7 46.1383C29.9567 45.9461 31.1123 45.8019 31.3049 45.3374C31.4975 44.8729 31.6339 45.3615 31.9148 45.3615C32.0432 45.3615 32.1074 45.4015 32.1074 45.4896V45.6177C31.5697 46.6749 31.2969 47.5799 31.2969 48.3327V48.589C31.337 48.7171 31.3611 48.8052 31.3611 48.8453C31.3611 48.9494 31.2728 49.1336 31.1043 49.3979C30.9278 49.6541 30.8475 49.8063 30.8475 49.8464L31.0401 51.3039C31.0401 51.6483 31.3531 52.0488 31.979 52.5133C32.605 52.9778 33.0704 53.21 33.3753 53.21L34.4427 52.9537L34.8279 53.0178H35.0204C35.2371 53.0178 35.4458 52.8817 35.6544 52.6014C35.8631 52.3211 36.0717 52.1849 36.2884 52.1849L37.1631 52.249C37.5483 51.8005 37.9736 51.5522 38.431 51.5042C38.5193 51.376 38.6718 51.2719 38.8884 51.1838L40.7984 49.8624C41.4243 49.7583 41.8255 49.6061 42.0021 49.4139C42.3231 49.3738 42.5879 49.1496 42.7805 48.7492C42.9731 48.3487 43.1817 48.1485 43.3984 48.1485C43.4385 48.1485 43.5669 48.1725 43.7836 48.2126L44.7867 47.732C44.9633 47.2115 45.0917 46.9552 45.1719 46.9552C45.2843 46.9552 45.3324 46.9792 45.3324 47.0193L45.7898 47.3396H45.854L46.6645 46.8191C46.8331 46.779 47.0337 46.5708 47.2504 46.2024L47.6356 46.1383C47.6757 46.1383 47.8121 46.0342 48.0368 45.818C48.2615 45.6017 48.438 45.4976 48.5745 45.4976H48.7029L49.2245 45.6258C49.3769 45.6258 49.6016 45.5056 49.9066 45.2573C50.2115 45.0091 50.4041 44.8889 50.4924 44.8889C50.5807 44.8889 50.6208 44.929 50.6208 45.0171C50.6208 45.2093 50.4924 45.6498 50.2356 46.3385L49.9788 46.6909C49.8905 47.1394 49.8263 47.4197 49.7862 47.5318L46.7287 55.6367C46.5763 55.7248 46.4559 55.8049 46.3756 55.893C46.2232 56.5817 46.0948 56.9821 45.9905 57.0863L45.9263 57.2144V57.6308L45.7979 57.8871L45.8621 58.2715V58.656C45.8621 58.7601 45.7738 58.8642 45.6053 58.9443C45.4287 59.0324 45.2522 59.3287 45.0515 59.8333C44.8509 60.3378 44.6663 60.482 44.6021 60.5701L44.7305 61.2828L44.6663 61.443L44.0805 61.2828V61.3469C43.7756 62.0997 43.575 62.5242 43.4626 62.6043L42.6842 63.2209C42.5959 63.309 42.4675 63.3491 42.299 63.3491C41.5206 63.3491 41.1434 63.6855 41.1675 64.3502C41.0792 64.4383 40.9027 64.5023 40.6298 64.5424C40.357 64.5824 40.0922 64.8868 39.8354 65.4474L39.707 65.5114H39.5144L39.2897 65.6075C39.0329 65.9519 38.7841 66.1922 38.5434 66.3203C38.3026 66.4485 38.1341 66.5606 38.0218 66.6407L36.9143 67.6978C36.8742 67.9141 36.7057 68.0823 36.4087 68.2024C36.1118 68.3225 35.9273 68.4266 35.839 68.5067L35.7748 68.6989C35.5581 68.9552 35.3655 69.2435 35.205 69.5559C35.0445 69.8682 34.7717 70.1565 34.3945 70.4128C34.0173 70.6691 33.8247 71.0054 33.8247 71.4139C33.6963 71.566 33.6 71.7022 33.5358 71.8143C33.4716 71.9264 33.3513 71.9905 33.1827 71.9905H32.9902C32.9019 72.0786 32.8618 72.2628 32.8618 72.5431L29.8765 76.9079C29.7 77.1401 29.4592 77.6527 29.1302 78.4295C28.8012 79.2064 28.5684 79.6308 28.416 79.7029C28.2715 79.767 28.087 80.1674 27.8703 80.8882C27.6536 81.609 27.5493 81.9934 27.5493 82.0335V82.6501L27.4851 82.9064C27.2684 83.1627 27.1641 83.3469 27.1641 83.459C27.1641 84.4281 27.2363 85.1729 27.3727 85.7015C27.5172 86.23 28.0709 86.7987 29.058 87.3993C30.037 88 30.7031 88.3604 31.0481 88.4645L32.308 88.3363L32.7253 88.0801C32.8939 87.992 33.1827 87.7437 33.584 87.3192C33.9852 86.9028 34.2661 86.6465 34.4427 86.5584C34.6192 86.4703 34.7476 86.3101 34.8279 86.0699L34.6995 85.4852H35.1569C35.3093 85.4852 35.5019 85.3971 35.7427 85.229C35.9834 85.0608 36.0958 84.9246 36.0958 84.8445L35.9353 84.1958C35.9353 83.9556 36.2162 83.8434 36.7779 83.8434C37.123 83.475 37.2995 83.1627 37.2995 82.9064C37.2995 82.8664 37.2353 82.7142 37.1069 82.4579C37.2594 82.4579 37.5724 82.1536 38.0458 81.5529C38.5193 80.9523 38.8082 80.5438 38.9045 80.3436C39.0008 80.1354 39.1693 79.9432 39.4101 79.743L39.6347 79.1263C39.6347 78.9501 39.7391 78.7179 39.9557 78.4135L41.2879 76.6356C41.5045 76.3152 41.657 75.9789 41.7453 75.6345C42.0663 75.3302 42.2348 75.1059 42.2348 74.9537C42.2348 74.8656 42.2027 74.8256 42.1385 74.8256L41.9459 74.4412V74.249C42.3953 73.9927 42.7083 73.6964 42.8688 73.36C43.0293 73.0236 43.2299 72.7273 43.4706 72.455C43.7114 72.1827 43.8237 72.0065 43.8237 71.9184L43.6793 71.2777C44.0244 70.9574 44.2009 70.7091 44.2009 70.5329V70.2126C44.9151 69.676 45.2682 69.0994 45.2682 68.4987V68.2104C45.2281 68.0822 45.204 67.9942 45.204 67.9541C45.204 67.866 45.2441 67.7619 45.3324 67.6338L45.5892 67.1853C45.846 66.6647 46.0948 66.2883 46.3195 66.04C46.5442 65.7917 46.6726 65.5675 46.6886 65.3593C46.7127 65.1511 46.825 64.8788 47.0417 64.5344C47.6275 64.0619 47.9164 63.4932 47.9164 62.8205C47.9164 62.7164 48.0528 62.5963 48.3337 62.4681C48.3899 62.4441 48.4621 62.4201 48.5263 62.396C48.5424 62.356 48.5584 62.316 48.5745 62.2679C48.6306 62.1398 48.6948 62.0116 48.751 61.8755C48.8072 61.3789 48.9837 60.9064 49.2245 60.474C49.2004 60.482 49.1763 60.482 49.1523 60.49C49.056 60.53 48.9837 60.554 48.9436 60.554C48.8553 60.554 48.8152 60.514 48.8152 60.4259L49.6177 58.7361C49.8344 58.1514 50.0189 57.6068 50.1714 57.0863C50.3239 56.5657 50.5004 56.2213 50.7091 56.0531C50.9177 55.8849 51.014 55.6447 51.014 55.3403L51.3992 54.7557C51.4393 54.131 53.2289 49.6461 53.5579 49.2938C53.6462 48.8453 53.6863 48.597 53.6863 48.5489V48.4208L53.6221 48.1645V47.8121C54.0956 47.5078 54.3363 47.2916 54.3363 47.1634L54.2721 46.4186C54.4406 46.0983 54.5931 45.5056 54.7215 44.6407C55.2592 43.9519 55.532 43.111 55.532 42.1179L55.5962 40.5642C55.6043 40.1718 55.3475 39.7553 54.8258 39.3389ZM41.7453 66.921C41.0311 67.8019 40.678 68.3946 40.678 68.6989C40.5897 68.9552 40.4693 69.2195 40.3249 69.4918C40.1724 69.7641 40.036 70.0444 39.9076 70.3487L38.6477 72.479L38.1983 72.8955C38.1582 72.9596 38.1341 73.2319 38.1341 73.7044C37.765 73.9847 37.4761 74.5853 37.2594 75.5144C37.0026 75.6665 36.8501 75.8187 36.81 75.9628L36.6495 76.4113C36.6094 76.5795 36.1841 77.3083 35.3735 78.5737C34.563 79.8471 34.1618 80.5839 34.1618 80.8001C34.1618 81.0164 34.0173 81.1845 33.7284 81.3207C33.4395 81.4488 33.2309 81.7371 33.0945 82.1936C32.8778 82.2337 32.7253 82.3218 32.6451 82.4499L32.0994 83.459C31.8586 83.9556 31.4012 84.364 30.7111 84.6844L29.7401 85.1729C29.6518 85.1729 29.6117 85.1329 29.6117 85.0448C29.6117 84.6363 29.7481 84.0116 30.029 83.1707L29.9006 83.0426C29.708 82.9144 29.6117 82.7863 29.6117 82.6581C29.6117 82.57 29.6518 82.506 29.7401 82.4659C30.0611 82.3378 30.2938 81.8733 30.4222 81.0804C30.5105 80.9923 30.6068 80.7841 30.7111 80.4477C30.8154 80.1114 30.9599 79.775 31.1284 79.4306C31.8586 78.6538 32.2599 77.6287 32.3241 76.3633L32.942 76.0429C33.2871 75.2901 33.5278 74.8897 33.6562 74.8496C33.7846 74.8096 33.913 74.6814 34.0254 74.4652C34.1457 74.249 34.2902 74.0488 34.4587 73.8646C34.6272 73.6804 34.7155 73.5442 34.7155 73.4641L34.5229 72.6873C34.5229 72.5591 34.5871 72.463 34.7155 72.399C34.9081 72.5031 35.0204 72.5591 35.0365 72.5591H35.1649C35.3575 72.5591 35.5902 72.2948 35.8631 71.7663C36.1359 71.2377 36.3606 70.9254 36.5452 70.8292C36.7297 70.7331 36.9946 70.5009 37.3396 70.1325L37.9576 69.4838C38.431 68.8831 38.7199 68.5387 38.8323 68.4507L40.9027 66.7047C41.2076 66.5526 41.4243 66.4004 41.5527 66.2482C41.6811 66.2482 41.7453 66.4004 41.7453 66.7047V66.921Z" fill="#F9932F"/>
<path d="M57.9636 47.9803V47.7561C57.9636 47.4518 57.9877 47.2195 58.0278 47.0433C57.8994 46.6989 57.8352 46.3866 57.8352 46.1063C57.8352 46.0662 57.9395 45.7619 58.1562 45.2013L58.4451 44.2002C58.5976 43.8158 58.6858 43.6076 58.7019 43.5835C58.5735 43.2392 58.5093 43.0469 58.5093 42.9989C58.5093 42.5023 58.6457 42.0939 58.9266 41.7736C59.2075 41.4532 59.4482 40.9967 59.6408 40.4201L60.2908 38.4499L61.3581 35.8631C61.3822 35.799 61.4785 35.6309 61.6631 35.3425C61.8476 35.0622 62.0001 34.822 62.1125 34.6137C62.2328 34.4135 62.4013 34.1092 62.618 33.7248L62.939 33.6607C63.0273 33.5726 63.0674 33.4845 63.0674 33.4044C63.0674 33.3644 63.0273 33.1882 62.939 32.8839L64.0705 31.0098L64.7607 29.6323C64.9773 29.2639 65.2101 29.0317 65.4749 28.9195C65.9082 28.1187 66.2854 27.6381 66.6064 27.4619C66.7348 27.0535 66.9755 26.613 67.3206 26.1405L67.9385 26.0764C68.0428 25.7721 68.1552 25.5479 68.2595 25.3957L68.3237 24.747C68.3237 24.8751 68.3799 24.8431 68.4842 24.6349C68.5885 24.4346 68.757 24.0502 68.9657 23.4896L69.8404 22.4885L70.0972 22.04C70.2015 21.8879 70.3781 21.5996 70.6188 21.1671C70.9398 21.0389 71.2127 20.7987 71.4293 20.4543L72.1114 19.9017C72.0713 19.6614 72.3281 19.1409 72.8899 18.316C73.259 18.1638 73.588 17.9716 73.893 17.7313L74.3424 17.6032C74.3424 16.8504 74.6152 16.3298 75.1529 16.0495L75.5381 15.7932C75.8831 15.625 76.0757 15.5369 76.1239 15.5369L76.3486 15.4729C76.6054 15.3848 76.9103 15.3447 77.2554 15.3447C78.0498 15.3447 78.7801 15.6411 79.4221 16.2337C80.0641 16.8263 80.3931 17.4991 80.3931 18.2519C80.3931 18.5562 80.2326 18.8686 79.9116 19.1889L79.7832 19.4452C79.4783 20.6305 79.2616 21.2231 79.1332 21.2231C79.0449 21.2231 78.9246 21.2872 78.7801 21.4153C78.74 22.1281 78.6918 22.5286 78.6517 22.6087C78.2665 22.6727 78.0659 23.1613 78.0659 24.0662C78.0258 24.1944 77.8653 24.4186 77.6005 24.731C77.3276 25.0433 77.119 25.4758 76.9665 26.0204C76.814 26.573 76.6535 26.8453 76.485 26.8453H76.1319L76.2282 27.3338C76.2282 27.6381 76.0838 27.9345 75.7949 28.2228C75.506 28.5111 75.3294 28.8234 75.2572 29.1438C75.193 29.4641 74.9362 29.8566 74.4788 30.305L74.1578 30.8256C74.0294 31.0419 73.8528 31.2661 73.6362 31.5064C73.4195 31.7466 73.2349 32.107 73.0825 32.6036L72.2398 34.1572C71.654 35.2144 71.2127 35.719 70.9157 35.6789C70.7231 36.5198 70.5947 37.0003 70.5305 37.1365C70.4663 37.2646 70.3139 37.3848 70.0812 37.4889C69.8404 37.601 69.6639 37.7852 69.5274 38.0575C69.399 38.3298 69.2546 38.522 69.1101 38.6582L68.5243 39.8515C68.1793 40.0036 67.9305 40.2839 67.778 40.6924C67.4329 40.7805 67.2163 41.0688 67.128 41.5653C67.0397 41.6534 66.9354 41.8456 66.807 42.15L65.6755 43.2792C65.0897 43.6876 64.7767 44.1602 64.7366 44.6807C64.6965 45.2093 64.4156 45.4736 63.894 45.4736C63.5248 45.4736 62.9872 45.3134 62.2729 44.9851H62.2087C62.1446 45.2894 61.9921 45.6177 61.7594 45.9862L61.8878 46.8591C61.8878 46.9632 61.7112 47.644 61.3661 48.8933C61.5347 49.2137 61.6229 49.4459 61.6229 49.5741L61.5587 50.2868L61.7192 51.1598C61.8236 51.8726 62.0884 52.225 62.4976 52.225L63.2761 52.3531C63.3162 52.3531 63.589 52.1929 64.0866 51.8646L65.2823 51.2159C65.3224 51.2159 65.3465 51.2399 65.3465 51.2799C65.5631 51.368 65.7317 51.4081 65.8681 51.4081C66.0848 51.4081 66.1891 51.2399 66.1891 50.8875V50.471C66.3175 50.2548 66.478 50.1267 66.6545 50.0866C66.8391 50.0466 67.0076 49.9505 67.1601 49.7983C67.3126 49.6461 67.4329 49.5741 67.5132 49.5741H67.8342C68.1552 49.5741 68.3157 49.1977 68.3157 48.4448C68.404 48.4048 68.5083 48.3167 68.6367 48.1886H69.0219C69.1904 48.1886 69.383 47.9803 69.5916 47.5559C69.8003 47.1394 69.9447 46.8831 70.025 46.795C70.4102 46.755 70.683 46.6909 70.8355 46.6028C71.5256 45.3535 72.0553 44.7288 72.4244 44.7288H72.617C72.9862 44.3844 73.1868 44.0801 73.2189 43.8078C73.251 43.5355 73.3553 43.3593 73.5399 43.2712C73.7244 43.1831 73.893 43.079 74.0454 42.9508C74.1979 42.8227 74.2942 42.7586 74.3343 42.7586C74.6553 42.7586 74.8158 42.8788 74.8158 43.111L74.7195 44.016L74.9442 44.9851C74.9442 45.0732 74.856 45.2413 74.6714 45.4896C74.4868 45.7379 74.3985 46.0102 74.3985 46.3145C74.3985 46.9392 74.2942 47.2756 74.0775 47.3156C73.8609 47.3556 73.6843 47.5078 73.5479 47.7481C73.4035 47.9963 73.1788 48.2206 72.8497 48.4288C72.5287 48.637 72.28 48.9334 72.1034 49.3178L71.5497 49.4459L71.2287 49.6381C70.9719 50.3029 70.691 50.7113 70.4021 50.8635C70.1133 51.0156 69.7521 51.4641 69.3188 52.2169C69.2546 52.2169 69.2225 52.241 69.2225 52.281L68.7009 52.2169C68.5083 52.5613 68.3157 52.7696 68.1151 52.8336C67.9225 52.8977 67.762 53.0258 67.6336 53.202C67.5052 53.3862 67.2724 53.5384 66.9354 53.6665C66.5984 53.7947 66.3897 53.9468 66.3014 54.115C66.2132 54.2912 66.0848 54.3873 65.9162 54.4033C65.7477 54.4274 65.5792 54.5075 65.4348 54.6436C65.2903 54.7797 65.1539 54.8518 65.0496 54.8518C65.0094 54.8518 64.857 54.8278 64.6002 54.7878H64.4718C64.1026 55.044 63.8057 55.1722 63.565 55.1722C63.2841 55.1722 63.0835 55.2122 62.947 55.3003C62.8186 55.2122 62.618 55.1481 62.3452 55.1081C62.0723 55.0681 61.7674 54.9559 61.4223 54.7878C61.0532 54.8759 60.8285 54.9159 60.7402 54.9159C60.3711 54.9159 59.9136 54.5555 59.3519 53.8347C58.7902 53.1139 58.5093 52.4092 58.5093 51.7204C58.5093 51.6964 58.3889 51.5282 58.1401 51.2159C57.8914 50.9035 57.771 50.5672 57.771 50.1987V49.8784L57.8352 49.494V48.8773L57.8994 48.6851C58.2204 48.6451 58.3809 48.597 58.3809 48.557L57.9636 47.9803ZM64.536 39.419L65.2181 39.0346C65.3063 38.6902 65.5872 38.2737 66.0607 37.7932C66.5342 37.3047 66.8712 37.0644 67.0638 37.0644H67.3206C67.3206 36.9123 67.3527 36.7601 67.4169 36.6079C67.4811 36.4558 67.5132 36.2555 67.5132 35.9912C67.5132 35.8631 67.8021 35.5107 68.3879 34.9261L68.6447 34.3414C68.8373 33.7808 69.3268 33.3163 70.1052 32.9559C70.4102 32.3313 70.6349 32.0189 70.7873 32.0189L71.0441 31.9548C71.1324 31.6345 71.3009 31.3382 71.5658 31.0819L71.6941 30.8897V30.3691C71.6941 30.3291 71.8386 30.1449 72.1275 29.8325C72.4164 29.5202 72.6331 29.2319 72.7615 28.9596C72.8899 28.6873 73.0664 28.4791 73.2991 28.3269C73.5238 28.1747 73.6843 27.9104 73.7646 27.518L74.2862 27.4539C74.2862 27.1736 74.3103 26.9894 74.3504 26.9013L74.4146 26.581C74.5189 26.3247 74.8961 25.644 75.5461 24.5468L76.0677 23.3535C76.0677 23.2253 76.156 23.0651 76.3405 22.889C76.5251 22.7048 76.6134 22.4405 76.6134 22.0961L76.8702 21.0309C76.8702 20.5344 76.7819 20.2861 76.6134 20.2861C76.3967 20.4383 76.1961 20.5424 76.0115 20.6065C75.827 20.6705 75.6504 21.055 75.4739 21.7677C74.8239 21.9199 74.4547 22.2242 74.3584 22.6887C74.2621 23.1532 73.9973 23.5457 73.5639 23.866L73.3392 24.2504C73.2991 24.4907 73.0905 24.731 72.7213 24.9953C72.3522 25.2515 72.0071 25.692 71.6861 26.3167C70.6028 27.8063 70.017 28.5992 69.9046 28.7113L69.5836 29.0957L69.1021 29.0317C69.1904 29.376 69.2305 29.5682 69.2305 29.6163C69.2305 29.7444 69.1663 29.8726 69.0379 29.9847C68.9095 30.1048 68.8132 30.249 68.749 30.4172C68.6848 30.5934 68.5564 30.7856 68.3638 31.0178C68.1712 31.2501 67.9947 31.6105 67.8262 32.115C67.6576 32.6196 67.5212 32.9159 67.3928 33.004L66.9434 32.9399C66.6626 33.1161 66.5261 33.2843 66.5261 33.4605L66.6064 33.925C66.6064 34.0131 66.5502 34.1172 66.4298 34.2293C66.3095 34.3495 66.1971 34.5817 66.0928 34.9261C65.9885 35.2705 65.7156 35.791 65.2823 36.4958C64.8489 37.1926 64.5119 37.9374 64.2631 38.7222C64.0143 39.5071 63.7736 40.0116 63.5329 40.2279C63.573 40.2679 63.6372 40.2919 63.7255 40.2919C64.0063 40.2919 64.2792 40.0036 64.536 39.419Z" fill="#F9932F"/>
<path d="M73.7246 52.5373L73.4678 50.8875C73.4678 50.7594 73.532 50.5511 73.6604 50.2708C73.7888 50.2708 73.9011 50.2308 73.9814 50.1427L73.7888 49.558C73.7888 48.8052 73.9974 48.1565 74.4227 47.6039C74.84 47.0513 75.0727 46.6829 75.1209 46.4907C75.161 46.2985 75.474 45.6658 76.0438 44.6006C76.6135 43.5355 77.0469 42.8547 77.3277 42.5504L77.5203 42.1339L77.7771 42.0699C78.2747 41.269 78.9728 40.5482 79.8877 39.9075C80.1926 39.435 80.5537 39.0426 80.9871 38.7463C81.4204 38.4419 81.7093 38.2257 81.8618 38.0975C82.0143 37.9694 82.239 37.8813 82.5439 37.8413L82.6723 37.7772C83.2982 37.1525 83.8359 36.8402 84.2933 36.8402C84.4458 36.688 84.7427 36.5198 85.2001 36.3276H85.5532C85.6816 36.3276 85.81 36.2876 85.9384 36.1995C86.0668 36.1114 86.1952 36.0713 86.3236 36.0713C86.4119 36.0713 86.6366 36.1594 87.0057 36.3276C87.3508 35.9832 87.6317 35.807 87.8484 35.807C88.2977 35.807 88.7632 35.9752 89.2286 36.3276C89.6941 36.672 89.991 37.0884 90.1194 37.585C90.2478 38.0815 90.3601 38.3698 90.4404 38.4579C90.5206 38.546 90.6169 38.6501 90.6972 38.7783C90.8657 38.7783 91.0984 38.3778 91.3793 37.585L91.7645 37.0724C92.3503 36.3196 92.7516 35.4386 92.9682 34.4215C93.0083 34.3815 93.0725 34.1973 93.1608 33.8849C93.2491 33.5726 93.4738 33.044 93.8429 32.2832C94.4689 31.3782 94.9183 30.4492 95.1751 29.5042L95.5683 28.9195C95.8251 28.7513 95.9695 28.5591 95.9936 28.3509C96.0177 28.1507 96.0819 27.9585 96.1862 27.7823C96.2905 27.6141 96.4189 27.3979 96.5553 27.1496C96.6918 26.9013 96.8121 26.7331 96.8924 26.6451C96.9807 26.557 97.1091 26.2606 97.2776 25.7561C97.4461 25.2515 97.6628 24.9632 97.9115 24.8991C98.1603 24.8351 98.4171 24.7149 98.6739 24.5468L98.7381 24.3225L98.6097 23.866C98.6097 23.6097 98.8986 23.1532 99.4684 22.5125C100.038 21.8638 100.447 21.3353 100.696 20.9108C100.945 20.4863 101.362 19.8456 101.956 18.9727C102.55 18.0997 102.975 17.5712 103.232 17.3709L103.978 16.5941C104.323 16.0975 104.813 15.8493 105.439 15.8493C105.912 15.8493 106.41 16.1056 106.932 16.6101C107.453 17.1147 107.71 17.6192 107.71 18.1157C107.71 18.2919 107.59 18.6844 107.357 19.309L107.293 19.6935C107.293 20.0378 107.172 20.4463 106.94 20.9188C106.699 21.3913 106.562 21.7597 106.522 22.016L104.709 26.4448C104.492 26.5329 104.364 26.597 104.323 26.637C103.762 27.8624 103.32 28.5351 102.999 28.6392V29.2879C102.999 29.5282 102.847 29.6964 102.55 29.8085L102.422 29.8726C102.229 30.6895 101.98 31.2821 101.675 31.6505C101.37 32.0189 101.154 32.3873 101.009 32.7637C100.865 33.1401 100.648 33.3484 100.343 33.3964C100.038 33.4365 99.8937 33.8609 99.8937 34.6538C99.8054 35.0863 99.5887 35.3025 99.2437 35.3025C98.9227 35.3025 98.714 35.5828 98.6258 36.1434C98.5375 36.704 98.1202 37.0084 97.3659 37.0484C97.1492 37.1765 97.0208 37.3287 96.9807 37.4969L97.2375 38.3058C97.2375 38.4339 96.8362 38.9385 96.0418 39.8274L95.785 40.6683C95.3757 40.8205 95.0386 41.9257 94.7818 43.992L94.3966 46.2184L94.4608 47.0914L94.3325 47.5398L94.7176 48.8613L94.6534 49.6061C94.6534 49.9505 94.7818 50.1267 95.0386 50.1267C95.167 50.1267 95.4559 49.9345 95.9134 49.542L96.3627 49.3498C97.719 48.6611 98.5616 47.9963 98.8826 47.3476C98.9708 47.2595 99.1233 47.1794 99.348 47.0914C99.5727 47.0033 99.7412 46.8911 99.8455 46.739C99.9499 46.5868 100.038 46.4827 100.102 46.4186C101.418 45.5537 102.269 44.8009 102.654 44.1602C103.039 43.5114 103.441 43.127 103.85 42.9989L104.107 42.7426C104.364 42.5264 104.58 42.4223 104.749 42.4223C105.118 42.4223 105.294 42.5264 105.294 42.7426L105.038 43.6476C105.254 44.2322 105.359 44.5606 105.359 44.6487C105.359 45.4015 105.022 45.866 104.356 46.0342C104.075 46.3145 103.85 46.6349 103.689 47.0033C103.529 47.3717 103.176 47.5959 102.638 47.684C102.269 48.2046 101.94 48.5409 101.635 48.7011C101.33 48.8613 101.186 49.0295 101.186 49.2057V49.494C101.009 49.7503 100.865 49.9264 100.736 50.0145L100.118 49.8864C100.03 50.1427 99.8375 50.5031 99.5326 50.9516C99.4282 50.8635 99.3239 50.8234 99.2437 50.8234C98.9387 50.8234 98.69 51.0076 98.4974 51.376C98.3048 51.7444 98.1603 51.9286 98.0801 51.9286H97.3338C97.2294 51.9927 97.0529 52.1369 96.8121 52.3451C96.5714 52.5533 96.1782 52.6654 95.6164 52.6654L94.6214 52.8576C93.6744 52.8576 92.7997 52.5533 91.9972 51.9366C91.1947 51.32 90.7694 50.7674 90.7213 50.2548C90.6651 49.7503 90.4885 49.1416 90.1836 48.4288L90.1194 47.1074C89.8786 45.7299 89.6138 45.0411 89.3089 45.0411L89.2447 45.4576L88.9879 45.5857C88.8595 46.2504 88.6428 46.5868 88.3379 46.5868C88.2095 46.6509 88.065 46.763 87.9206 46.9072L87.728 47.0353C87.6397 47.0753 87.5193 47.2595 87.3588 47.5879C87.1983 47.9082 86.7489 48.3647 86.0107 48.9414C85.7057 49.7422 85.481 50.1347 85.3285 50.1347L84.9433 49.8784H84.8791C84.7026 49.8784 84.5662 50.1347 84.4619 50.6392C84.3575 51.1438 84.1409 51.4001 83.8118 51.4001C83.7236 51.4001 83.6433 51.5442 83.5711 51.8325C83.4989 52.1208 83.3063 52.305 83.0013 52.3851C82.6964 52.4572 82.4316 52.7535 82.1908 53.2741C81.9501 53.7947 81.7896 54.0509 81.7013 54.0509C81.6612 54.0509 81.597 54.0269 81.5087 53.9869L80.955 54.115C80.8507 54.2672 80.6982 54.5155 80.4976 54.8598C80.305 54.9239 80.1284 55.012 79.9759 55.1161C79.3099 55.7648 78.4191 56.0852 77.3197 56.0852C76.5413 56.0852 75.9234 55.917 75.474 55.5806C75.0166 55.2442 74.7518 54.9639 74.6635 54.7237C74.5752 54.4834 74.4147 54.1871 74.174 53.8347C73.9412 53.4903 73.7888 53.0499 73.7246 52.5373ZM86.6526 45.2013L86.8773 44.7848C87.2465 44.6567 87.4792 44.3363 87.5916 43.8158C87.7601 43.6876 88.2095 43.127 88.9157 42.1339C89.6299 41.1409 89.983 40.5963 89.983 40.4841C89.7663 40.2679 89.5175 40.1638 89.2367 40.1638C89.1965 40.1638 89.0601 40.2038 88.8515 40.2919C88.6348 40.38 88.4101 40.4441 88.1854 40.4841C87.9607 40.5242 87.7119 40.6123 87.4551 40.7404L86.6446 40.6123C86.4039 40.6123 85.8742 40.9246 85.0557 41.5493L84.3094 41.4212C84.181 41.4212 83.9643 41.7015 83.6594 42.2621L82.0062 43.5835H81.8136C81.5087 43.5835 81.3081 43.8558 81.1957 44.3924C80.8266 44.8649 80.4815 45.1933 80.1605 45.3775C79.8395 45.5617 79.6068 45.826 79.4784 46.1704V46.5868C78.8765 47.2515 78.5716 47.7641 78.5716 48.1085C78.1222 48.5409 77.8173 49.0054 77.6808 49.494C77.5444 49.9905 77.3759 50.407 77.1753 50.7513C77.2635 51.0557 77.3277 51.4241 77.3679 51.8646C77.408 52.305 77.6247 52.5293 78.0179 52.5293C78.6438 52.5293 79.334 52.1529 80.0883 51.4001C80.1284 51.36 80.313 51.2399 80.642 51.0477C80.963 50.8555 81.4124 50.471 81.9902 49.9024C82.56 49.3338 82.881 49.0375 82.9452 49.0135C83.1618 48.7972 83.2902 48.6931 83.3303 48.6931L83.5871 48.4368C83.5871 48.3487 83.6754 48.2526 83.86 48.1485C84.0446 48.0444 84.2853 47.8201 84.5903 47.4838C84.8952 47.1474 85.1279 46.9472 85.2884 46.8831C85.4489 46.8191 85.5613 46.731 85.6255 46.6108C85.6897 46.4907 85.802 46.3786 85.9465 46.2745C86.0989 46.1703 86.1711 46.0502 86.1711 45.9221L86.2353 45.5377L86.6526 45.2013ZM97.8875 32.091L97.5665 33.028C97.8473 32.988 98.0961 32.6916 98.3128 32.1551C98.9628 31.226 99.4042 30.6574 99.6369 30.4412C99.9178 30.4412 100.126 30.265 100.271 29.9046C100.407 29.5522 100.664 29.1998 101.033 28.8555C101.033 28.7033 101.194 28.415 101.515 27.9825C101.836 27.55 102.052 27.2457 102.149 27.0615C102.245 26.8773 102.446 26.637 102.751 26.3327C103.055 26.0284 103.336 25.5158 103.609 24.779C103.882 24.0502 104.115 23.6017 104.307 23.4576C104.5 23.3054 104.596 23.0091 104.596 22.5526C104.596 21.9279 104.556 21.6156 104.468 21.6156C104.275 21.6156 104.131 21.7437 104.035 21.984C103.938 22.2322 103.73 22.5526 103.401 22.937L102.301 24.779C101.868 25.5078 101.587 26.0924 101.442 26.5249C101.298 26.9574 101.138 27.2057 100.961 27.2857C100.776 27.3578 100.56 27.5741 100.295 27.9184L99.8455 28.3749C99.7332 28.6312 99.6529 28.9436 99.5887 29.312L99.2998 29.5682V30.1849C99.2998 30.4652 99.1394 30.7215 98.8184 30.9457C98.4974 31.17 98.3369 31.3141 98.3369 31.3782L97.8875 32.091Z" fill="#F9932F"/>
<path d="M130.773 49.3018H130.902L131.223 49.4299C131.263 49.4299 131.311 49.4059 131.351 49.3659C131.351 48.9975 131.528 48.6851 131.873 48.4288C131.977 48.0204 132.226 47.708 132.603 47.4918C132.98 47.2756 133.582 46.9232 134.4 46.4267L135.211 45.7139L135.604 45.5217L135.861 45.2013C136.102 44.921 136.326 44.7849 136.543 44.7849C136.864 44.7849 137.033 44.905 137.033 45.1372L136.744 45.786L136.872 46.8511C136.872 47.2355 136.736 47.5799 136.471 47.8842C136.198 48.1886 135.789 48.6291 135.227 49.2057L133.574 50.9516L132.699 51.4081C132.483 51.5362 132.29 51.6884 132.113 51.8566L130.845 52.9217C130.845 53.2261 130.749 53.4503 130.557 53.6025H130.035L129.778 53.7306C129.626 54.1391 129.184 54.5395 128.446 54.9239L127.997 55.2443C127.844 55.3724 127.708 55.4365 127.571 55.4365L126.665 55.3083L126.047 55.4365C125.87 55.4365 125.637 55.3484 125.348 55.1802C125.06 55.012 124.763 54.8759 124.458 54.7798C124.153 54.6837 123.768 54.2832 123.31 53.5865C122.845 52.8897 122.588 52.4252 122.548 52.217C122.548 52.1289 122.5 51.9847 122.403 51.7845C122.307 51.5843 122.259 51.4561 122.259 51.4161C122.259 51.376 122.355 51.1598 122.548 50.7674V50.6953C122.548 50.6312 122.492 50.4791 122.371 50.2468C122.251 50.0066 122.195 49.7182 122.195 49.3739C122.195 49.1817 122.13 48.9334 122.002 48.6291C122.171 48.4529 122.259 48.3247 122.259 48.2446C122.259 48.1645 122.227 48.0364 122.163 47.8762C122.098 47.7161 122.066 47.5879 122.066 47.5078L122.259 45.9221L122.13 45.1132L122.195 44.3364C122.195 43.8879 122.002 43.6556 121.617 43.6556C121.448 43.6556 121.232 43.7758 120.975 44.008L120.75 44.0721C120.172 44.3524 119.763 44.5846 119.522 44.7688C119.282 44.953 119.041 45.0411 118.784 45.0411C118.656 45.1693 118.407 45.2894 118.046 45.3935L117.789 45.5857C117.701 45.6738 117.532 45.802 117.275 45.9702C117.275 46.0342 116.874 46.3946 116.064 47.0513C115.261 47.708 114.531 48.3247 113.889 48.9094C113.247 49.494 112.773 49.8063 112.485 49.8624C112.196 49.9185 112.051 50.1908 112.051 50.6873C112.051 50.7754 111.859 50.9436 111.473 51.2079C111.433 51.2079 111.209 51.4481 110.799 51.9206C110.454 51.6644 110.262 51.5362 110.222 51.5362C109.941 51.5362 109.732 51.8886 109.604 52.6014C109.475 52.8817 109.13 53.0499 108.568 53.122C108.528 53.146 108.448 53.3062 108.344 53.6025L108.215 53.7306H107.894C107.854 53.7306 107.702 53.8508 107.437 54.099C107.18 54.3473 106.947 54.4995 106.755 54.5635C106.474 55.1482 106.233 55.4365 106.041 55.4365C105.952 55.4365 105.832 55.3964 105.671 55.3083C105.511 55.2202 105.31 55.1482 105.07 55.0841C104.829 55.02 104.564 54.7557 104.275 54.2912C103.986 53.8267 103.842 53.4343 103.842 53.1139C103.842 50.7193 104.307 49.4219 105.23 49.2057L105.294 49.0775V48.8213C105.294 48.541 105.415 48.3407 105.663 48.2206C105.912 48.1005 106.169 47.8682 106.426 47.5078C106.683 47.1554 106.859 46.9552 106.947 46.9072H107.365C107.453 46.9072 107.493 46.6829 107.493 46.2264C107.493 46.0983 107.549 45.9782 107.654 45.874C107.758 45.7699 107.822 45.6098 107.846 45.4095C107.87 45.2013 108.023 44.873 108.312 44.4084C108.601 43.9439 108.745 43.6716 108.745 43.5835L108.681 43.4554C108.143 43.9519 107.75 44.2242 107.517 44.2643C107.276 44.3043 106.955 44.6167 106.546 45.2013L106.025 45.1052C105.118 45.7699 104.556 46.1463 104.339 46.2344C104.123 46.3225 103.882 46.5708 103.625 46.9793C103.625 47.1074 103.553 47.1955 103.4 47.2355C103.248 47.2756 102.967 47.4518 102.558 47.7561H102.365C101.828 47.7561 101.555 47.3717 101.555 46.5948L102.237 44.7528C102.429 44.1682 102.887 43.6797 103.609 43.2872C104.331 42.8868 104.941 42.5104 105.439 42.142C105.936 41.7736 106.434 41.5814 106.923 41.5573L107.148 41.237C107.878 40.9567 108.376 40.5162 108.633 39.9155C108.889 39.3149 109.251 39.0106 109.7 39.0106C110.888 39.0106 111.794 39.443 112.42 40.316C113.046 41.1889 113.359 41.8857 113.359 42.3983L113.423 43.2712C113.423 43.5755 113.359 43.992 113.231 44.5286C112.974 44.913 112.846 45.2093 112.846 45.4015C112.846 45.5777 112.95 45.6578 113.167 45.6578C113.295 45.6578 113.472 45.5697 113.68 45.3855C113.897 45.2013 114.138 45.0331 114.411 44.881C114.683 44.7288 114.836 44.6007 114.876 44.4965C115.093 43.976 115.47 43.6236 116.007 43.4314C116.545 43.2392 116.882 43.079 117.011 42.9428L117.332 42.6866L117.588 42.198C118.166 41.9418 118.559 41.7015 118.752 41.4853C118.945 41.269 119.201 41.1329 119.53 41.0688C119.851 41.0047 120.221 40.8125 120.63 40.4842L121.111 40.356L121.561 40.0997C121.601 40.0597 121.729 40.0036 121.946 39.9396C122.163 39.8755 122.484 39.7634 122.901 39.6032C123.318 39.443 123.607 39.3629 123.76 39.3629C124.859 39.3629 125.726 39.8034 126.36 40.6844C126.994 41.5653 127.315 42.2781 127.315 42.8147L127.25 43.3993L127.379 44.2723V44.4004L127.122 46.1784L127.186 46.7951C127.186 47.8042 126.969 48.5089 126.536 48.8933C126.432 48.9334 126.376 49.0455 126.376 49.2137V49.502L127.026 50.8555C127.218 51.328 127.371 51.5683 127.483 51.5683L128.518 51.2799C128.823 51.1918 129.072 50.9676 129.265 50.5992C129.441 50.5111 129.738 50.2548 130.171 49.8224C130.284 49.478 130.492 49.3018 130.773 49.3018Z" fill="#F9932F"/>
<path d="M137.883 42.4863L138.566 41.9337C139.087 41.8937 139.36 41.6214 139.408 41.1248C139.448 40.6283 139.809 40.1958 140.476 39.8354L140.861 39.2828C141.182 38.9625 142.064 38.538 143.509 38.0255C143.878 37.8092 144.127 37.617 144.255 37.4408C144.295 37.4008 144.343 37.3768 144.384 37.3768L144.905 37.5049C145.186 37.5049 145.547 37.4328 145.989 37.2807C146.43 37.1285 146.855 37.0564 147.265 37.0564L148.621 36.9923C148.709 36.9923 148.886 37.0564 149.158 37.1846C149.431 37.3127 149.76 37.3768 150.145 37.3768C150.619 37.3768 151.06 37.593 151.454 38.0255C151.847 38.4579 152.055 38.8584 152.055 39.2188C152.055 39.8835 151.71 40.5642 151.02 41.253C150.33 41.9417 149.784 42.3262 149.375 42.4143C149.006 42.7827 148.725 43.0149 148.532 43.111C148.34 43.2071 148.139 43.3593 147.931 43.5595C147.722 43.7677 147.561 43.8638 147.433 43.8638C147.345 43.8638 147.281 43.8398 147.24 43.7837C147.2 43.7277 147.136 43.7037 147.048 43.7037C146.703 43.7037 146.326 44.1201 145.916 44.961L145.339 44.897C144.969 45.1372 144.737 45.3935 144.624 45.6738C144.512 45.9541 144.287 46.0903 143.942 46.0903C143.148 46.8911 142.61 47.2836 142.329 47.2836C142.289 47.2836 142.137 47.2435 141.88 47.1554C141.711 47.3717 141.623 47.5959 141.623 47.8362C141.623 48.0924 141.447 48.2446 141.109 48.2927L140.692 48.6771L140.371 48.613L139.721 49.2938C139.4 49.2938 139.063 49.3979 138.718 49.6141C138.678 49.8704 138.614 50.1987 138.525 50.5992C138.437 50.9996 138.397 51.2159 138.397 51.2639C138.397 51.8886 138.967 52.2009 140.114 52.2009L141.671 51.9767C142.08 51.9767 142.466 51.8726 142.819 51.6563C143.172 51.4401 143.557 51.336 143.966 51.336C144.095 51.336 144.287 51.2959 144.552 51.2078L144.873 51.336C145.026 51.0156 145.306 50.7193 145.716 50.463C146.125 50.2068 146.446 50.0786 146.687 50.0786L147.008 49.8864C147.096 49.6301 147.224 49.4539 147.393 49.3738L147.65 49.1496C147.818 48.9814 147.987 48.8933 148.131 48.8933H148.581L148.709 48.8293C148.966 48.2686 149.327 47.9403 149.792 47.8442C150.258 47.7481 150.547 47.5879 150.667 47.3797C150.787 47.1634 150.996 47.0353 151.301 46.9953C151.606 46.9552 151.855 46.803 152.063 46.5628C152.272 46.3145 152.521 46.0823 152.826 45.866C153.131 45.6498 153.339 45.4896 153.46 45.3855C153.58 45.2814 153.684 45.2253 153.765 45.2253C153.893 45.2253 153.957 45.3214 153.957 45.5136C153.957 45.7058 153.997 45.8019 154.086 45.8019C154.174 45.8019 154.214 45.7619 154.214 45.6738C154.214 45.5857 154.19 45.4816 154.15 45.3535V45.1292C154.15 44.8089 154.318 44.5926 154.672 44.4805L156.124 43.5435C156.164 43.095 156.293 42.8307 156.493 42.7506C156.702 42.6785 156.854 42.5904 156.959 42.4943C157.063 42.3982 157.183 42.3502 157.312 42.3502C157.593 42.3502 157.729 42.5104 157.729 42.8387L157.569 43.6796L157.729 44.5526C157.729 44.6807 157.625 44.8569 157.424 45.0892C157.215 45.3134 157.063 45.6578 156.959 46.1223C156.854 46.5868 156.71 46.8351 156.541 46.8831H156.349C155.964 47.2916 155.651 47.5318 155.426 47.6119C155.201 47.684 155.025 47.8202 154.888 48.0124L153.789 49.2697C153.572 49.486 153.388 49.6782 153.235 49.8544C153.083 50.0306 152.962 50.1106 152.882 50.1106L152.625 49.8544C152.625 49.8143 152.585 49.7903 152.497 49.7903C152.28 49.7903 152.144 49.9184 152.096 50.1747C152.039 50.431 151.927 50.6552 151.758 50.8555C151.108 51.1598 150.691 51.4401 150.499 51.6964L150.306 51.7604H149.72C149.439 51.7604 149.247 51.9687 149.134 52.3931C149.022 52.8176 148.717 53.0579 148.211 53.1219C147.706 53.186 147.345 53.3141 147.128 53.5064C147.088 53.5464 146.984 53.5944 146.839 53.6345C146.687 53.6745 146.39 53.8507 145.932 54.1551L143.212 55.1241C142.995 55.2362 142.859 55.2843 142.787 55.2843L141.88 55.4124C141.751 55.4124 141.623 55.3243 141.495 55.1562C141.366 54.988 141.278 54.8999 141.238 54.8999L140.652 55.0921C140.219 55.2202 139.809 55.2843 139.424 55.2843C139.208 55.2843 138.967 55.2122 138.71 55.06C138.453 54.9079 138.245 54.8038 138.092 54.7397C137.466 54.7397 137.025 54.2512 136.768 53.2821L136.383 53.3462C136.295 53.3462 136.006 52.5853 135.508 51.0557C135.38 50.8875 135.171 50.7594 134.89 50.6873C134.609 50.6152 134.473 50.399 134.473 50.0546C134.473 49.0855 134.682 48.4368 135.107 48.1005C135.532 47.7641 135.757 47.5158 135.805 47.3396L136.254 45.6578C136.343 45.5937 136.447 45.3775 136.575 45.0091L137.322 43.6556C137.386 43.4714 137.579 43.095 137.883 42.4863ZM144.729 40.5482L144.343 40.7404C144.255 40.7805 144.006 40.9727 143.581 41.3091C143.156 41.6454 142.747 41.9097 142.353 42.1179C141.952 42.3262 141.543 42.8547 141.126 43.7197C140.708 44.5846 140.492 45.0732 140.492 45.2093C140.492 45.3455 140.556 45.4015 140.684 45.4015L141.784 44.921C142.193 44.7288 142.578 44.4805 142.931 44.1762C143.284 43.8718 143.798 43.5115 144.472 43.079L144.729 42.8227C144.769 42.7346 144.969 42.5824 145.331 42.3582C145.684 42.1339 145.948 41.9097 146.125 41.6935L146.446 41.5653C146.815 40.9807 147.184 40.6283 147.561 40.5002C147.939 40.372 148.131 40.2439 148.131 40.1157C148.131 39.8595 147.923 39.7313 147.513 39.7313C147.337 39.7313 147.08 39.8434 146.735 40.0517H145.989C145.9 40.0517 145.668 40.1798 145.274 40.4361L144.729 40.5482Z" fill="#F9932F"/>
<path d="M77.3197 63.8617V63.0848C77.3197 61.9396 77.1271 61.1867 76.7339 60.8103C76.3487 60.4419 76.1401 60.0895 76.116 59.7692L75.9876 59.7211C75.5141 59.609 75.2734 59.4889 75.2734 59.3527C75.2734 59.2166 75.2975 59.0884 75.3376 58.9603L74.9203 58.3356C74.5351 58.1274 74.2703 57.8951 74.1419 57.6549C74.0376 57.2144 73.7005 57.0302 73.1388 57.1023L72.7536 57.1503L72.1999 57.0222C71.8147 56.5737 71.1887 56.3575 70.322 56.3815C69.4554 56.4055 68.7171 56.3655 68.1072 56.2694C67.4893 56.1733 66.8713 56.1653 66.2454 56.2373L65.5954 56.4456C65.4429 56.3334 65.3065 56.2854 65.1781 56.3014L62.9472 56.7018L61.9441 56.7579C61.5749 56.806 61.1897 56.9181 60.7805 57.0943C60.3712 57.2705 60.0021 57.3826 59.6811 57.4226C59.6409 57.4306 59.3761 57.3506 58.9026 57.1984L58.7742 57.3425C58.6218 57.5348 58.4854 57.6389 58.357 57.6549L57.5785 57.5588L57.5143 57.5668C57.2335 57.5988 56.5835 58.0153 55.5723 58.8081C55.5322 58.8162 55.476 58.7361 55.4118 58.5839C55.3476 58.4317 55.2674 58.3597 55.1871 58.3677L54.1198 58.7281C53.5982 58.7921 53.205 58.9042 52.9241 59.0644L51.8889 59.5129C51.2228 59.6571 50.6611 59.8172 50.2037 59.9774L45.4449 61.8835C45.3005 61.9716 45.148 62.0437 44.9955 62.1077C44.7147 63.0848 44.3295 64.0058 43.864 64.8948C44.3295 64.6305 44.7066 64.3982 44.9955 64.198L45.5172 64.2621C46.0548 64.0218 46.4641 63.8697 46.745 63.7896C47.0258 63.7095 47.2907 63.5974 47.5394 63.4532C47.7882 63.301 48.0771 63.1809 48.3981 63.0768C48.7191 62.9727 49.1283 62.8045 49.6259 62.5722L49.8827 62.6043L51.4395 62.0917C52.6673 61.7473 53.3254 61.4831 53.4136 61.2989L53.9994 61.451C54.1278 61.3709 54.3365 61.2028 54.6174 60.9545C54.7458 61.2188 54.8581 61.3469 54.9384 61.3309C55.0668 61.3149 55.2112 61.2188 55.3557 61.0346C55.5081 60.8584 55.7007 60.7543 55.9415 60.7222L56.1341 60.6982C56.5193 60.7783 57.073 60.7783 57.7872 60.6902L57.9798 60.6662C58.1724 60.6021 58.4212 60.53 58.7261 60.4419L59.6971 60.1937L59.7613 60.1856C60.0823 60.2737 60.2909 60.3138 60.3792 60.3058C60.4835 60.2898 60.7243 60.1376 61.0934 59.8333L62.0965 59.9053L63.7497 59.8333L64.496 59.609L64.6886 59.585C64.7769 59.577 64.8812 59.609 65.0096 59.6731L65.459 59.8092C65.8682 59.7612 66.1411 59.7452 66.2695 59.7772C66.8713 60.1136 67.2485 60.2737 67.401 60.2497L67.4652 60.2417L67.9146 59.9934C68.1312 59.9694 68.2837 60.0575 68.38 60.2577C68.4763 60.4579 68.5485 60.5621 68.5887 60.554L69.6239 60.2978V60.4259L69.6881 60.7382C69.6881 60.8424 69.7202 60.9144 69.7844 60.9545C70.5146 61.3789 71.0924 61.9716 71.5017 62.7164C71.5418 62.9727 71.6221 63.2129 71.7264 63.4452C71.8307 63.6775 71.8869 64.214 71.8869 65.055L71.7585 66.7208L71.8869 67.6418C71.8869 67.7299 71.7344 67.9381 71.4375 68.2825L71.7585 68.6269C71.7585 68.6669 71.6461 68.779 71.4215 68.9632C71.1968 69.1394 70.9721 69.4037 70.7554 69.7561V69.8842C70.7554 69.9243 70.7795 70.0524 70.8196 70.2606L70.1054 71.1576C70.1455 71.2377 70.2097 71.2938 70.298 71.3258C69.8887 71.5901 69.6801 71.7422 69.6801 71.7903L69.2949 72.391L68.709 72.8475C68.1232 73.5682 67.7461 73.9687 67.5775 74.0488L65.6034 75.162C65.2824 75.2421 64.9855 75.4743 64.7287 75.8507C64.4719 76.2271 64.1349 76.4434 63.7256 76.4914C63.6855 76.4994 63.5089 76.4754 63.204 76.4274C62.3212 76.988 61.6311 77.3003 61.1336 77.3564C60.9169 77.3804 60.6521 77.4925 60.3391 77.6767C60.0261 77.8609 59.7693 77.9811 59.5767 78.0291C59.3841 78.0772 59.1594 78.1653 58.9107 78.3014C58.6619 78.4376 58.2205 78.5577 57.5866 78.6618C56.9526 78.7579 56.4791 78.9261 56.1822 79.1583L55.5643 79.2945L54.3044 79.3185C54.176 79.3345 54.0476 79.4547 53.9192 79.6869L53.7908 79.767C53.3334 79.6068 53.0686 79.5347 52.9803 79.5428L52.7877 79.5668C52.5309 79.775 52.3142 79.8791 52.1377 79.9031C51.9611 79.9272 51.7846 79.9112 51.6 79.8711C51.4154 79.8311 51.263 79.8151 51.1346 79.8311L50.0673 80.0954C49.8907 80.1194 49.8105 80.0633 49.8105 79.9352V79.8711C49.9148 79.4467 50.0031 78.9421 50.0673 78.3495C50.6531 77.893 51.0623 77.2523 51.2951 76.4193C51.5358 75.5944 51.8087 74.9538 52.1216 74.5053C52.4346 74.0568 52.6593 73.5923 52.7877 73.1198C52.9161 72.6392 53.2531 72.0546 53.7908 71.3658C54.3525 70.9334 54.6816 70.573 54.7779 70.2927C54.8742 70.0124 54.9223 69.6119 54.9223 69.0994C54.9223 68.6909 54.6495 68.0262 54.1118 67.0972L53.9834 66.921C53.9433 66.3203 53.7747 65.9199 53.5019 65.7197L52.4667 64.9108L51.9451 65.0389C51.905 65.0469 51.8568 65.0309 51.8006 64.9909C51.7445 64.9508 51.6562 64.9428 51.5278 64.9589C51.271 64.9909 50.942 65.3993 50.5407 66.1762C50.1395 66.961 49.9389 67.5216 49.9389 67.866L50.0031 68.6349C49.6981 69.2115 49.5296 69.6119 49.4814 69.8282L47.7641 73.0717C47.2666 73.9527 47.0178 74.4973 47.0178 74.7135V75.0338C46.6968 75.0499 46.448 75.3702 46.2715 75.9949C46.0949 76.6196 45.9906 76.9319 45.9505 76.9399L45.6937 77.2923C45.6536 77.4285 45.5332 77.6527 45.3406 77.965C45.148 78.2774 45.0517 78.5257 45.0517 78.6938C45.0517 78.822 45.156 78.9741 45.3727 79.1343V79.3265L44.8912 79.0943C44.7789 79.1103 44.6023 79.3025 44.3535 79.6789C44.1048 80.0553 43.9844 80.3516 43.9844 80.5679C43.9844 80.656 44.0165 80.7601 44.0807 80.8802C44.1449 81.0003 44.177 81.1045 44.177 81.1926C44.177 81.2326 44.0727 81.2807 43.856 81.3287C43.6393 81.3768 43.5029 81.4729 43.4387 81.609L43.1819 82.1936C42.6603 82.6662 42.4035 83.3309 42.4035 84.1958C42.2751 84.2359 42.0986 84.5162 41.8819 85.0368L41.5609 85.8216C41.5368 85.9978 41.3362 86.3982 40.943 87.0309L41.0072 87.6716L40.7504 87.992C40.5979 88.056 40.5257 88.1682 40.5257 88.3444V88.4725C40.7664 89.0251 40.8788 89.3214 40.8788 89.3615C40.8788 89.4896 40.8386 89.5857 40.7504 89.6338L40.3973 89.5457C39.8596 89.9541 39.5787 90.1864 39.5547 90.2264L37.4201 94.3349C36.5373 96.1208 36.0959 97.4343 36.0959 98.2752C36.0959 99.004 36.3206 99.5326 36.7781 99.8369L36.9707 100.069C37.3559 101.294 38.0861 101.839 39.1454 101.711C39.5547 101.663 39.972 101.439 40.3893 101.038C40.8146 100.646 41.0232 100.285 41.0232 99.957L40.959 98.123C40.959 97.5864 41.1757 97.138 41.609 96.7856L41.8658 95.6884L42.0584 95.344C42.2992 94.8875 42.4757 94.5351 42.6121 94.2948C42.7405 94.0546 42.8047 93.9104 42.8047 93.8704V92.9334L42.9331 92.7251C43.2381 92.5409 43.4146 92.3247 43.4869 92.0924C43.5511 91.8602 43.6795 91.5559 43.856 91.1875C44.0406 90.8191 44.193 90.2424 44.3214 89.4496C45.1641 88.8089 45.5814 88.2322 45.5814 87.7117V87.5835C45.4931 87.2712 45.4289 87.095 45.3888 87.055C45.477 86.9188 45.5412 86.7987 45.5814 86.7106C46.2073 86.5664 46.5845 86.198 46.7129 85.6054C46.8413 85.0047 47.1542 84.4761 47.6518 84.0036C47.8684 83.6352 48.037 83.387 48.1734 83.2588C48.3018 83.1387 48.4141 82.9865 48.4944 82.8023L48.6228 82.8504L49.2407 82.6421L49.7623 82.7062L50.2839 82.5781L50.8376 82.7703L51.4877 82.6261L52.8118 82.7222L53.6223 82.4259L55.3396 82.4099C55.468 82.3939 55.5803 82.3618 55.6606 82.3058L55.789 81.8413L56.0779 81.7051C56.118 82.0255 56.2304 82.1696 56.3989 82.1456L57.8193 81.7772C58.0119 81.7532 58.2607 81.625 58.5656 81.3928C59.2798 81.3687 59.6971 81.4168 59.8255 81.5289L60.4434 81.3207C60.7002 80.9683 60.8928 80.7841 61.0292 80.7681L61.8397 80.9283C62.2891 80.8722 63.2441 80.5599 64.6886 79.9993L66.4059 79.0783C66.5343 79.0382 66.759 78.854 67.088 78.5096L67.8664 78.6057C68.6609 78.2053 69.1584 77.965 69.351 77.8769C69.5436 77.7888 69.9689 77.5085 70.627 77.044C71.285 76.5715 71.7585 76.067 72.0313 75.5144C72.1196 75.5464 72.1838 75.5624 72.2239 75.5544C72.4406 75.5304 72.9221 75.1219 73.6764 74.3451C73.9172 74.3131 74.1178 74.0007 74.2944 73.4001C75.0487 72.6633 75.7709 71.4459 76.445 69.7481C77.1271 68.0502 77.4642 66.6327 77.4642 65.4874L77.3197 63.8617Z" fill="#F9932F"/>
<path d="M66.8795 86.7186L67.4011 86.206L67.5937 86.182C67.7462 86.166 67.9709 85.9738 68.2758 85.6134L68.5968 85.4452C69.0302 84.7485 69.4073 84.324 69.7283 84.1798L70.2499 83.7313C70.3382 83.6352 70.4586 83.5471 70.6191 83.459C70.7796 83.3709 71.0364 83.1307 71.3975 82.7303C71.7506 82.3298 72.0395 82.1216 72.2562 82.0896C72.4728 82.0655 72.6413 82.0655 72.7778 82.0896C72.9062 81.8173 73.163 81.5289 73.5562 81.2326C73.9414 80.9363 74.2624 80.5999 74.4951 80.2315L74.9124 79.9833C75.2575 79.767 75.5624 79.5107 75.8352 79.2064C76.1081 78.9021 76.4532 78.7259 76.8865 78.6698C77.5124 78.5897 78.1625 78.83 78.8446 79.3826C79.5267 79.9352 79.8637 80.5038 79.8637 81.0804L79.31 83.6673C78.9409 85.5653 78.5316 86.5825 78.0822 86.7266L77.9538 87.4234C77.6489 87.6716 77.5044 87.8638 77.5044 87.992L77.697 88.7448C77.697 88.8489 77.5766 89.0331 77.3439 89.2734C77.3038 89.2814 77.2797 89.3455 77.2797 89.4736V90.795C77.2797 91.0353 77.1273 91.2435 76.8303 91.4277C76.8705 91.4678 76.9347 91.4998 77.0229 91.5318C77.1513 91.3877 77.4402 91.2836 77.8976 91.2275H78.4112L79.1254 90.4266C79.2779 90.3626 79.4866 90.2344 79.7594 90.0422C80.0323 89.85 80.4897 89.5777 81.1317 89.2414L85.3688 85.4933C85.9466 84.8446 86.388 84.4922 86.6929 84.4601C87.0139 84.4201 87.1744 84.6043 87.1744 85.0127C87.1744 85.4853 87.0861 85.8937 86.9016 86.2221C86.717 86.5584 86.5485 86.9509 86.396 87.4154C86.2435 87.8719 86.067 88.2002 85.8583 88.4004C85.6497 88.6006 85.4892 88.8089 85.3608 89.0251C85.2324 89.2494 84.8793 89.5857 84.3095 90.0422C83.7398 90.4987 83.2502 90.9552 82.849 91.4037C82.4477 91.8522 82.1187 92.1725 81.8619 92.3808L80.4736 93.55L80.281 93.8944C80.2409 93.9425 80.0403 94.0626 79.6792 94.2388C79.3261 94.423 79.0051 94.6392 78.7242 94.8875L78.1384 95.2799C78.01 95.3841 77.8013 95.4641 77.5044 95.5202C77.2155 95.5763 76.9587 95.7364 76.7421 95.9847C76.5254 96.241 76.3569 96.3691 76.2204 96.3851L75.7389 96.3771L75.0889 96.6494C74.7198 96.6975 74.2704 96.5293 73.7488 96.1529C73.2191 95.7765 72.9543 95.344 72.9543 94.8475V94.6553L73.0185 94.1988C73.0185 94.1107 72.9543 93.9024 72.8259 93.5581C72.6975 93.2217 72.6333 93.0295 72.6333 92.9814L72.6975 92.5249L72.6333 92.3407C72.6333 91.7561 72.6734 91.3877 72.7617 91.2275C72.85 91.0673 72.9142 90.8511 72.9543 90.5708C72.9944 90.2985 73.0426 90.0743 73.0827 89.8901L73.2432 89.0652C73.3315 88.7929 73.4358 88.6087 73.5642 88.5045C73.6043 88.3284 73.6926 88.024 73.821 87.5996L73.9494 86.9989L74.2704 86.5024C74.4389 86.3102 74.5432 86.0619 74.5753 85.7736C74.6074 85.4772 74.7198 85.1569 74.9124 84.8125C75.105 84.4681 75.2013 84.2599 75.2013 84.1958C75.2013 83.9396 75.0729 83.8274 74.8161 83.8595C74.7278 83.8675 74.463 84.0757 74.0056 84.4762L73.4198 84.356C73.3796 84.364 73.2593 84.4842 73.0667 84.7244C73.0667 84.8125 72.9704 84.8846 72.7778 84.9567C72.5852 85.0207 72.4006 85.2049 72.2241 85.5093L71.9673 85.6054L71.55 85.4612L71.4216 85.4772C71.2049 85.5013 71.0765 85.7576 71.0364 86.2381C70.7956 86.6145 70.4827 86.8788 70.0975 87.0309L69.3832 87.3112C69.1425 87.4234 68.974 87.6396 68.8616 87.96C68.7493 88.2723 68.5406 88.5766 68.2116 88.8649C67.8906 89.1533 67.6739 89.3054 67.5616 89.3134C66.9597 89.3855 66.6548 89.0892 66.6548 88.4245L66.9116 86.8708L66.8795 86.7186ZM80.8588 68.8511L80.6662 67.6178V67.4256C80.6662 66.4165 81.0113 65.8158 81.7014 65.6156C81.8539 65.5755 82.3033 65.3833 83.0576 65.0309C83.4428 65.071 83.8521 65.3593 84.2694 65.9039C84.6867 66.4405 84.9034 66.945 84.9034 67.3935C84.9034 67.4336 84.8713 67.5377 84.8071 67.6979C84.7429 67.858 84.7027 68.1463 84.6787 68.5708C84.6546 68.9953 84.4459 69.3877 84.0447 69.7481C83.6435 70.1085 83.2181 70.3167 82.7687 70.3728C82.4638 70.4128 82.0866 70.2446 81.6212 69.8842C81.1557 69.5158 80.8989 69.1715 80.8588 68.8511Z" fill="#F9932F"/>
<path d="M92.3103 91.4197L91.7887 91.7401C91.6844 91.708 91.564 91.7 91.4356 91.716C91.3474 91.724 90.9541 91.8602 90.2399 92.1245C90.1998 92.1725 90.1115 92.2046 89.9831 92.2206C89.8547 92.2366 89.6782 92.0924 89.4615 91.7801C89.2448 91.4758 89.1405 91.2115 89.1405 90.9953C89.1405 90.779 89.3492 90.2905 89.7584 89.5297L90.8578 87.4874C91.1146 86.9188 91.2751 86.4863 91.3393 86.198C91.4035 85.9097 91.5078 85.6454 91.6443 85.3971C91.7807 85.1569 91.877 84.9567 91.9171 84.7965C91.9572 84.6443 92.0134 84.4761 92.0776 84.308C92.1418 84.1398 92.198 83.8995 92.2381 83.5952C92.2782 83.2908 92.3906 82.8584 92.5591 82.2978V82.2337C92.5591 82.1056 92.519 82.0415 92.4307 82.0575L92.1739 82.0895C92.0856 82.0175 92.0214 81.9774 91.9813 81.9854L89.9751 84.5242C89.2448 85.301 88.651 85.8697 88.2016 86.23C87.7522 86.5904 87.4152 86.9669 87.1985 87.3673C86.9818 87.7677 86.7892 87.984 86.6207 88.008C85.9948 88.0881 85.6818 87.6156 85.6818 86.6065C85.6818 86.158 85.754 85.8456 85.9065 85.6775C86.059 85.5093 86.2917 85.1329 86.6127 84.5562C86.6127 84.5162 86.7651 84.3961 87.0621 84.2118C87.367 84.0276 87.6078 83.7954 87.7923 83.5231C87.9769 83.2508 88.1535 83.0826 88.322 83.0185C88.4905 82.9545 88.6109 82.8424 88.6751 82.6822C88.7393 82.522 88.8757 82.3538 89.0763 82.1776C89.2769 82.0014 89.4374 81.7852 89.5418 81.5209C89.6461 81.2566 89.8306 81.0404 90.0714 80.8562C90.3202 80.672 90.5208 80.4317 90.6813 80.1354C90.8418 79.8391 91.227 79.5508 91.8288 79.2865L93.7307 77.2763C94.5252 76.1871 95.1431 75.6185 95.5684 75.5624L95.9215 75.5224C96.0499 75.5064 96.2104 75.4663 96.403 75.4022C96.5956 75.3382 96.7561 75.2901 96.8845 75.2741C97.3821 75.21 97.8636 75.4583 98.321 76.0029C98.7864 76.5475 99.0191 77.1241 99.0191 77.7248C99.0191 78.4376 98.7944 79.0222 98.337 79.4867C97.3259 81.633 96.8123 82.9865 96.8123 83.5471C96.8123 83.7874 96.6679 84.0437 96.395 84.324C96.1141 84.6043 95.9777 84.9166 95.9777 85.261C95.8734 85.5333 95.7049 85.8136 95.4962 86.0939C95.4962 86.3342 95.424 86.6225 95.2715 86.9588C95.119 87.3032 95.0468 87.4954 95.0468 87.5355C95.0468 87.6236 95.0869 87.6556 95.1752 87.6476C95.432 87.6156 95.8252 87.4394 96.3549 87.111C96.8845 86.7907 97.3419 86.6065 97.7352 86.5584C98.1043 86.5104 98.4734 86.3742 98.8426 86.1339L99.6531 85.4212C99.9099 85.1969 100.263 85.0528 100.696 85.0047H101.218C101.306 84.9967 101.475 84.8846 101.724 84.6683C101.972 84.4521 102.47 84.1638 103.232 83.7874C103.987 83.411 104.452 83.2188 104.62 83.1947C105.808 83.0506 106.402 83.4831 106.402 84.4922C106.402 84.5162 106.338 84.7725 106.209 85.261C106.081 85.7495 105.961 86.0378 105.856 86.1099C105.752 86.19 105.575 86.3262 105.335 86.5264L105.527 87.119C105.142 87.5515 104.901 88.1121 104.813 88.7928L104.364 90.0422C104.275 90.1784 104.235 90.4266 104.235 90.771C103.714 91.8442 103.345 92.7652 103.12 93.526C102.895 94.2868 102.446 95.4801 101.78 97.1139L101.715 97.3782C101.715 97.4663 101.643 97.5624 101.507 97.6665C101.362 97.7706 101.298 97.8667 101.298 97.9468C101.298 98.0269 101.683 98.2832 102.462 98.6916C103.24 99.1001 103.625 99.6847 103.625 100.438C103.625 101.022 103.369 101.519 102.863 101.935C102.357 102.352 101.788 102.6 101.162 102.68C100.945 102.704 100.672 102.616 100.335 102.408C99.9982 102.199 99.6852 102.119 99.3803 102.151C99.1235 102.183 98.8907 102.456 98.6901 102.976C98.4895 103.497 98.2327 103.785 97.9358 103.841L96.1623 107.157L95.8734 107.485C95.745 107.629 95.5363 107.91 95.2555 108.318C94.9746 108.727 94.6536 109.111 94.3005 109.455C93.9474 109.8 93.6104 110.304 93.3134 110.969C92.84 111.265 92.3264 111.77 91.7887 112.483C91.2511 113.195 90.8177 113.684 90.5047 113.948C90.1918 114.213 89.951 114.509 89.7745 114.829L89.1887 115.646C89.0362 115.75 88.8516 115.862 88.6349 115.974L88.5065 116.119C88.0491 116.543 87.6078 116.887 87.1744 117.152C86.9818 117.712 86.6047 118.129 86.0429 118.385C85.4812 118.649 85.0077 119.01 84.6305 119.482C84.2534 119.947 83.8842 120.243 83.5311 120.379C83.178 120.507 82.8169 120.692 82.4638 120.932C82.1107 121.172 81.7977 121.3 81.541 121.332C81.0193 121.396 80.5298 121.108 80.0644 120.459C79.5989 119.819 79.3662 119.098 79.3662 118.297L79.6872 116.223C79.928 114.621 80.6341 112.803 81.8218 110.761L83.6675 107.661C84.2293 107.205 84.9997 106.38 85.9707 105.187C86.0991 104.995 86.3077 104.77 86.6046 104.514C86.8935 104.25 87.3991 103.777 88.1133 103.088C88.4584 102.552 88.8757 102.207 89.3652 102.063C89.8547 101.919 90.3442 101.727 90.8418 101.495L91.227 101.383C91.3153 101.375 91.3875 101.294 91.4517 101.158C91.7967 100.43 93.5622 99.6046 96.732 98.6997C97.3179 98.5395 97.7031 98.2111 97.8957 97.6986C98.0882 97.194 98.321 96.6654 98.5938 96.1128C98.8667 95.5602 98.9951 95.1518 98.9951 94.8635C99.3803 94.431 99.621 93.9585 99.7093 93.4539L99.9019 92.8773C100.094 92.637 100.191 92.4528 100.191 92.3247L100.127 91.7481C100.56 90.9872 100.777 90.2504 100.777 89.5377V89.4736C101.122 89.0011 101.298 88.5125 101.298 88.024C101.298 87.8558 101.21 87.7757 101.041 87.7998L100.592 88.1762C100.375 88.0721 100.247 88.024 100.207 88.032C99.8858 88.0721 99.5568 88.2322 99.2358 88.5045C98.9148 88.7848 98.6981 88.929 98.5858 88.937H98.0642L96.6036 89.4736L96.1462 89.4656C96.058 89.4736 95.9055 89.5617 95.6728 89.7138C95.4481 89.874 95.2234 89.9861 95.0067 90.0582C94.79 90.1303 94.5814 90.2504 94.3727 90.4266C94.1641 90.6028 93.9153 90.7069 93.6104 90.747C93.5863 90.747 93.4659 90.8271 93.2492 90.9712C93.0326 91.1154 92.8159 91.2195 92.5992 91.2756C92.4147 91.3637 92.3103 91.4037 92.3103 91.4197ZM91.9251 103.777L91.1788 104.322L90.593 104.33C90.5047 104.386 90.272 104.578 89.8948 104.914C89.5177 105.251 89.285 105.427 89.1967 105.435L88.5788 105.507C87.9047 106.428 87.4874 106.925 87.3108 106.989C86.8374 107.173 86.4843 107.469 86.2596 107.862C86.0349 108.254 85.8744 108.454 85.7941 108.47L85.3447 108.334C85.3046 108.342 85.1762 108.735 84.9596 109.511C84.8954 109.56 84.7108 109.632 84.4058 109.712C83.499 111.329 82.9935 112.17 82.8811 112.226L82.5601 112.266C82.4959 112.274 82.4076 112.371 82.3033 112.555C82.3033 113.716 82.0545 114.805 81.557 115.814C81.6854 116.639 81.8138 117.04 81.9422 117.024C82.1348 116.871 82.3113 116.775 82.4638 116.735C82.6163 116.695 82.9293 116.551 83.4188 116.295C83.9083 116.039 84.2052 115.894 84.3095 115.862C84.4219 115.83 84.6787 115.598 85.0879 115.19C85.4972 114.773 85.9065 114.461 86.3158 114.245C86.725 114.036 87.0781 113.7 87.3831 113.26L88.0652 112.659C88.0411 112.339 88.5065 111.842 89.4615 111.161L90.1757 110.264L90.5368 109.576L90.922 109.335L91.1146 108.759C91.1788 108.711 91.2912 108.655 91.4517 108.59C91.6122 108.526 91.7727 108.318 91.9412 107.966C92.1017 107.613 92.4628 106.957 93.0246 106.004C93.2813 105.819 93.7227 105.091 94.3487 103.809L94.5734 103.585C94.8301 103.313 94.9586 103.12 94.9586 102.992C94.9586 102.864 94.8943 102.808 94.7659 102.824C94.6376 102.84 94.1801 102.968 93.3857 103.217C92.5912 103.465 92.1177 103.649 91.9251 103.777Z" fill="#F9932F"/>
<path d="M114.186 88.7368L113.664 89.0571C113.56 89.0251 113.44 89.0171 113.311 89.0331C113.223 89.0411 112.83 89.1773 112.116 89.4416C112.076 89.4896 111.987 89.5216 111.859 89.5377C111.73 89.5537 111.554 89.4095 111.337 89.0972C111.121 88.7928 111.016 88.5286 111.016 88.3123C111.016 88.0961 111.225 87.6076 111.634 86.8467L112.734 84.8045C112.99 84.2359 113.151 83.8034 113.215 83.5151C113.279 83.2268 113.384 82.9625 113.52 82.7142C113.656 82.474 113.753 82.2737 113.793 82.1136C113.833 81.9614 113.889 81.7932 113.953 81.625C114.018 81.4568 114.074 81.2166 114.114 80.9122C114.154 80.6079 114.266 80.1754 114.435 79.6148V79.5508C114.435 79.4226 114.395 79.3586 114.306 79.3746L114.05 79.4066C113.961 79.3345 113.897 79.2945 113.857 79.3025L111.851 81.8413C111.121 82.6181 110.527 83.1867 110.077 83.5471C109.628 83.9075 109.291 84.2839 109.074 84.6844C108.858 85.0848 108.665 85.301 108.496 85.3251C107.87 85.4052 107.558 84.9326 107.558 83.9235C107.558 83.475 107.63 83.1627 107.782 82.9945C107.935 82.8263 108.167 82.4499 108.488 81.8733C108.488 81.8333 108.641 81.7131 108.938 81.5289C109.243 81.3447 109.483 81.1125 109.668 80.8402C109.853 80.5679 110.029 80.3997 110.198 80.3356C110.366 80.2715 110.487 80.1594 110.551 79.9993C110.615 79.8391 110.751 79.6709 110.952 79.4947C111.153 79.3185 111.313 79.1023 111.417 78.838C111.522 78.5737 111.706 78.3575 111.947 78.1733C112.196 77.9891 112.397 77.7488 112.557 77.4525C112.718 77.1562 113.103 76.8678 113.705 76.6036L115.606 74.5934C116.401 73.5042 117.019 72.9355 117.444 72.8795L117.797 72.8394C117.926 72.8234 118.086 72.7834 118.279 72.7193C118.471 72.6552 118.632 72.6072 118.76 72.5912C119.258 72.5271 119.739 72.7754 120.197 73.32C120.662 73.8646 120.895 74.4412 120.895 75.0418C120.895 75.7546 120.67 76.3393 120.213 76.8038C119.202 78.9501 118.688 80.3036 118.688 80.8642C118.688 81.1045 118.544 81.3607 118.271 81.641C117.99 81.9214 117.853 82.2337 117.853 82.5781C117.749 82.8504 117.581 83.1307 117.372 83.411C117.372 83.6512 117.3 83.9396 117.147 84.2759C116.995 84.6203 116.923 84.8125 116.923 84.8525C116.923 84.9406 116.963 84.9727 117.051 84.9647C117.308 84.9326 117.701 84.7564 118.231 84.4281C118.76 84.1077 119.218 83.9235 119.611 83.8755C119.98 83.8274 120.349 83.6913 120.718 83.451L121.529 82.7382C121.786 82.514 122.139 82.3698 122.572 82.3218H123.094C123.182 82.3138 123.35 82.2017 123.599 81.9854C123.848 81.7692 124.346 81.4809 125.108 81.1045C125.862 80.728 126.328 80.5358 126.496 80.5118C127.684 80.3677 128.278 80.8001 128.278 81.8092C128.278 81.8333 128.214 82.0895 128.085 82.5781C127.957 83.0666 127.836 83.3549 127.732 83.427C127.628 83.5071 127.451 83.6432 127.21 83.8434L127.403 84.4361C127.018 84.8686 126.777 85.4292 126.689 86.1099L126.239 87.3593C126.151 87.4954 126.111 87.7437 126.111 88.0881C125.589 89.1612 125.22 90.0823 124.996 90.8431C124.771 91.6039 124.321 92.7972 123.655 94.431L123.591 94.6953C123.591 94.7834 123.519 94.8795 123.383 94.9836C123.238 95.0877 123.174 95.1838 123.174 95.2639C123.174 95.344 123.559 95.6003 124.338 96.0087C125.116 96.4172 125.501 97.0018 125.501 97.7546C125.501 98.3393 125.244 98.8358 124.739 99.2523C124.233 99.6687 123.663 99.917 123.038 99.9971C122.821 100.021 122.548 99.933 122.211 99.7248C121.874 99.5165 121.561 99.4365 121.256 99.4685C120.999 99.5005 120.766 99.7728 120.566 100.293C120.365 100.814 120.108 101.102 119.812 101.158L118.038 104.474L117.749 104.802C117.621 104.946 117.412 105.227 117.131 105.635C116.85 106.044 116.529 106.428 116.176 106.772C115.823 107.117 115.486 107.621 115.189 108.286C114.716 108.582 114.202 109.087 113.664 109.8C113.127 110.513 112.693 111.001 112.38 111.265C112.067 111.53 111.827 111.826 111.65 112.146L111.064 112.963C110.912 113.067 110.727 113.179 110.511 113.292L110.382 113.436C109.925 113.86 109.483 114.205 109.05 114.469C108.858 115.029 108.48 115.446 107.919 115.702C107.357 115.966 106.883 116.327 106.506 116.799C106.129 117.264 105.76 117.56 105.407 117.696C105.054 117.825 104.693 118.009 104.34 118.249C103.986 118.489 103.673 118.617 103.417 118.649C102.895 118.713 102.406 118.425 101.94 117.776C101.475 117.136 101.242 116.415 101.242 115.614L101.563 113.54C101.804 111.938 102.51 110.12 103.698 108.078L105.543 104.979C106.105 104.522 106.875 103.697 107.846 102.504C107.975 102.312 108.183 102.087 108.48 101.831C108.769 101.567 109.275 101.094 109.989 100.406C110.334 99.8689 110.751 99.5245 111.241 99.3804C111.73 99.2362 112.22 99.044 112.718 98.8118L113.103 98.6996C113.191 98.6916 113.263 98.6116 113.327 98.4754C113.672 97.7466 115.438 96.9217 118.608 96.0167C119.194 95.8565 119.579 95.5282 119.771 95.0156C119.964 94.5111 120.197 93.9825 120.47 93.4299C120.742 92.8773 120.871 92.4689 120.871 92.1805C121.256 91.7481 121.497 91.2755 121.585 90.771L121.778 90.1944C121.97 89.9541 122.066 89.7699 122.066 89.6418L122.002 89.0651C122.436 88.3043 122.652 87.5675 122.652 86.8547V86.7907C122.997 86.3181 123.174 85.8296 123.174 85.3411C123.174 85.1729 123.086 85.0928 122.917 85.1168L122.468 85.4932C122.251 85.3891 122.123 85.3411 122.083 85.3491C121.762 85.3891 121.433 85.5493 121.112 85.8216C120.791 86.1019 120.574 86.2461 120.462 86.2541H119.94L118.479 86.7907L118.022 86.7827C117.934 86.7907 117.781 86.8788 117.548 87.0309C117.324 87.1911 117.099 87.3032 116.882 87.3753C116.666 87.4474 116.457 87.5675 116.248 87.7437C116.04 87.9199 115.791 88.024 115.486 88.064C115.462 88.064 115.342 88.1441 115.125 88.2883C114.908 88.4325 114.692 88.5366 114.475 88.5926C114.298 88.6807 114.186 88.7208 114.186 88.7368ZM113.801 101.094L113.055 101.639L112.469 101.647C112.38 101.703 112.148 101.895 111.771 102.232C111.393 102.568 111.161 102.744 111.072 102.752L110.454 102.824C109.78 103.745 109.363 104.242 109.187 104.306C108.713 104.49 108.36 104.786 108.135 105.179C107.911 105.571 107.75 105.771 107.67 105.787L107.22 105.651C107.18 105.659 107.052 106.052 106.835 106.829C106.771 106.877 106.587 106.949 106.282 107.029C105.375 108.646 104.869 109.487 104.757 109.543L104.436 109.584C104.372 109.592 104.283 109.688 104.179 109.872C104.179 111.033 103.93 112.122 103.433 113.131C103.561 113.956 103.69 114.357 103.818 114.341C104.011 114.189 104.187 114.092 104.34 114.052C104.492 114.012 104.805 113.868 105.295 113.612C105.784 113.356 106.081 113.211 106.185 113.179C106.298 113.147 106.554 112.915 106.964 112.507C107.373 112.09 107.782 111.778 108.191 111.562C108.601 111.353 108.954 111.017 109.259 110.577L109.941 109.976C109.917 109.656 110.382 109.159 111.337 108.478L112.051 107.581L112.413 106.893L112.798 106.652L112.99 106.076C113.055 106.028 113.167 105.972 113.327 105.908C113.488 105.843 113.648 105.635 113.817 105.283C113.977 104.93 114.339 104.274 114.9 103.321C115.157 103.136 115.598 102.408 116.224 101.126L116.449 100.902C116.706 100.63 116.834 100.438 116.834 100.309C116.834 100.181 116.77 100.125 116.642 100.141C116.513 100.157 116.056 100.285 115.261 100.534C114.467 100.782 114.001 100.966 113.801 101.094Z" fill="#F9932F"/>
<path d="M155.321 78.7259L155.835 78.2133C156.156 78.1733 156.349 78.0051 156.413 77.7088C156.477 77.4124 156.71 77.1481 157.103 76.9319C157.504 76.7077 157.873 76.3152 158.218 75.7466C158.563 75.178 158.917 74.8657 159.286 74.8256C159.414 74.8096 159.567 74.8977 159.735 75.0899C159.904 75.2821 159.992 75.4423 159.992 75.5784C159.992 76.2912 159.775 77.044 159.342 77.8529L159.213 78.7739L158.989 79.2224C158.668 79.4386 158.451 79.6469 158.355 79.8471C158.259 80.0553 158.002 80.3196 157.592 80.648L157.271 81.1365C156.798 81.3447 156.477 81.633 156.317 81.9934C156.156 82.3618 155.931 82.5781 155.634 82.6582C155.346 82.7382 155.025 82.9945 154.679 83.419C154.463 83.5551 154.206 83.6833 153.901 83.8034L153.837 84.1318C153.62 84.372 153.283 84.5883 152.818 84.7725C152.352 84.9567 152.007 85.1249 151.782 85.269C151.558 85.4132 151.397 85.4933 151.317 85.5013C150.908 85.5493 150.531 85.5173 150.185 85.3971C149.84 85.277 149.487 85.221 149.118 85.221C148.99 85.1088 148.91 84.9807 148.893 84.8285C148.869 84.6844 148.765 84.4922 148.573 84.2679C148.38 84.0437 148.284 83.7153 148.284 83.2828L148.412 82.6502C148.412 82.5621 148.356 82.466 148.252 82.3458C148.147 82.2337 148.091 82.1296 148.091 82.0415C148.091 81.9534 148.115 81.8893 148.155 81.8413C148.195 81.7932 148.219 81.7291 148.219 81.6411C148.219 81.5369 148.195 81.4168 148.155 81.2967C148.115 81.1765 148.091 81.0724 148.091 80.9843L148.284 79.3746C148.284 79.2464 148.243 79.1824 148.155 79.1984C148.067 79.2064 147.914 79.3345 147.69 79.5828C147.465 79.8231 147.2 79.9672 146.895 79.9993C146.719 80.1514 146.582 80.4397 146.478 80.8562C146.301 81.0965 146.093 81.3127 145.828 81.5209L145.7 81.7291C145.659 81.8893 145.491 82.0335 145.218 82.1616C144.937 82.2898 144.745 82.4419 144.632 82.6021L144.311 82.9625L143.693 82.9705C143.653 83.0186 143.533 83.2188 143.34 83.5792C143.148 83.9396 142.899 84.2439 142.594 84.4922L140.13 86.7987C139.874 87.0069 139.496 87.2632 138.999 87.5835L138.806 87.7998C137.081 89.1532 135.861 89.874 135.147 89.9621C134.561 90.0342 133.887 89.9541 133.109 89.7299C132.33 89.5056 131.913 89.1693 131.849 88.7208L131.528 87.4394C131.335 87.1591 131.239 86.7506 131.239 86.214C131.239 85.9578 131.263 85.7816 131.303 85.6855V85.4933L131.239 84.4361C131.239 84.1798 131.439 84.0277 131.857 83.9716L131.792 83.1066C131.792 83.0186 131.977 82.6582 132.362 82.0175C132.739 81.3768 132.996 81.0084 133.125 80.9042L133.446 80.4477C133.422 80.1915 133.574 79.9032 133.903 79.5668C134.224 79.2384 134.489 78.9101 134.681 78.5817C134.874 78.2534 135.243 77.8769 135.781 77.4445L136.752 76.3553C137.506 75.5064 138.333 74.8016 139.215 74.241C139.344 74.1849 139.609 73.9366 140.01 73.4962C140.411 73.0637 140.861 72.7193 141.374 72.471C141.88 72.2228 142.377 71.9345 142.867 71.5901C143.356 71.2537 143.734 71.0615 144.014 71.0295L144.271 70.9974C144.359 70.9894 144.929 70.6451 145.988 69.9803L146.181 69.9563C146.269 69.9483 146.47 70.0044 146.799 70.1405L146.863 70.1325L147.385 69.8121C147.473 69.7561 147.577 69.724 147.706 69.708C149.046 69.5479 149.776 70.3808 149.913 72.2148C149.953 72.5992 150.065 72.7754 150.234 72.7594C150.45 72.7353 150.755 72.3029 151.157 71.47C151.558 70.637 152.4 70.1405 153.7 69.9803C154.631 69.8682 155.089 70.4048 155.089 71.5901C155.089 72.9916 154.463 74.3931 153.211 75.7947C153.123 75.9789 153.058 76.1791 153.018 76.4033L152.569 77.7808V77.8449C152.569 77.973 152.481 78.1653 152.296 78.4135C152.111 78.6618 152.023 78.87 152.023 79.0462L152.087 79.8471L151.959 80.7681C151.959 81.1765 152.031 81.4408 152.184 81.5449C152.874 81.2887 153.371 80.9443 153.684 80.5038C153.997 80.0633 154.214 79.8231 154.342 79.759L154.663 79.5908C154.84 79.2705 155.065 78.9741 155.321 78.7259ZM144.576 80.0393C144.664 79.5588 144.929 79.1583 145.371 78.862C145.812 78.5577 146.077 78.2774 146.165 78.0051C146.574 77.6527 147.16 77.044 147.931 76.1711C148.701 75.2981 149.078 74.7856 149.078 74.6094C149.078 74.5453 149.038 74.5213 148.95 74.5293L148.885 74.5373L148.629 74.7295L148.043 74.7375L147.425 74.8817L146.976 74.7135L146.558 74.8256L145.908 74.7776C145.563 74.8176 145.266 74.9297 145.017 75.0979C144.769 75.2661 144.295 75.4823 143.589 75.7386C142.891 75.9949 142.257 76.3713 141.695 76.8598C141.133 77.3484 140.724 77.6127 140.467 77.6447C140.315 77.9891 139.809 78.5096 138.943 79.2224C138.421 79.4547 138.092 79.8791 137.94 80.4718C137.378 80.9923 137.097 81.2887 137.097 81.3527L136.872 81.9294C136.696 82.0976 136.487 82.2497 136.222 82.3779C135.957 82.506 135.813 82.7543 135.773 83.1147C135.733 83.4751 135.58 83.8194 135.339 84.1398C135.091 84.4601 134.97 84.7084 134.97 84.8766C134.97 85.9337 135.179 86.4383 135.588 86.3822C135.757 86.3582 136.126 86.206 136.672 85.9097C137.225 85.6134 137.538 85.4212 137.627 85.3251C137.715 85.229 137.883 85.1249 138.148 85.0047L138.766 84.6043C138.854 84.5082 138.951 84.4441 139.055 84.4041C139.159 84.372 139.272 84.2839 139.376 84.1558C139.48 84.0277 139.681 83.8755 139.962 83.6993C140.243 83.5231 140.459 83.3069 140.612 83.0506C140.981 82.7943 141.575 82.3859 142.393 81.8333L143.075 81.2326C143.549 80.9603 143.838 80.7361 143.95 80.5759C144.038 80.4077 144.247 80.2315 144.576 80.0393Z" fill="#F9932F"/>
</svg>
