<?xml version="1.0" encoding="utf-8"?>
<!-- Generator: Adobe Illustrator 25.2.0, SVG Export Plug-In . SVG Version: 6.00 Build 0)  -->
<svg version="1.1" id="Layer_1" xmlns="http://www.w3.org/2000/svg" xmlns:xlink="http://www.w3.org/1999/xlink" x="0px" y="0px"
	 viewBox="0 0 115 115" style="enable-background:new 0 0 115 115;" xml:space="preserve">
<style type="text/css">
	.st0{fill:#FFFFFF;}
	.st1{clip-path:url(#SVGID_2_);}
	.st2{fill:#25232E;}
</style>
<circle class="st0" cx="57.5" cy="57.5" r="57.5"/>
<g>
	<g>
		<defs>
			<rect id="SVGID_1_" x="12" y="11.2" width="91" height="96.5"/>
		</defs>
		<clipPath id="SVGID_2_">
			<use xlink:href="#SVGID_1_"  style="overflow:visible;"/>
		</clipPath>
		<g class="st1">
			<path class="st2" d="M86.6,92.5l-0.2,0.2C86.5,92.6,86.6,92.6,86.6,92.5z"/>
			<path class="st2" d="M99.6,77.9c-0.1,0.2-0.1,0.3-0.1,0.4C99.5,78.1,99.6,78,99.6,77.9z"/>
			<path class="st2" d="M46.1,98c0,0-0.1-0.1-0.3-0.2C45.8,97.9,45.9,97.9,46.1,98z"/>
			<path class="st2" d="M80.4,17.3L80.4,17.3L80.4,17.3z"/>
			<path class="st2" d="M36,17.9L36,17.9L36,17.9L36,17.9z"/>
			<path class="st2" d="M33.8,19c0.1-0.1,0.3-0.2,0.4-0.3C34,18.9,33.9,18.9,33.8,19z"/>
			<path class="st2" d="M98.5,79.7c0,0-0.1,0.1-0.1,0.2C98.4,79.9,98.4,79.9,98.5,79.7z"/>
			<path class="st2" d="M97.6,78.2c-0.1,0-0.4,0.2-1.6,1c0,0.1-0.1,0.2-0.1,0.2c-0.9,1.6-1,1.9-1.5,2.8c-0.2,0.2-0.3,0.2-0.3,0.1
				c0.3-0.3,0.2-0.3,0.3-0.4c-0.4,0.5-1,1-0.8,0.6c-0.6,0.8,0.3-0.2,0,0.3l-0.8,1.1c0.2-0.1,0.5-0.4,0.1,0.2
				c-0.3,0.5-0.6,0.7-1.1,1.2c0-0.1-0.3,0.1,0.1-0.3c-0.3,0.2-0.7,0.7-0.8,0.9c0.7-0.6-0.9,1.1-0.3,0.7l-0.7,0.6
				c0.1-0.1,0.1-0.2,0.3-0.4c-0.3,0.1-0.4,0.5-0.6,0.8c-0.2,0.2-0.8,0.7-0.9,0.7c-0.2,0.2-0.7,0.6-0.8,0.6c-0.3,0.3,0,0.1,0,0.2
				l-1,0.9c-0.1,0-0.3-0.1-0.2-0.3c-0.3,0.4,0,0.3-0.6,0.8c0.3-0.4-0.9,0.5-0.5,0c-0.4,0.2-1.5,0.9-2,1.3c-0.3,0.4,0.7-0.4,0.7-0.2
				c-1.6,1.2-1.5,1.6-2.8,2.2l0.3-0.2c-0.8,0.5-0.7,0.4-1.1,0.8c0.1-0.1-0.2-0.1-0.7,0.1c-0.5,0.1-1.1,0.5-1.8,0.8
				c-0.1,0.1,0.8-0.2,0.7,0l-0.9,0.4c-0.1,0,0-0.1,0.1-0.1c-0.8,0.4-1.6,0.5-1.8,0.7l-0.9,0.1H76c-0.1,0.1-1,0.6-1.2,0.6
				c-0.9,0.4-1.3,0.5-1.9,0.5c0.2,0,0.7,0-0.1,0.3c-0.1-0.3-1.6,0.4-1.7,0.3c-0.3,0.1-0.9,0.1-0.9,0.2v-0.2c0,0.2-1.2,0.5-2,0.7
				c0.1-0.1-0.1-0.1-0.4-0.1c-0.1,0.3-0.1,0.5-0.2,0.7s-0.2,0.5-0.3,0.9c0.9-0.1,1.6-0.6,2.7-0.6l-0.2,0.1l0.5-0.2
				c0.1,0-0.1,0.1-0.1,0.2l1.2-0.3c0.4-0.1,0.8-0.2,1.2-0.4l-0.5,0.1c0.5-0.2,0.8-0.4,1.4-0.5c-0.9,0.5,0.8-0.2,1-0.2L74,98.7
				c0.7-0.2,0.7-0.2,0.6-0.3c0.9-0.3,0.7,0,1.5-0.4c-0.2,0.1-0.4,0.2-0.6,0.2s0.2-0.2,0.6-0.4c0.1,0,0.4-0.1,0.1,0
				c0.7-0.3,1.7-0.7,2-0.9c0.4-0.1,0.3,0,0.1,0.1c1.4-0.7,0.7-0.2,2-1v0.1l0.4-0.3l0.7-0.3l-0.3,0.1c0.4-0.3,0.7-0.5,1.2-0.7
				l-0.2,0.2c0.6-0.4,1-0.6,1.4-0.7c0.4-0.2,0.7-0.4,1.2-0.9c0.1,0-0.1,0.1-0.1,0.2c1-0.8,0.9-0.4,1.8-1.3c0,0.1,0.1,0,0.1,0.1
				l0.4-0.4v0.1l0.3-0.4c0.1,0,0.2-0.1,0.4-0.1l0.1-0.2c0.6-0.2,1.2-0.9,2-1.3h-0.2c0.4-0.4,0.8-0.8,1.2-1.2
				c0.4-0.4,0.9-0.9,1.3-1.3c0.5-0.4,1-0.9,1.4-1.3c0.2-0.2,0.5-0.5,0.7-0.7c0.2-0.3,0.4-0.5,0.6-0.8l0.1,0.1l0.5-0.9
				c0.4-0.4-0.1,0.3,0,0.2c0.6-0.9,0.1-0.5,0.9-1.6c0.5-0.5-0.1,0.2-0.2,0.5c0.8-1,1.6-2.6,2.2-3.3c0,0,0-0.1,0,0
				c0.4-0.7,1.1-1.6,1.4-2.4c0,0,0,0.3-0.1,0.5c0.1-0.3,0.4-0.7,0.5-0.9v0.4c0.2-0.4,0.5-1.2,0.8-1.6c-0.2,0.2-0.3,0.4-0.5,0.5
				C99,77.3,98.3,77.8,97.6,78.2z"/>
			<path class="st2" d="M47.2,98.3L47.2,98.3l-0.8-0.1L46.1,98c0,0-0.1,0.1-0.4-0.1c-0.1-0.1-0.3-0.2-0.3-0.2
				c-0.9-0.3-0.8-0.2-0.9-0.2c-0.1,0-0.1,0-0.2-0.1c-0.1,0.1-0.1,0.2-0.2,0.2c-0.1,0.1-0.2,0.3-0.3,0.4c0.5,0.1,0.8,0.2,1.2,0.3
				c0.2,0.1,0.5,0.2,0.8,0.2c0.3,0.1,0.6,0.1,1,0.2c-1.3-0.2,1.4,0.5,0,0.3c0.2,0.1,0.3,0.1,0.4,0.1c0.1-0.3,0.1-0.7,0.2-1
				C47.3,98.3,47.3,98.3,47.2,98.3z"/>
			<path class="st2" d="M47.4,98.1L47.4,98.1L47,98C47.1,98,47.2,98.1,47.4,98.1z"/>
			<path class="st2" d="M23.1,83.2c-0.1-0.2,0.4,0.4,0.2,0.1c-0.2-0.3-0.4-0.5-0.5-0.6c0-0.2-0.9-1.2-0.7-1.2
				c-0.7-1.1-0.6-0.3-1.1-1.4c0-0.2,0.5,0.8,0.3,0.3l-0.7-1.1c0.1,0.1,0.3,0.1,0.5,0.6c-0.4-0.8-0.8-1.4-1.1-2.1
				c-0.3-0.6-0.6-1.2-0.8-1.9c-0.2-0.6-0.4-1.2-0.7-1.8c-0.2-0.6-0.6-1.2-0.8-2c0-0.5,0.2,0.3,0.4,0.5c-0.4-1-0.6-1.8-0.8-2.5
				c-0.2-0.7-0.3-1.4-0.5-2.3h-0.1c-0.1-1.3-0.6-2.7-0.7-4.2c-0.1-0.7-0.2-1.5-0.3-2.2c-0.1-0.8-0.1-1.5-0.1-2.3l-0.1,0.4
				c-0.1-0.4-0.1-1.1-0.2-1.6c0-0.1,0.2,0.4,0.1-0.5c0,0.2,0,0.5-0.1,0.4c0-0.3,0-0.7,0.1-1.1c0-0.4,0.1-0.8,0.1-1.3
				c0.1-0.9,0.1-2,0.3-3.1s0.4-2.2,0.6-3.3c0.3-1.1,0.6-2.2,0.9-3.2c1.5-5.5,4.7-11,8.3-15.2c-0.5,0.7-0.5,0.2,0-0.2
				c0.8-0.5,1.3-1.1,1.8-1.7s1-1.2,1.8-1.7c2.4-2.3,5-3.8,7.5-5.6l0.1,0.1c0.4-0.2,0.5-0.3,0.9-0.6l0,0c0.4-0.2,0.9-0.5,1.3-0.7
				l0.1-0.1c0.7-0.8,1.5-1.5,2.2-2.1l0.1-0.1c0.1-0.1,0.3-0.3,0.5-0.4c0.1-0.1,0.2-0.2,0.3-0.3c0.9-1.3,2.2-2.3,3.7-3
				c0.2-0.2,0.3-0.3,0.5-0.4c-0.1,0-0.3,0.1-0.4,0.1c-0.5,0.2-1,0.3-1.4,0.5l0.2-0.1l-1.9,0.6l1.4-0.3c-0.4,0.2-0.7,0.3-1.1,0.4
				c-0.5,0.2-1.1,0.3-1.7,0.5c-0.6,0.2-1.2,0.5-1.8,0.7c-0.6,0.3-1.2,0.5-1.8,0.8s-1.2,0.7-1.7,1c-1.3,1.1-1.1,0.3-2.4,1.3
				c0.1-0.1,0.1-0.2,0.2-0.2c-1.4,1-2.2,1.7-3.5,2.8c0-0.2-0.2,0-0.5,0.2c-0.2,0.2-0.4,0.4-0.4,0.3v0.2c-0.3,0.2-1.1,0.8-1,0.6
				l-0.5,0.6H28c-0.4,0.3-1,0.8-1.5,1.4c-0.5,0.5-1,1-1.3,1.1c-0.8,1-2,2.1-3,3.5c-0.5,0.7-1.1,1.4-1.6,2c-0.5,0.7-0.9,1.4-1.4,2.1
				c-0.1,0.4-0.6,1.2-1,1.8c-0.2,0.2-0.3,0.4-0.5,0.6c-0.3,0.7-0.5,1.4-0.9,2c0,0,0,0,0-0.1c-0.3,0.7-0.7,1.3-0.8,2
				c-0.3,0.8-0.6,1.5-0.7,1.2c0.2,0.2-0.6,1.6-0.6,1.6s-0.1,0.2-0.2,0.4c-0.1,0.1-0.1,0.3-0.2,0.5c-0.1,0.2-0.1,0.5-0.2,0.7
				c-0.1,0.6-0.3,1.2-0.6,2c-0.1,0.4-0.2,0.8-0.3,1.3c-0.1,0.4-0.2,0.9-0.3,1.4c-0.9,4-1.1,9.6-0.1,15.4c1,5.8,3.4,11.6,6.5,16.1
				c0.2,0.3,0.3,0.6,0.5,0.8c0.2,0.3,0.4,0.5,0.6,0.8c0.4,0.5,0.8,1,1.2,1.5c0.4,0.5,0.7,1,1.1,1.4c0.2,0.2,0.4,0.4,0.6,0.6
				c0.1-0.6,0.3-1.2,0.5-1.9L23.1,83.2z"/>
			<path class="st2" d="M76.8,19.1c0.5,0.3,0.7,0.5,1.7,0.8h-0.3c0.5,0.2,0.8,0.1,1.5,0.6c0,0.1-0.1,0-0.4-0.1
				c-0.2-0.1-0.5-0.2-0.7-0.3c0.5,0.2,1.8,0.9,1.5,0.6c0.6,0.3,0.8,0.5,1.1,0.8c0,0-0.5-0.4-0.1-0.3c0.8,0.6,2.1,1.2,2.9,2
				c0,0,0,0.1-0.1,0.1c0.8,0.4,0.6,0.6,1.6,1.3c0.3,0.2,0.7,0.5,1.1,0.8c0.3,0.3,0.7,0.6,1,0.9c0.7,0.6,1.4,1.2,2.2,1.9
				c0.7,0.7,1.3,1.4,2,2.1c0.3,0.3,0.6,0.7,0.9,1c0.3,0.4,0.5,0.7,0.8,1c0.6,0.5,1.2,1.3,1.9,2.2l-0.1,0.2l0.5,0.7
				c0.1,0.3-0.4-0.6-0.1,0l0.3,0.2c0,0.1,1.1,2,0.2,0.8c0.5,0.9,1.1,1.8,1.5,2.8c0.9,0.4,1.7,0.9,2.4,1.6c0.6,0.3,1.1,0.7,1.5,1.1
				l0.7,0.7c0.3,0.2,0.6,0.4,0.9,0.6l0,0v0.1l0,0c-0.4-1-0.3-1.3-0.8-2.1c-0.1-0.5-0.5-1.3-0.4-1.3c-0.7-1.3-1.2-2.3-1.9-3.6
				c0.1-0.3-0.2-0.3-0.5-1.1l-0.1,0.1c-0.5-0.9-1-1.9-1.6-2.8c-0.6-0.9-1.3-1.9-2-2.8l0.1-0.1l-0.4-0.3c-0.8-0.9-1.7-2-2.6-3
				c-0.4-0.5-0.9-1-1.4-1.4s-0.9-0.8-1.2-1.1c-0.3-0.2-0.6-0.4-1-0.7c-0.2-0.1-0.4-0.3-0.6-0.4s-0.4-0.3-0.6-0.4l0.1,0.1
				c-0.7-0.5-1.5-1-2.3-1.6c-0.4-0.3-0.8-0.6-1.2-0.8c-0.4-0.3-0.8-0.5-1.2-0.8c0.1,0,0-0.1,0.2,0c-0.5-0.1-1-0.6-1.3-0.8l0.4,0.3
				c-0.5-0.2-1.2-0.7-1.4-0.9c-0.3-0.1-0.5-0.2-0.8-0.3l-0.1-0.1h-0.2L79.9,17c-0.2-0.1-1.3-0.5-1.7-0.5c-0.1-0.1-0.8-0.5-0.2-0.2
				c-0.3-0.1-0.6-0.3-0.9-0.4c0,0.3,0.1,0.6,0.1,1C77.2,17.5,77.1,18.3,76.8,19.1z"/>
			<path class="st2" d="M88.9,88C88.8,88.1,88.8,88.1,88.9,88L88.9,88z"/>
			<path class="st2" d="M94.5,81.9c0.1-0.1,0.1-0.2,0.2-0.3C94.5,81.7,94.5,81.8,94.5,81.9z"/>
			<path class="st2" d="M78.3,95.4L78.3,95.4C78.7,95.2,78.5,95.3,78.3,95.4z"/>
			<path class="st2" d="M71.3,97.8c-0.1,0.1-0.2,0.1-0.2,0.2C71.3,97.9,71.4,97.9,71.3,97.8z"/>
			<path class="st2" d="M63,51.2c-0.1,0.2-1.1,0.2-1.4,0.3c-0.3,0.1-0.6,0.4-0.9,0.7c-0.3,0.3-0.6,0.5-0.8,0.5s-0.3-0.1-0.3-0.4
				c0-0.1,0.2-0.5,0.5-1.2l0,0c0,0,0.1-0.1,0.2-0.3c0.1-0.2,0.2-0.4,0.3-0.5s0.2-0.2,0.3-0.4c0.1-0.1,0.1-0.3,0.2-0.4
				c0-0.2,0.2-0.9,0.5-2l0.4-1l1.3-2.4c0.3-1.1,0.7-2,1.1-2.5s0.7-1,0.7-1.4c0.1-0.4,0.3-1,0.8-1.6c0.4-0.6,0.8-1.6,1-3.1l0.4-1.7
				c0-1.2-0.5-2.4-1.5-3.7c-1-1.3-1.8-1.9-2.4-1.9c-0.8,0-1.4,0.3-1.9,1L60.4,31c-0.8,0.5-1.3,1.4-1.8,2.6c-0.4,1.2-1,2-1.7,2.4
				c-0.5,0.5-0.9,1.1-1.3,1.8c-0.4,0.7-0.8,1.2-1.1,1.5s-0.5,0.6-0.6,1l-0.5,0.5c-0.2,0.1-0.4,0.4-0.7,0.9l-0.4,0.4
				c-0.4,0.3-0.9,0.8-1.4,1.5L50.8,44c-0.2,0.4-0.3,0.6-0.3,0.7c0,0.2-0.2,0.3-0.6,0.3c-0.4,0-0.8,0.3-1,0.8s-0.7,1.1-1.4,1.7
				c-0.7,0.6-1.1,1.2-1.3,1.6c-0.1,0.1-0.4,0.3-0.8,0.8c-0.4,0.5-1.1,1.2-1.9,2.1c-0.9,0.9-1.3,1.4-1.3,1.6c0,0.5-0.1,0.9-0.4,1.2
				h-0.9c-0.4,0.2-0.9,0.9-1.4,2.1c-0.2,0.1-0.6,0.1-1.2,0.2L37.5,58l-1.1,0.5c-0.6,0.8-1.5,1.5-2.9,2.3c-1.3,0.8-2.1,1.1-2.3,1.1
				c-0.2,0-0.4-0.2-0.6-0.6c-0.2-0.4-0.4-0.8-0.4-1.1V60c0.5-1.9,0.7-2.9,0.7-3s-0.1-0.4-0.3-0.9c0.4-0.6,0.6-1,0.6-1.3
				s0.1-0.5,0.3-0.8c0.2-0.3,0.4-0.7,0.6-1.2s0.4-1,0.7-1.3c0.2-0.3,0.4-0.7,0.5-1c0.1-0.4,0.3-0.8,0.7-1.4c0.4-0.6,0.7-1.4,0.8-2.5
				l0.1-0.2c2-2.7,3-4.3,3-4.6v-0.2l-0.2-0.7c0-0.1,0-0.1,0.1-0.1c0.4-0.2,0.9-0.6,1.5-1.4c1.8-2.3,2.8-3.5,3.3-3.7l0.4-0.8l1.6-2.1
				c0.7-0.5,1.3-1.3,1.9-2.4c0.2-0.6,0.5-1,0.9-1.3s0.7-0.4,0.7-0.5l0.2-0.7l12.2-9.4c1.3-0.8,2.2-1.4,2.7-1.6l0.7-0.4
				c0.2-0.1,0.5-0.2,1.1-0.3c0.5-0.1,1-0.2,1.4-0.5c0.4-0.2,0.8-0.4,1.3-0.4s0.8,0.3,0.8,0.8c0,0.2-0.2,0.6-0.5,1.2
				c-0.4,0.7-0.6,1-0.8,1.2c-1.7,1.5-2.6,2.7-2.6,3.9c0,1.1,0.9,1.6,2.6,1.6c0.7,0,1.5-1.3,2.3-4l0.4-0.8c0.2-0.4,0.4-0.7,0.4-0.9
				c0-0.5,0.1-0.8,0.3-1.2c0.2-0.3,0.3-0.5,0.3-0.7c0-0.1-0.1-0.3-0.3-0.5c-0.2-0.2-0.3-0.6-0.3-1.2c0-0.2-0.1-0.5-0.3-0.9l-0.5-1.1
				c-0.2-1-0.7-1.5-1.5-1.5c-0.7,0-1.3-0.2-1.7-0.4H66c-0.5,0.2-0.8,0.4-0.9,0.4s-0.2,0-0.4-0.1C64.5,11,64.3,11,64.1,11l-1.3,0.4
				c-0.4,0-1,0.3-1.6,0.8L61,12.1h-0.3c-0.5,0.3-0.8,0.4-0.9,0.4c-0.5,0.5-0.9,0.7-1.2,0.8S58,13.4,58,13.5
				c-0.2,0.1-0.4,0.2-0.6,0.4c-0.1,0.1-0.4,0.3-0.8,0.5c-0.4,0.2-0.8,0.6-1.2,1.3c-0.4-0.1-0.6-0.2-0.7-0.2c-0.4,0-0.6,0.2-0.6,0.6
				c0,0.2,0,0.4,0.1,0.5c-1.1,0-2.1,0.5-3,1.5c-0.6,0.1-1,0.4-1.1,1l-0.3,0.2c-1.4,0.3-2.3,0.9-2.7,2c-0.3,0.2-0.7,0.5-1.2,0.9
				l-0.4,0.4c-0.8,0.6-1.3,1.1-1.5,1.4c-0.1,0.3-0.3,0.5-0.5,0.6c-1.5,1-2.3,1.7-2.3,2.1c0,0.2-0.3,0.6-0.9,1.2l0.1,0.7
				c0,0.1,0,0.1-0.1,0.1s-0.1-0.1-0.3-0.2l0,0c-0.4,0-0.7,0.3-1,0.9c-0.2,0.6-0.5,1-0.7,1l-1.5,1.5c-0.6,0.6-1.2,1.3-1.5,2l-0.1,0.4
				c-0.2,0.3-0.4,0.7-0.6,1.1c-0.2,0.4-0.4,0.8-0.8,1.2s-0.6,0.7-0.8,1l-0.3,0.6c-0.2,0.2-0.4,0.4-0.4,0.6c0,0.1,0.1,0.4,0.2,0.7
				c-0.6,0.1-1,0.4-1,1.1V41l-0.1,0.5l-0.5,0.1c-0.1,0.3-0.2,0.7-0.4,1l-0.3,0.6l0.1,0.9L29.6,44c-1.2,1.2-1.7,2.1-1.7,2.6V47
				c-0.5,0.6-0.8,1.1-0.8,1.5c0,0.3,0.1,0.4,0.4,0.4h0.3l0.2,0.6h-0.4c-0.1,0-0.1,0-0.1,0.1l0.3,0.7l-0.7-0.1L27,50.7
				c-0.1,0.2-0.3,0.4-0.5,0.5c-0.2,0.2-0.3,0.5-0.3,0.8L26,52.6c-0.2,0.2-0.3,0.4-0.4,0.6c0,0.2-0.2,0.6-0.4,1.1
				c-0.2,0.5-0.4,1-0.4,1.2l0.1,1.8l-0.1,0.8l0.1,1.5c0,0.3,0.4,0.9,1.2,1.8s1.2,1.3,1.2,1.4l0.9,0.4c0.8,0.7,1.2,1,1.5,1l1.1-0.1
				c0.1,0.1,0.1,0.1,0.2,0.1c0.5,0.5,1.2,0.8,2.2,0.8c0.6,0,1.3-0.1,2.1-0.4l2-0.7l3.1-2.9c0.1-0.5,0.3-0.8,0.4-0.8l0.5-0.1l0.2-0.2
				c0.2-0.7,0.4-1.1,0.6-1.1l0.5-0.1c0.1-0.1,0.2-0.1,0.3-0.1l0.3-0.5c0.3-0.4,0.6-0.6,0.7-0.8c0.1-0.2,0.3-0.3,0.4-0.4
				c1.1-0.5,1.6-1.1,1.6-1.9c0-0.3,0.2-0.4,0.5-0.5s0.7-0.5,1.1-1.2c0.8-0.5,1.2-0.8,1.3-1S49,52,49,52l-0.1-0.6l0.2-0.3l0.5,0.1
				l0.1-0.1c0.2-0.3,0.4-0.5,0.5-0.7l-0.3-0.9c0-0.1,0.1-0.3,0.4-0.6c0.3-0.3,0.5-0.4,0.6-0.4h0.6c0.1,0,0.3-0.2,0.5-0.6
				c0.3-0.6,1.3-1.6,2.9-3.1c0.9-0.4,1.8-1.2,2.6-2.3l0.1,0.5c0,0-0.1,0.3-0.3,0.9c-0.2,0.6-0.4,0.9-0.4,0.9c-0.6,0.5-0.9,1-0.9,1.6
				v0.4c-0.6,1-0.9,1.7-0.9,2.2c0,0.1-0.3,0.7-1,1.5l0.1,0.9c-0.2,0.1-0.3,0.4-0.4,0.7l-0.4,0.4c-0.1,0.3-0.3,0.5-0.4,0.7V54
				c-0.2,0.5-0.5,1.1-0.9,1.7c-0.4,0.6-0.6,1.2-0.6,1.9c0,0.1-0.1,0.1-0.4,0.3L50.7,58l-4.3,4.1c-0.4,0.5-0.6,0.8-0.8,1l-2.8,2.3
				l-0.4,0.7l-1.7,1.6c-0.5,0.6-0.8,0.9-0.8,1l0.1,0.4v0.2c0,0.2-0.1,0.5-0.3,0.7c-0.2,0-0.3,0-0.3,0c-0.6,0-1,0.4-1.1,1.2l-0.5,0.9
				l-0.6,0.7c-0.1,0.2-0.5,0.5-1.1,0.9s-0.9,0.7-0.9,1.1c0,0.2,0,0.3,0.1,0.4l-0.4,0.4L34,77.2c-0.3,0.3-0.5,0.6-0.8,0.9
				c-0.6,2.1-1.3,3.7-2,4.7c-1.2,2.2-1.7,3.7-1.6,4.3l0.1,1c0,0.3-0.1,0.8-0.4,1.6l0.3,0.9c0,0.1,0,0.2-0.1,0.2l-0.2,0.5v0.1
				c0.3,0.6,0.5,1.1,0.5,1.4s0.2,0.6,0.4,0.8c0.2,0.2,0.4,0.5,0.4,0.8c0.4,1.7,1.6,2.5,3.5,2.5c0.2,0,0.4-0.1,0.6-0.4
				c0.1-0.3,0.5-0.4,1.1-0.4c0.5,0,0.9-0.2,1.1-0.6c0.2-0.4,0.5-0.7,0.9-0.8c0.4-0.1,0.6-0.4,0.7-0.8c0.1-0.5,0.2-0.7,0.2-0.8
				c0.6-0.1,1-0.3,1.1-0.8s0.7-1.3,1.7-2.6c1-1.3,1.5-2,1.5-2.1c0-0.3,0.3-0.7,0.9-1.2c0.6-0.5,1-1.1,1.2-1.8
				c0.2-0.7,0.5-1.2,0.8-1.7c0.3-0.4,0.6-0.8,0.8-1l0.2-0.7l0.9-1l0.5-1.8c0.5-1.1,0.8-1.7,0.8-1.9c0.8-0.7,1.2-1.4,1.2-2.2
				c0-0.1,0.3-0.5,0.9-1.2l0.4-0.7l0.8-2.7c0.4-1.5,0.8-2.5,1.2-2.9c0.4-0.5,0.6-0.8,0.7-0.9l-0.2-1V65c0.4-0.4,0.7-0.9,0.9-1.4
				l0.7-2.7c0.2-0.3,0.4-0.6,0.6-1l0.9-1.4c0.4-0.8,1.5-1.5,3-2.1c0-0.1,1.9-1.4,3.5-2.6C63.2,52.9,62.8,52.5,63,51.2z M48.6,66
				c-0.5,0.2-0.7,0.7-0.7,1.3v0.5c-0.5,0.6-0.8,1.1-1,1.5c-0.1,0.5-0.3,0.8-0.4,1c-0.1,0.2-0.2,0.4-0.2,0.6v0.3
				c0.1,0.2,0.1,0.4,0.1,0.6v0.1c-0.8,0.3-1.3,1-1.5,2.1l-0.4,1.3c0,0.2-0.1,0.3-0.2,0.4c-0.9,0.3-1.6,1.3-2.2,3l-0.3,1.1
				c-0.2,0.4-0.3,0.7-0.5,0.9l-0.6,0.8c-0.1,0.4-0.1,0.6-0.2,0.7c-0.3,0.1-0.6,0.6-0.9,1.6c-0.3,1-0.4,1.5-0.4,1.6
				c0,0.8-0.1,1.3-0.4,1.3h-0.5c-0.1,0-0.3,0.4-0.7,1.1c-0.3,0.7-0.6,1.2-0.8,1.5c-0.2,0.2-0.6,0.7-1.2,1.5
				c-0.5,0.7-1.3,1.4-2.2,1.9c-0.3,0-0.4-0.3-0.4-1l0.2-1.9l-0.3-1l0.3-0.6l-0.1-1c0-0.1,0.1-0.4,0.4-0.9v-0.7
				c0.6-1.1,0.9-1.8,0.9-2.1c0-0.4,0.2-0.8,0.6-1.2l0.8-1.3c0.3-1.4,0.7-2.5,1.2-3.3l0.5-0.5l0.7-1.6c1-1.3,1.5-2.1,1.7-2.4
				c0.1-0.4,0.3-0.6,0.6-0.7l1.1-0.2c0.3-0.1,0.5-0.6,0.6-1.4s0.5-1.3,1.3-1.5s1.2-0.4,1.3-0.6c0.1-0.9,0.3-1.4,0.7-1.5
				s0.7-0.3,0.9-0.7c0.2-0.4,0.7-0.7,1.5-1.1s1.2-0.8,1.2-1.4l0.2-0.1l0.2,1C49.3,65.4,49.1,65.7,48.6,66z"/>
			<path class="st2" d="M102.2,55.4l-0.7-2.2l-0.2-1c-0.3-1.5-0.8-2.5-1.5-2.9c-0.6-0.5-1-0.9-1.2-1.3l-0.2-0.1
				c-0.7-0.1-1.1-0.2-1.1-0.4s0-0.4,0-0.5l-0.8-0.8c-0.6-0.2-1-0.5-1.3-0.8c-0.3-0.6-0.8-0.8-1.6-0.6l-0.5,0.1l-0.8-0.1
				c-0.7-0.6-1.6-0.8-2.8-0.6c-1.2,0.1-2.3,0.2-3.1,0.1c-0.9-0.1-1.8,0-2.6,0.2L83,44.7c-0.2-0.1-0.4-0.2-0.6-0.1l-3,0.8L78,45.5
				c-0.5,0.1-1,0.3-1.5,0.6s-1,0.5-1.5,0.6c-0.1,0-0.4-0.1-1.2-0.2l-0.1,0.2c-0.2,0.3-0.3,0.4-0.5,0.5h-1.1H72
				c-0.4,0.1-1.2,0.7-2.4,1.9c-0.1,0-0.2-0.1-0.3-0.3c-0.1-0.2-0.3-0.3-0.4-0.3L67.6,49c-0.7,0.1-1.2,0.3-1.6,0.6l-1.3,0.7
				c-0.9,0.3-1.6,0.5-2.2,0.8l-6.1,3c-0.3,0.2-0.7,0.4-1,0.5c-0.4,0.1-0.6,0.3-0.8,0.7l-0.1,0.2c0,0.1,0,0.2,0,0.3
				c0,1.3-0.3,2.4-0.9,3.4c0.2-0.1,0.3-0.2,0.6-0.4c1-0.6,1.7-1.2,2.2-1.6h0.7c0.7-0.4,1.2-0.6,1.6-0.8c0.4-0.1,0.7-0.3,1-0.5
				s0.7-0.4,1.1-0.6c0.4-0.2,1-0.4,1.6-0.8h0.4l2-0.8c1.6-0.6,2.5-1,2.6-1.3l0.9,0.1c0.2-0.1,0.4-0.4,0.7-0.7
				c0.3,0.3,0.4,0.5,0.6,0.5s0.3-0.2,0.5-0.4c0.2-0.3,0.4-0.4,0.7-0.5l0.3-0.1c0.6,0.1,1.3,0,2.3-0.2l0.3-0.1c0.3-0.1,0.6-0.2,1-0.4
				l1.3-0.4h0.1c0.5,0.1,0.8,0.1,0.9,0.1s0.4-0.3,0.9-0.7h1.4l2.3-0.3l1-0.4l0.3-0.1c0.1,0,0.3,0,0.5,0.1l0.7,0.1
				c0.6-0.1,0.9-0.2,1.1-0.1c0.9,0.4,1.5,0.5,1.7,0.5H87l0.6-0.4c0.3-0.1,0.5,0,0.7,0.3s0.3,0.4,0.4,0.4l1.4-0.5v0.2L90,50
				c0,0.1,0.1,0.2,0.2,0.3c1.2,0.5,2.1,1.2,2.9,2.1c0.1,0.3,0.3,0.7,0.5,0.9c0.2,0.3,0.4,1,0.7,2.1l0.3,2.2l0.4,1.2
				c0,0.1-0.1,0.4-0.5,0.9l0.6,0.4c0,0.1-0.1,0.2-0.4,0.5s-0.5,0.6-0.7,1.1v0.2c0,0.1,0.1,0.2,0.2,0.5l-0.7,1.3
				c0.1,0.1,0.2,0.2,0.3,0.2c-0.5,0.4-0.7,0.6-0.7,0.7l-0.4,0.8L92,66.1c-0.6,1-1,1.6-1.3,1.7l-2.5,1.7c-0.4,0.1-0.8,0.5-1,1
				c-0.3,0.5-0.7,0.8-1.2,1c-0.1,0-0.3,0-0.7,0c-1.1,0.8-2,1.3-2.6,1.5c-0.3,0.1-0.6,0.2-1,0.5s-0.7,0.5-1,0.6s-0.5,0.2-0.9,0.4
				c-0.3,0.2-0.9,0.4-1.8,0.6s-1.5,0.5-1.8,0.8l-0.8,0.3l-1.8,0.2c-0.2,0-0.3,0.2-0.4,0.5l-0.2,0c-0.7-0.2-1.1-0.2-1.2-0.2l-0.3,0.1
				c-0.3,0.3-0.6,0.5-0.8,0.5c-0.2,0-0.5,0.1-0.8,0c-0.3,0-0.5,0-0.7,0l-1.4,0.5c-0.2,0-0.4,0-0.4-0.2v-0.1c0-0.6,0-1.3-0.1-2
				c0.7-0.7,1.1-1.6,1.2-2.7s0.3-2,0.6-2.6c0.3-0.6,0.5-1.3,0.5-1.9c0-0.7,0.4-1.5,0.9-2.4c0.7-0.6,1-1.1,1.1-1.5s0-0.9-0.1-1.6
				c-0.1-0.5-0.7-1.4-1.7-2.6L69.6,60c-0.2-0.8-0.6-1.3-1-1.5l-1.7-1l-0.7,0.2c-0.1,0-0.1,0-0.2,0s-0.2,0-0.4,0
				c-0.4,0.1-0.7,0.6-1,1.7c-0.3,1.1-0.5,1.8-0.4,2.3l0.3,1c-0.3,0.8-0.4,1.3-0.4,1.6l-1.5,4.5c-0.4,1.2-0.6,2-0.6,2.3l0.1,0.4
				c-0.4,0.1-0.7,0.5-0.8,1.4c-0.1,0.8-0.1,1.3-0.2,1.3L61,74.6c0,0.2-0.1,0.5-0.3,0.9s-0.3,0.8-0.2,1c0,0.2,0.2,0.4,0.6,0.6
				l0.1,0.3l-0.7-0.3c-0.1,0-0.3,0.3-0.6,0.8c-0.2,0.5-0.3,0.9-0.3,1.2c0,0.1,0.1,0.2,0.2,0.4c0.1,0.2,0.2,0.3,0.2,0.4
				s-0.1,0.1-0.4,0.2c-0.3,0.1-0.5,0.2-0.5,0.4l-0.2,0.8c-0.6,0.7-0.8,1.6-0.5,2.7c-0.2,0.1-0.3,0.5-0.5,1.2l-0.2,1.1
				c0,0.2-0.2,0.8-0.5,1.7l0.3,0.8L57,89.3c-0.2,0.1-0.3,0.3-0.2,0.5V90c0.5,0.7,0.7,1.1,0.7,1.1c0,0.2,0,0.3-0.1,0.4L57,91.4
				c-0.6,0.6-1,0.9-1,1l-1.8,5.7c-0.7,2.5-1,4.3-0.7,5.4c0.2,1,0.7,1.6,1.4,2l0.3,0.3c0.9,1.6,2.1,2.2,3.5,1.9
				c0.6-0.1,1.1-0.5,1.6-1c0.5-0.6,0.7-1.1,0.6-1.5l-0.6-2.4c-0.1-0.7,0-1.3,0.5-1.8l0.1-1.5l0.2-0.5c0.2-0.6,0.4-1.1,0.5-1.5
				c0.1-0.3,0.2-0.5,0.1-0.6l-0.3-1.2l0.1-0.3c0.4-0.3,0.6-0.6,0.6-0.9s0.1-0.7,0.3-1.2c0.1-0.5,0.2-1.3,0.2-2.4
				c1-0.9,1.4-1.8,1.3-2.4v-0.2c-0.2-0.4-0.3-0.6-0.4-0.7c0.1-0.2,0.1-0.4,0.2-0.5c0.8-0.3,1.3-0.8,1.3-1.6c0-0.8,0.3-1.5,0.9-2.2
				c0.2-0.5,0.4-0.9,0.5-1c0.1-0.2,0.3-0.4,0.3-0.6l0.2,0.1l0.8-0.3h0.7l0.7-0.2l0.8,0.2l0.9-0.3h1.9l1.1-0.5l2.4-0.2
				c0.2,0,0.3-0.1,0.4-0.2v-0.6l0.4-0.2c0.1,0.4,0.3,0.6,0.6,0.6l1.9-0.6c0.3-0.1,0.6-0.3,0.9-0.6c1-0.1,1.6-0.1,1.8,0l0.8-0.3
				c0.3-0.5,0.5-0.8,0.7-0.8l1.2,0.1c0.6-0.1,1.9-0.6,3.7-1.5l2.2-1.4c0.2-0.1,0.4-0.3,0.8-0.8h1.1c1-0.6,1.6-1,1.9-1.1
				c0.2-0.1,0.8-0.6,1.6-1.2c0.8-0.7,1.3-1.4,1.5-2.2c0.1,0,0.2,0,0.3,0c0.3-0.1,0.9-0.7,1.7-1.8c0.3-0.1,0.5-0.5,0.6-1.3
				c0.9-1.1,1.5-2.8,2-5.1C102.5,58.9,102.6,57,102.2,55.4z"/>
		</g>
	</g>
</g>
</svg>
