<?xml version="1.0" encoding="utf-8"?>
<!-- Generator: Adobe Illustrator 25.2.0, SVG Export Plug-In . SVG Version: 6.00 Build 0)  -->
<svg version="1.1" id="Layer_1" xmlns="http://www.w3.org/2000/svg" xmlns:xlink="http://www.w3.org/1999/xlink" x="0px" y="0px"
	 viewBox="0 0 33 35" style="enable-background:new 0 0 33 35;" xml:space="preserve">
<style type="text/css">
	.st0{clip-path:url(#SVGID_2_);}
	.st1{fill:#25232E;}
</style>
<g>
	<defs>
		<rect id="SVGID_1_" width="33" height="35"/>
	</defs>
	<clipPath id="SVGID_2_">
		<use xlink:href="#SVGID_1_"  style="overflow:visible;"/>
	</clipPath>
	<g class="st0">
		<path class="st1" d="M27,29.5L27,29.5C27,29.5,27,29.5,27,29.5z"/>
		<path class="st1" d="M31.8,24.2c0,0.1-0.1,0.1,0,0.1C31.7,24.3,31.8,24.2,31.8,24.2z"/>
		<path class="st1" d="M12.4,31.5c0,0,0,0-0.1-0.1C12.3,31.4,12.3,31.5,12.4,31.5z"/>
		<path class="st1" d="M24.8,2.2L24.8,2.2C24.8,2.2,24.8,2.2,24.8,2.2z"/>
		<path class="st1" d="M8.7,2.4L8.7,2.4C8.7,2.4,8.7,2.4,8.7,2.4L8.7,2.4z"/>
		<path class="st1" d="M7.9,2.8c0.1,0,0.1-0.1,0.2-0.1C8,2.8,7.9,2.8,7.9,2.8z"/>
		<path class="st1" d="M31.4,24.8C31.4,24.9,31.3,24.9,31.4,24.8C31.3,24.9,31.3,24.9,31.4,24.8z"/>
		<path class="st1" d="M31,24.3c0,0-0.1,0.1-0.6,0.3c0,0,0,0.1-0.1,0.1c-0.3,0.6-0.3,0.7-0.5,1c-0.1,0.1-0.1,0.1-0.1,0
			c0.1-0.1,0.1-0.1,0.1-0.2c-0.1,0.2-0.4,0.3-0.3,0.2c-0.2,0.3,0.1-0.1,0,0.1l-0.3,0.4c0.1,0,0.2-0.2,0,0.1
			c-0.1,0.2-0.2,0.2-0.4,0.4c0,0-0.1,0,0-0.1c-0.1,0.1-0.3,0.2-0.3,0.3c0.2-0.2-0.3,0.4-0.1,0.3l-0.2,0.2c0,0,0-0.1,0.1-0.1
			c-0.1,0-0.2,0.2-0.2,0.3c-0.1,0.1-0.3,0.2-0.3,0.2c-0.1,0.1-0.3,0.2-0.3,0.2c-0.1,0.1,0,0,0,0.1l-0.4,0.3c0,0-0.1,0-0.1-0.1
			c-0.1,0.1,0,0.1-0.2,0.3c0.1-0.1-0.3,0.2-0.2,0c-0.2,0.1-0.5,0.3-0.7,0.5c-0.1,0.1,0.2-0.1,0.3-0.1c-0.6,0.4-0.5,0.6-1,0.8
			l0.1-0.1c-0.3,0.2-0.2,0.2-0.4,0.3c0,0-0.1,0-0.2,0c-0.2,0-0.4,0.2-0.6,0.3c0,0,0.3-0.1,0.2,0L24,30.6c0,0,0,0,0,0
			c-0.3,0.1-0.6,0.2-0.6,0.3l-0.3,0.1l0.1,0c0,0-0.4,0.2-0.4,0.2c-0.3,0.1-0.5,0.2-0.7,0.2c0.1,0,0.2,0,0,0.1c0-0.1-0.6,0.2-0.6,0.1
			c-0.1,0-0.3,0-0.3,0.1l0-0.1c0,0.1-0.4,0.2-0.7,0.3c0-0.1,0,0-0.1,0c0,0.1-0.1,0.2-0.1,0.3c0,0.1-0.1,0.2-0.1,0.3
			c0.3,0,0.6-0.2,1-0.2l-0.1,0l0.2-0.1c0,0,0,0,0,0.1l0.4-0.1c0.1,0,0.3-0.1,0.4-0.1l-0.2,0c0.2-0.1,0.3-0.1,0.5-0.2
			c-0.3,0.2,0.3-0.1,0.4-0.1l-0.2,0.1c0.2-0.1,0.2-0.1,0.2-0.1c0.3-0.1,0.3,0,0.5-0.1c-0.1,0-0.1,0.1-0.2,0.1
			c-0.1,0,0.1-0.1,0.2-0.1c0,0,0.1,0,0,0c0.2-0.1,0.6-0.3,0.7-0.3c0.1,0,0.1,0,0,0c0.5-0.3,0.2-0.1,0.7-0.4l0,0l0.2-0.1l0.3-0.1
			l-0.1,0c0.2-0.1,0.3-0.2,0.5-0.3l-0.1,0.1c0.2-0.1,0.4-0.2,0.5-0.3c0.1-0.1,0.3-0.2,0.4-0.3c0,0,0,0-0.1,0.1
			c0.3-0.3,0.3-0.1,0.7-0.5c0,0,0,0,0,0l0.2-0.1l0,0l0.1-0.2c0,0,0.1,0,0.1,0l0-0.1c0.2-0.1,0.4-0.3,0.7-0.5l-0.1,0
			c0.1-0.2,0.3-0.3,0.4-0.4c0.2-0.2,0.3-0.3,0.5-0.5c0.2-0.2,0.3-0.3,0.5-0.5c0.1-0.1,0.2-0.2,0.3-0.3c0.1-0.1,0.1-0.2,0.2-0.3l0,0
			l0.2-0.3c0.2-0.1,0,0.1,0,0.1c0.2-0.3,0-0.2,0.3-0.6c0.2-0.2,0,0.1-0.1,0.2c0.3-0.4,0.6-0.9,0.8-1.2c0,0,0,0,0,0
			c0.1-0.3,0.4-0.6,0.5-0.9c0,0,0,0.1,0,0.2c0.1-0.1,0.1-0.2,0.2-0.3l0,0.1c0.1-0.2,0.2-0.4,0.3-0.6c-0.1,0.1-0.1,0.1-0.2,0.2
			C31.6,24,31.3,24.2,31,24.3z"/>
		<path class="st1" d="M12.8,31.6L12.8,31.6l-0.3,0l-0.1-0.1c0,0-0.1,0-0.2,0c0,0-0.1-0.1-0.1-0.1c-0.3-0.1-0.3-0.1-0.3-0.1
			c0,0-0.1,0-0.1,0c0,0-0.1,0.1-0.1,0.1c0,0.1-0.1,0.1-0.1,0.1c0.2,0,0.3,0.1,0.4,0.1c0.1,0,0.2,0.1,0.3,0.1c0.1,0,0.2,0,0.4,0.1
			c-0.5-0.1,0.5,0.2,0,0.1c0.1,0,0.1,0,0.1,0C12.8,31.8,12.8,31.7,12.8,31.6C12.8,31.6,12.8,31.6,12.8,31.6z"/>
		<path class="st1" d="M12.8,31.5C12.8,31.5,12.8,31.5,12.8,31.5l-0.1,0C12.7,31.5,12.8,31.5,12.8,31.5z"/>
		<path class="st1" d="M4,26.1C4,26,4.2,26.2,4,26.1C4,26,4,26,3.9,25.9c0-0.1-0.3-0.4-0.3-0.4c-0.2-0.4-0.2-0.1-0.4-0.5
			c0-0.1,0.2,0.3,0.1,0.1l-0.3-0.4c0,0,0.1,0,0.2,0.2c-0.1-0.3-0.3-0.5-0.4-0.8c-0.1-0.2-0.2-0.4-0.3-0.7c-0.1-0.2-0.2-0.4-0.2-0.7
			c-0.1-0.2-0.2-0.4-0.3-0.7c0-0.2,0.1,0.1,0.1,0.2C2,21.9,2,21.6,1.9,21.3c-0.1-0.3-0.1-0.5-0.2-0.9l0,0c0-0.5-0.2-1-0.3-1.5
			c0-0.3-0.1-0.5-0.1-0.8c0-0.3,0-0.6,0-0.8l0,0.1c0-0.1-0.1-0.4-0.1-0.6c0,0,0.1,0.1,0.1-0.2c0,0.1,0,0.2,0,0.2c0-0.1,0-0.2,0-0.4
			c0-0.1,0-0.3,0-0.5c0-0.3,0-0.7,0.1-1.1c0.1-0.4,0.1-0.8,0.2-1.2c0.1-0.4,0.2-0.8,0.3-1.2c0.5-2,1.7-4,3-5.5
			c-0.2,0.2-0.2,0.1,0-0.1c0.3-0.2,0.5-0.4,0.7-0.6c0.2-0.2,0.4-0.4,0.6-0.6c0.9-0.8,1.8-1.4,2.7-2l0,0c0.2-0.1,0.2-0.1,0.3-0.2l0,0
			c0.2-0.1,0.3-0.2,0.5-0.3c0,0,0,0,0,0c0.2-0.3,0.5-0.6,0.8-0.8l0,0c0.1-0.1,0.1-0.1,0.2-0.1c0,0,0.1-0.1,0.1-0.1
			c0.3-0.5,0.8-0.8,1.3-1.1C12.3,1.1,12.4,1,12.4,1c-0.1,0-0.1,0-0.2,0c-0.2,0.1-0.3,0.1-0.5,0.2l0.1,0l-0.7,0.2l0.5-0.1
			c-0.1,0.1-0.3,0.1-0.4,0.2c-0.2,0.1-0.4,0.1-0.6,0.2c-0.2,0.1-0.4,0.2-0.6,0.3C9.8,1.9,9.6,2,9.3,2.1C9.1,2.2,8.9,2.3,8.7,2.4
			C8.2,2.8,8.3,2.6,7.8,2.9c0,0,0-0.1,0.1-0.1c-0.5,0.4-0.8,0.6-1.3,1c0-0.1-0.1,0-0.2,0.1C6.4,4,6.3,4.1,6.3,4l0,0.1
			C6.2,4.2,5.9,4.4,5.9,4.3L5.8,4.5l0,0C5.6,4.6,5.3,4.8,5.1,5C5,5.2,4.8,5.4,4.7,5.4C4.4,5.8,4,6.2,3.6,6.7C3.4,6.9,3.2,7.2,3,7.4
			C2.8,7.7,2.7,8,2.5,8.2C2.5,8.3,2.3,8.6,2.2,8.9C2.1,8.9,2,9,2,9.1C1.9,9.3,1.8,9.6,1.7,9.8c0,0,0,0,0,0c-0.1,0.2-0.3,0.5-0.3,0.7
			c-0.1,0.3-0.2,0.5-0.2,0.4c0.1,0.1-0.2,0.6-0.2,0.6s0,0.1-0.1,0.2c0,0.1,0,0.1-0.1,0.2c0,0.1,0,0.2-0.1,0.3
			c-0.1,0.2-0.1,0.5-0.2,0.7c0,0.1-0.1,0.3-0.1,0.5c0,0.2-0.1,0.3-0.1,0.5c-0.3,1.4-0.4,3.5,0,5.6c0.4,2.1,1.2,4.2,2.3,5.8
			c0.1,0.1,0.1,0.2,0.2,0.3c0.1,0.1,0.1,0.2,0.2,0.3c0.1,0.2,0.3,0.4,0.4,0.5c0.1,0.2,0.3,0.3,0.4,0.5C3.9,26.9,4,27,4,27.1
			c0-0.2,0.1-0.4,0.2-0.7L4,26.1z"/>
		<path class="st1" d="M23.5,2.9C23.7,3,23.8,3,24.1,3.2l-0.1,0c0.2,0.1,0.3,0,0.5,0.2c0,0-0.1,0-0.1,0c-0.1,0-0.2-0.1-0.3-0.1
			c0.2,0.1,0.7,0.3,0.5,0.2c0.2,0.1,0.3,0.2,0.4,0.3c0,0-0.2-0.1,0-0.1c0.3,0.2,0.7,0.4,1.1,0.7c0,0,0,0,0,0
			c0.3,0.1,0.2,0.2,0.6,0.5C26.8,4.9,26.9,5,27,5.1c0.1,0.1,0.2,0.2,0.4,0.3c0.3,0.2,0.5,0.4,0.8,0.7c0.2,0.3,0.5,0.5,0.7,0.8
			C29,7,29.1,7.1,29.2,7.2c0.1,0.1,0.2,0.3,0.3,0.4c0.2,0.2,0.4,0.5,0.7,0.8l0,0.1l0.2,0.3c0,0.1-0.1-0.2-0.1,0l0.1,0.1
			c0,0,0.4,0.7,0.1,0.3c0.2,0.3,0.4,0.7,0.6,1c0.3,0.1,0.6,0.3,0.9,0.6c0.2,0.1,0.4,0.3,0.5,0.4l0.2,0.2c0.1,0.1,0.2,0.1,0.3,0.2
			c0,0,0,0,0,0l0,0c0,0,0,0,0,0c-0.2-0.3-0.1-0.5-0.3-0.8c0-0.2-0.2-0.5-0.1-0.5c-0.3-0.5-0.4-0.8-0.7-1.3c0-0.1-0.1-0.1-0.2-0.4
			l0,0c-0.2-0.3-0.4-0.7-0.6-1c-0.2-0.3-0.5-0.7-0.7-1l0,0l-0.1-0.1c-0.3-0.3-0.6-0.7-0.9-1.1C29.2,5.3,29,5.1,28.8,5
			c-0.2-0.2-0.3-0.3-0.4-0.4c-0.1-0.1-0.2-0.2-0.3-0.3c-0.1-0.1-0.1-0.1-0.2-0.2c-0.1,0-0.1-0.1-0.2-0.2l0,0
			c-0.3-0.2-0.5-0.4-0.8-0.6c-0.1-0.1-0.3-0.2-0.4-0.3C26.2,3,26.1,3,25.9,2.9c0,0,0,0,0.1,0c-0.2,0-0.4-0.2-0.5-0.3l0.1,0.1
			c-0.2-0.1-0.4-0.2-0.5-0.3c-0.1,0-0.2-0.1-0.3-0.1c0,0,0,0,0,0l-0.1,0l-0.1-0.1c-0.1,0-0.5-0.2-0.6-0.2c0,0-0.3-0.2-0.1-0.1
			c-0.1,0-0.2-0.1-0.3-0.1c0,0.1,0,0.2,0,0.4C23.7,2.3,23.6,2.6,23.5,2.9z"/>
		<path class="st1" d="M27.9,27.9C27.9,27.9,27.9,27.9,27.9,27.9C27.9,27.9,27.9,27.9,27.9,27.9z"/>
		<path class="st1" d="M29.9,25.6c0,0,0.1-0.1,0.1-0.1C29.9,25.6,29.9,25.6,29.9,25.6z"/>
		<path class="st1" d="M24,30.5C24,30.5,24,30.5,24,30.5C24.2,30.4,24.1,30.5,24,30.5z"/>
		<path class="st1" d="M21.5,31.4C21.5,31.4,21.5,31.5,21.5,31.4C21.5,31.4,21.5,31.4,21.5,31.4z"/>
		<path class="st1" d="M18.5,14.5c0,0.1-0.4,0.1-0.5,0.1c-0.1,0.1-0.2,0.1-0.3,0.3c-0.1,0.1-0.2,0.2-0.3,0.2c-0.1,0-0.1-0.1-0.1-0.2
			c0,0,0.1-0.2,0.2-0.4c0,0,0,0,0,0c0,0,0,0,0.1-0.1c0-0.1,0.1-0.1,0.1-0.2c0,0,0.1-0.1,0.1-0.1c0,0,0-0.1,0.1-0.1
			c0-0.1,0.1-0.3,0.2-0.7l0.1-0.4l0.5-0.9c0.1-0.4,0.2-0.7,0.4-0.9c0.2-0.2,0.2-0.4,0.3-0.5c0-0.2,0.1-0.3,0.3-0.6
			c0.2-0.2,0.3-0.6,0.4-1.1l0.1-0.6c0-0.4-0.2-0.9-0.5-1.3c-0.4-0.5-0.6-0.7-0.9-0.7c-0.3,0-0.5,0.1-0.7,0.4l-0.4,0.6
			c-0.3,0.2-0.5,0.5-0.6,0.9c-0.2,0.4-0.4,0.7-0.6,0.9c-0.2,0.2-0.3,0.4-0.5,0.7c-0.1,0.3-0.3,0.4-0.4,0.5c-0.1,0.1-0.2,0.2-0.2,0.4
			L15,10.8c-0.1,0-0.2,0.2-0.2,0.3l-0.1,0.2c-0.1,0.1-0.3,0.3-0.5,0.6l0,0.1c-0.1,0.1-0.1,0.2-0.1,0.3c0,0.1-0.1,0.1-0.2,0.1
			c-0.2,0-0.3,0.1-0.4,0.3c-0.1,0.2-0.2,0.4-0.5,0.6c-0.3,0.2-0.4,0.4-0.5,0.6c0,0-0.1,0.1-0.3,0.3c-0.2,0.2-0.4,0.4-0.7,0.7
			c-0.3,0.3-0.5,0.5-0.5,0.6c0,0.2-0.1,0.3-0.2,0.4h-0.3c-0.1,0.1-0.3,0.3-0.5,0.8c-0.1,0-0.2,0-0.4,0.1L9.2,17l-0.4,0.2
			c-0.2,0.3-0.6,0.6-1,0.8C7.3,18.3,7,18.4,7,18.4c-0.1,0-0.1-0.1-0.2-0.2c-0.1-0.1-0.1-0.3-0.1-0.4v-0.1c0.2-0.7,0.3-1.1,0.3-1.1
			c0,0,0-0.1-0.1-0.3C6.9,16.1,7,15.9,7,15.8c0-0.1,0.1-0.2,0.1-0.3c0.1-0.1,0.1-0.2,0.2-0.4c0.1-0.2,0.1-0.4,0.2-0.5
			c0.1-0.1,0.1-0.2,0.2-0.4c0-0.1,0.1-0.3,0.3-0.5c0.1-0.2,0.2-0.5,0.3-0.9l0-0.1c0.7-1,1.1-1.5,1.1-1.7V11l-0.1-0.3c0,0,0,0,0,0
			c0.1-0.1,0.3-0.2,0.6-0.5c0.6-0.8,1-1.3,1.2-1.3l0.1-0.3l0.6-0.7C12,7.7,12.3,7.4,12.5,7c0.1-0.2,0.2-0.4,0.3-0.5
			c0.2-0.1,0.2-0.2,0.3-0.2l0.1-0.3l4.4-3.4c0.5-0.3,0.8-0.5,1-0.6L18.8,2c0.1,0,0.2-0.1,0.4-0.1c0.2,0,0.4-0.1,0.5-0.2
			c0.1-0.1,0.3-0.1,0.5-0.1c0.2,0,0.3,0.1,0.3,0.3c0,0.1-0.1,0.2-0.2,0.5c-0.1,0.2-0.2,0.4-0.3,0.4c-0.6,0.5-1,1-1,1.4
			c0,0.4,0.3,0.6,1,0.6c0.3,0,0.5-0.5,0.8-1.5L21,3c0.1-0.2,0.1-0.3,0.1-0.3c0-0.2,0-0.3,0.1-0.4c0.1-0.1,0.1-0.2,0.1-0.3
			c0,0,0-0.1-0.1-0.2c-0.1-0.1-0.1-0.2-0.1-0.4c0-0.1,0-0.2-0.1-0.3l-0.2-0.4c-0.1-0.3-0.3-0.5-0.5-0.5c-0.3,0-0.5-0.1-0.6-0.1h-0.1
			c-0.2,0.1-0.3,0.1-0.3,0.1c0,0-0.1,0-0.1,0c-0.1,0-0.1,0-0.2,0l-0.5,0.2c-0.2,0-0.3,0.1-0.6,0.3l-0.1,0h-0.1
			c-0.2,0.1-0.3,0.2-0.3,0.2c-0.2,0.2-0.3,0.3-0.5,0.3c-0.1,0-0.2,0-0.2,0.1c-0.1,0-0.2,0.1-0.2,0.1s-0.2,0.1-0.3,0.2
			c-0.1,0.1-0.3,0.2-0.4,0.5c-0.1-0.1-0.2-0.1-0.2-0.1c-0.2,0-0.2,0.1-0.2,0.2c0,0.1,0,0.1,0,0.2c-0.4,0-0.8,0.2-1.1,0.6
			c-0.2,0-0.4,0.1-0.4,0.4L13.7,3c-0.5,0.1-0.8,0.3-1,0.7c-0.1,0.1-0.2,0.2-0.4,0.3l-0.1,0.1c-0.3,0.2-0.5,0.4-0.5,0.5
			c-0.1,0.1-0.1,0.2-0.2,0.2c-0.5,0.3-0.8,0.6-0.8,0.8c0,0.1-0.1,0.2-0.3,0.4l0,0.3c0,0,0,0,0,0c0,0-0.1,0-0.1-0.1h-0.1
			c-0.1,0-0.3,0.1-0.3,0.3C9.7,6.9,9.6,7,9.6,7L9,7.6C8.8,7.8,8.6,8.1,8.5,8.3l0,0.1C8.3,8.6,8.3,8.7,8.2,8.9C8.1,9,8,9.1,7.9,9.3
			C7.8,9.4,7.7,9.5,7.6,9.6L7.5,9.9C7.4,9.9,7.4,10,7.4,10.1c0,0,0,0.1,0.1,0.3c-0.2,0-0.3,0.2-0.3,0.4v0.2l0,0.2l-0.2,0
			c0,0.1-0.1,0.2-0.1,0.4l-0.1,0.2l0,0.3l-0.2,0c-0.4,0.4-0.6,0.8-0.6,0.9v0.2c-0.2,0.2-0.3,0.4-0.3,0.6c0,0.1,0,0.2,0.1,0.2h0.1
			L5.8,14H5.7c0,0,0,0,0,0l0.1,0.3l-0.3,0l-0.1,0.1c0,0.1-0.1,0.1-0.2,0.2c-0.1,0.1-0.1,0.2-0.1,0.3l0,0.2C5,15.1,5,15.2,5,15.3
			s-0.1,0.2-0.1,0.4c-0.1,0.2-0.1,0.3-0.1,0.5l0,0.6l0,0.3l0,0.6c0,0.1,0.1,0.3,0.4,0.6s0.4,0.5,0.4,0.5l0.3,0.2
			c0.3,0.2,0.4,0.4,0.5,0.4l0.4,0c0,0,0,0,0.1,0c0.2,0.2,0.4,0.3,0.8,0.3c0.2,0,0.5,0,0.8-0.1l0.7-0.2l1.1-1.1
			c0.1-0.2,0.1-0.3,0.1-0.3l0.2,0l0.1-0.1c0.1-0.3,0.2-0.4,0.2-0.4l0.2,0c0,0,0.1,0,0.1,0l0.1-0.2c0.1-0.1,0.2-0.2,0.3-0.3
			c0.1-0.1,0.1-0.1,0.1-0.1c0.4-0.2,0.6-0.4,0.6-0.7c0-0.1,0.1-0.2,0.2-0.2c0.1,0,0.3-0.2,0.4-0.4c0.3-0.2,0.4-0.3,0.5-0.3
			c0-0.1,0.1-0.1,0.1-0.1l0-0.2l0.1-0.1l0.2,0l0,0c0.1-0.1,0.1-0.2,0.2-0.2L13.7,14c0,0,0.1-0.1,0.2-0.2c0.1-0.1,0.2-0.2,0.2-0.2
			h0.2c0,0,0.1-0.1,0.2-0.2c0.1-0.2,0.5-0.6,1-1.1c0.3-0.1,0.6-0.4,1-0.8l0,0.2c0,0,0,0.1-0.1,0.3c-0.1,0.2-0.1,0.3-0.2,0.3
			c-0.2,0.2-0.3,0.4-0.3,0.6V13c-0.2,0.4-0.3,0.6-0.3,0.8c0,0.1-0.1,0.2-0.4,0.6l0,0.3c-0.1,0.1-0.1,0.1-0.1,0.3L15,15.1
			c-0.1,0.1-0.1,0.2-0.1,0.2v0.2c-0.1,0.2-0.2,0.4-0.3,0.6c-0.1,0.2-0.2,0.5-0.2,0.7c0,0-0.1,0.1-0.1,0.1L14,17l-1.5,1.5
			c-0.1,0.2-0.2,0.3-0.3,0.4l-1,0.8L11,19.9l-0.6,0.6c-0.2,0.2-0.3,0.3-0.3,0.3l0,0.2v0.1c0,0.1,0,0.2-0.1,0.3c-0.1,0-0.1,0-0.1,0
			c-0.2,0-0.3,0.1-0.4,0.4l-0.2,0.3l-0.2,0.3c0,0.1-0.2,0.2-0.4,0.3c-0.2,0.1-0.3,0.3-0.3,0.4c0,0.1,0,0.1,0,0.2l-0.1,0.1L8,23.9
			c-0.1,0.1-0.2,0.2-0.3,0.3C7.5,25,7.2,25.6,7,26c-0.4,0.8-0.6,1.3-0.6,1.6l0,0.4c0,0.1-0.1,0.3-0.2,0.6l0.1,0.3c0,0,0,0.1,0,0.1
			l-0.1,0.2v0c0.1,0.2,0.2,0.4,0.2,0.5c0,0.1,0.1,0.2,0.1,0.3c0.1,0.1,0.1,0.2,0.2,0.3c0.2,0.6,0.6,0.9,1.3,0.9c0.1,0,0.2,0,0.2-0.1
			c0.1-0.1,0.2-0.1,0.4-0.1c0.2,0,0.3-0.1,0.4-0.2c0.1-0.2,0.2-0.2,0.3-0.3c0.1,0,0.2-0.1,0.3-0.3c0-0.2,0.1-0.3,0.1-0.3
			c0.2,0,0.4-0.1,0.4-0.3c0-0.2,0.3-0.5,0.6-1c0.4-0.5,0.6-0.7,0.6-0.8c0-0.1,0.1-0.3,0.3-0.5c0.2-0.2,0.4-0.4,0.4-0.7
			c0.1-0.2,0.2-0.4,0.3-0.6c0.1-0.2,0.2-0.3,0.3-0.4l0.1-0.3l0.3-0.4l0.2-0.6c0.2-0.4,0.3-0.6,0.3-0.7c0.3-0.2,0.4-0.5,0.4-0.8
			c0,0,0.1-0.2,0.3-0.4l0.2-0.3l0.3-1c0.2-0.5,0.3-0.9,0.5-1.1c0.1-0.2,0.2-0.3,0.3-0.3l-0.1-0.3v0c0.1-0.1,0.3-0.3,0.3-0.5l0.3-1
			c0.1-0.1,0.2-0.2,0.2-0.4l0.3-0.5c0.2-0.3,0.5-0.6,1.1-0.8c0,0,0.7-0.5,1.3-0.9C18.6,15.1,18.4,15,18.5,14.5z M13.3,19.9
			C13.1,20,13,20.1,13,20.3v0.2c-0.2,0.2-0.3,0.4-0.3,0.5c0,0.2-0.1,0.3-0.1,0.4c-0.1,0.1-0.1,0.2-0.1,0.2v0.1c0,0.1,0,0.2,0,0.2v0
			c-0.3,0.1-0.5,0.4-0.6,0.8l-0.1,0.5c0,0.1,0,0.1-0.1,0.1c-0.3,0.1-0.6,0.5-0.8,1.1l-0.1,0.4c-0.1,0.1-0.1,0.3-0.2,0.3l-0.2,0.3
			c0,0.1,0,0.2-0.1,0.3c-0.1,0-0.2,0.2-0.3,0.6c-0.1,0.3-0.2,0.5-0.2,0.6c0,0.3,0,0.5-0.1,0.5H9.5c0,0-0.1,0.1-0.2,0.4
			C9.2,28,9.1,28.2,9,28.3c-0.1,0.1-0.2,0.3-0.4,0.5s-0.5,0.5-0.8,0.7c-0.1,0-0.2-0.1-0.2-0.4l0.1-0.7l-0.1-0.4l0.1-0.2l0-0.3
			c0,0,0.1-0.2,0.2-0.3v-0.3c0.2-0.4,0.3-0.6,0.3-0.8c0-0.1,0.1-0.3,0.2-0.4l0.3-0.5c0.1-0.5,0.2-0.9,0.4-1.2l0.2-0.2l0.2-0.6
			c0.3-0.5,0.5-0.8,0.6-0.9c0.1-0.1,0.1-0.2,0.2-0.3l0.4-0.1c0.1,0,0.2-0.2,0.2-0.5c0-0.3,0.2-0.5,0.5-0.6c0.3-0.1,0.4-0.2,0.5-0.2
			c0-0.3,0.1-0.5,0.3-0.5c0.1,0,0.3-0.1,0.3-0.2c0.1-0.1,0.3-0.3,0.5-0.4c0.3-0.1,0.4-0.3,0.4-0.5l0.1,0l0.1,0.4
			C13.5,19.7,13.5,19.8,13.3,19.9z"/>
		<path class="st1" d="M32.7,16l-0.2-0.8l-0.1-0.4c-0.1-0.5-0.3-0.9-0.5-1.1c-0.2-0.2-0.4-0.3-0.4-0.5l-0.1,0
			c-0.3,0-0.4-0.1-0.4-0.1c0-0.1,0-0.1,0-0.2l-0.3-0.3c-0.2-0.1-0.4-0.2-0.5-0.3c-0.1-0.2-0.3-0.3-0.6-0.2l-0.2,0l-0.3,0
			c-0.2-0.2-0.6-0.3-1-0.2c-0.4,0-0.8,0.1-1.1,0c-0.3,0-0.6,0-1,0.1l-0.3,0.1c-0.1,0-0.2-0.1-0.2-0.1l-1.1,0.3l-0.5,0.1
			c-0.2,0-0.4,0.1-0.6,0.2c-0.2,0.1-0.4,0.2-0.5,0.2c0,0-0.2,0-0.4-0.1l-0.1,0.1C22.3,13,22.3,13,22.2,13l-0.4,0l0,0
			c-0.1,0-0.4,0.3-0.9,0.7c0,0-0.1,0-0.1-0.1c0-0.1-0.1-0.1-0.1-0.1l-0.5,0.2c-0.3,0.1-0.4,0.1-0.6,0.2l-0.5,0.3
			c-0.3,0.1-0.6,0.2-0.8,0.3l-2.2,1.1c-0.1,0.1-0.2,0.2-0.4,0.2c-0.1,0-0.2,0.1-0.3,0.2l0,0.1c0,0,0,0.1,0,0.1
			c0,0.5-0.1,0.9-0.3,1.2c0.1,0,0.1-0.1,0.2-0.1c0.4-0.2,0.6-0.4,0.8-0.6l0.3,0c0.3-0.1,0.4-0.2,0.6-0.3c0.1,0,0.3-0.1,0.4-0.2
			c0.1-0.1,0.2-0.2,0.4-0.2c0.2-0.1,0.3-0.2,0.6-0.3l0.1,0l0.7-0.3c0.6-0.2,0.9-0.4,0.9-0.5l0.3,0c0.1,0,0.1-0.1,0.3-0.3
			c0.1,0.1,0.2,0.2,0.2,0.2c0.1,0,0.1-0.1,0.2-0.2c0.1-0.1,0.1-0.2,0.3-0.2l0.1,0c0.2,0,0.5,0,0.8-0.1l0.1,0c0.1,0,0.2-0.1,0.4-0.1
			l0.5-0.2l0,0c0.2,0,0.3,0,0.3,0c0.1,0,0.2-0.1,0.3-0.3l0.5,0l0.8-0.1l0.4-0.1l0.1,0c0,0,0.1,0,0.2,0l0.2,0c0.2,0,0.3-0.1,0.4,0
			c0.3,0.1,0.5,0.2,0.6,0.2l0,0l0.2-0.1c0.1,0,0.2,0,0.3,0.1c0.1,0.1,0.1,0.1,0.1,0.1l0.5-0.2l0,0.1l0.1,0.1c0,0.1,0,0.1,0.1,0.1
			c0.4,0.2,0.8,0.4,1.1,0.8c0,0.1,0.1,0.2,0.2,0.3c0.1,0.1,0.2,0.4,0.2,0.8l0.1,0.8l0.2,0.4c0,0,0,0.2-0.2,0.3l0.2,0.2
			c0,0,0,0.1-0.1,0.2s-0.2,0.2-0.3,0.4l0,0.1c0,0,0,0.1,0.1,0.2l-0.3,0.5c0,0,0.1,0.1,0.1,0.1c-0.2,0.1-0.3,0.2-0.3,0.2l-0.1,0.3
			L29,19.9c-0.2,0.4-0.4,0.6-0.5,0.6l-0.9,0.6c-0.2,0.1-0.3,0.2-0.4,0.4c-0.1,0.2-0.2,0.3-0.4,0.3c0,0-0.1,0-0.3,0
			c-0.4,0.3-0.7,0.5-1,0.5c-0.1,0-0.2,0.1-0.4,0.2c-0.1,0.1-0.3,0.2-0.4,0.2c-0.1,0-0.2,0.1-0.3,0.2c-0.1,0.1-0.3,0.2-0.6,0.2
			c-0.3,0.1-0.5,0.2-0.7,0.3L23,23.5l-0.6,0.1c-0.1,0-0.1,0.1-0.2,0.2l-0.1,0c-0.2-0.1-0.4-0.1-0.4-0.1l-0.1,0
			c-0.1,0.1-0.2,0.2-0.3,0.2c-0.1,0-0.2,0-0.3,0s-0.2,0-0.2,0l-0.5,0.2c-0.1,0-0.1,0-0.1-0.1l0,0c0-0.2,0-0.5,0-0.7
			c0.3-0.2,0.4-0.6,0.4-1c0-0.4,0.1-0.7,0.2-1c0.1-0.2,0.2-0.5,0.2-0.7c0-0.2,0.1-0.5,0.3-0.9c0.2-0.2,0.4-0.4,0.4-0.6
			c0-0.1,0-0.3,0-0.6c0-0.2-0.2-0.5-0.6-0.9l-0.1-0.1c-0.1-0.3-0.2-0.5-0.4-0.6l-0.6-0.3l-0.3,0.1c0,0,0,0-0.1,0c0,0-0.1,0-0.1,0
			c-0.1,0-0.3,0.2-0.4,0.6c-0.1,0.4-0.2,0.7-0.1,0.8l0.1,0.4c-0.1,0.3-0.1,0.5-0.1,0.6l-0.5,1.6c-0.2,0.4-0.2,0.7-0.2,0.8l0,0.2
			c-0.2,0-0.3,0.2-0.3,0.5c0,0.3,0,0.5-0.1,0.5L17.8,23c0,0.1,0,0.2-0.1,0.3c-0.1,0.2-0.1,0.3-0.1,0.4c0,0.1,0.1,0.1,0.2,0.2l0,0.1
			l-0.3-0.1c-0.1,0-0.1,0.1-0.2,0.3c-0.1,0.2-0.1,0.3-0.1,0.4c0,0,0,0.1,0.1,0.1s0.1,0.1,0.1,0.1c0,0,0,0-0.1,0.1
			c-0.1,0-0.2,0.1-0.2,0.2L17,25.4c-0.2,0.2-0.3,0.6-0.2,1c-0.1,0-0.1,0.2-0.2,0.4l-0.1,0.4c0,0.1-0.1,0.3-0.2,0.6l0.1,0.3l-0.1,0.2
			c-0.1,0-0.1,0.1-0.1,0.2l0,0.1c0.2,0.3,0.3,0.4,0.3,0.4c0,0.1,0,0.1,0,0.1l-0.2,0c-0.2,0.2-0.4,0.3-0.4,0.4l-0.7,2.1
			C15,32.4,14.9,33,15,33.4c0.1,0.4,0.2,0.6,0.5,0.7l0.1,0.1c0.3,0.6,0.7,0.8,1.3,0.7c0.2,0,0.4-0.2,0.6-0.4
			c0.2-0.2,0.2-0.4,0.2-0.5l-0.2-0.9c-0.1-0.3,0-0.5,0.2-0.7l0-0.5l0.1-0.2c0.1-0.2,0.1-0.4,0.2-0.5c0-0.1,0.1-0.2,0.1-0.2l-0.1-0.4
			l0-0.1c0.1-0.1,0.2-0.2,0.2-0.3c0-0.1,0-0.3,0.1-0.4c0.1-0.2,0.1-0.5,0.1-0.9c0.4-0.3,0.5-0.6,0.5-0.9l0-0.1
			c-0.1-0.1-0.1-0.2-0.2-0.2c0-0.1,0.1-0.1,0.1-0.2c0.3-0.1,0.5-0.3,0.5-0.6c0-0.3,0.1-0.6,0.3-0.8c0.1-0.2,0.1-0.3,0.2-0.4
			c0.1-0.1,0.1-0.1,0.1-0.2l0.1,0l0.3-0.1l0.3,0l0.3-0.1l0.3,0.1l0.3-0.1l0.7,0l0.4-0.2l0.9-0.1c0.1,0,0.1,0,0.2-0.1l0-0.2l0.1-0.1
			c0.1,0.2,0.1,0.2,0.2,0.2l0.7-0.2c0.1,0,0.2-0.1,0.3-0.2c0.4,0,0.6,0,0.7,0l0.3-0.1c0.1-0.2,0.2-0.3,0.2-0.3l0.4,0
			c0.2,0,0.7-0.2,1.4-0.6l0.8-0.5c0.1,0,0.2-0.1,0.3-0.3l0.4,0c0.4-0.2,0.6-0.4,0.7-0.4c0.1,0,0.3-0.2,0.6-0.5
			c0.3-0.3,0.5-0.5,0.6-0.8c0,0,0.1,0,0.1,0c0.1,0,0.3-0.2,0.6-0.6c0.1,0,0.2-0.2,0.2-0.5c0.3-0.4,0.5-1,0.7-1.8
			C32.8,17.3,32.8,16.6,32.7,16z"/>
	</g>
</g>
</svg>
